<svg width="92" height="146" viewBox="0 0 92 146" fill="none" xmlns="http://www.w3.org/2000/svg">
<path id="Path 2 Copy 4" d="M92 3L87 5.88675V0.113249L92 3ZM0 144.5H22V145.5H0V144.5ZM31.5 135V131H32.5V135H31.5ZM42 120.5H52V121.5H42V120.5ZM61.5 111V13H62.5V111H61.5ZM72 2.5H87.5V3.5H72V2.5ZM61.5 13C61.5 7.20101 66.201 2.5 72 2.5V3.5C66.7533 3.5 62.5 7.7533 62.5 13H61.5ZM52 120.5C57.2467 120.5 61.5 116.247 61.5 111H62.5C62.5 116.799 57.799 121.5 52 121.5V120.5ZM31.5 131C31.5 125.201 36.201 120.5 42 120.5V121.5C36.7533 121.5 32.5 125.753 32.5 131H31.5ZM22 144.5C27.2467 144.5 31.5 140.247 31.5 135H32.5C32.5 140.799 27.799 145.5 22 145.5V144.5Z" fill="#737C85"/>
</svg>
