<svg width="92" height="86" viewBox="0 0 92 86" fill="none" xmlns="http://www.w3.org/2000/svg">
<path id="Path 2 Copy 11" d="M92 83L87 80.1132V85.8868L92 83ZM0 1.5H22V0.5H0V1.5ZM31.5 11V15H32.5V11H31.5ZM42 25.5H52V24.5H42V25.5ZM61.5 35V73H62.5V35H61.5ZM72 83.5H87.5V82.5H72V83.5ZM61.5 73C61.5 78.799 66.201 83.5 72 83.5V82.5C66.7533 82.5 62.5 78.2467 62.5 73H61.5ZM52 25.5C57.2467 25.5 61.5 29.7533 61.5 35H62.5C62.5 29.201 57.799 24.5 52 24.5V25.5ZM31.5 15C31.5 20.799 36.201 25.5 42 25.5V24.5C36.7533 24.5 32.5 20.2467 32.5 15H31.5ZM22 1.5C27.2467 1.5 31.5 5.75329 31.5 11H32.5C32.5 5.20101 27.799 0.5 22 0.5V1.5Z" fill="#737C85"/>
</svg>
