<svg width="53" height="30" viewBox="0 0 53 30" fill="none" xmlns="http://www.w3.org/2000/svg">
<g filter="url(#filter0_d)">
<path fill-rule="evenodd" clip-rule="evenodd" d="M3.14807 12.6819C2.64578 12.6644 2.14654 12.5259 1.69828 12.2823C0.117604 11.4163 -0.465353 9.42463 0.402233 7.84166C0.998127 6.75109 2.14578 6.1004 3.38932 6.1453C3.89389 6.16281 4.39541 6.30284 4.84366 6.54561C6.12297 7.24653 6.75388 8.68413 6.47686 10.0532L14.5515 19.7755C14.8993 19.6507 15.257 19.5328 15.6215 19.4217L12.5028 8.99083C12.2897 8.92614 12.0819 8.83786 11.884 8.7298C11.1169 8.31046 10.5598 7.61868 10.3163 6.77925C10.0697 5.94134 10.1664 5.05701 10.5865 4.28912C11.1839 3.19932 12.3293 2.54786 13.5728 2.59201C14.0774 2.61103 14.5819 2.74954 15.0249 2.99307C15.7912 3.41241 16.3506 4.10419 16.5941 4.94362C16.8415 5.78229 16.7448 6.66662 16.3224 7.43374C16.2966 7.48245 16.2684 7.53192 16.238 7.5791L21.6505 18.2649C21.9222 18.2413 22.1954 18.2184 22.4709 18.1994L23.3628 5.90101C22.7852 5.47939 22.3681 4.88426 22.1642 4.18943C21.9199 3.35076 22.0158 2.46796 22.4359 1.69854C23.034 0.607212 24.1794 -0.0427165 25.4222 0.00218484C25.929 0.0189277 26.4313 0.158959 26.8743 0.401731C27.6414 0.821064 28.2 1.51513 28.4443 2.35532C28.6886 3.19323 28.5927 4.07756 28.1741 4.84164C27.9443 5.25945 27.6323 5.61714 27.2548 5.89644L28.5706 18.2611C29.0394 18.3006 29.5158 18.3486 29.9945 18.4049L34.5958 6.77392C33.9519 5.78381 33.8743 4.48471 34.4611 3.41393C35.0592 2.32107 36.2023 1.66962 37.4504 1.71453C37.955 1.73203 38.4565 1.87206 38.9025 2.11483C40.4832 2.98014 41.0677 4.97178 40.2024 6.55398C39.7868 7.30969 39.1049 7.85764 38.3066 8.1065L36.0197 19.481C36.5052 19.5952 36.9915 19.7169 37.4832 19.8478L44.627 10.5502C44.2945 9.67272 44.3531 8.67728 44.8196 7.8272C45.4155 6.73359 46.5609 6.0829 47.8067 6.1278C48.3112 6.14606 48.8135 6.28457 49.258 6.52887C50.8394 7.39417 51.4216 9.38581 50.5556 10.9673C50.0639 11.8683 49.1979 12.468 48.2123 12.6256L40.5547 26.6082L40.0707 27.4925L39.1156 27.1683L34.9771 25.7619C32.9268 25.2535 29.783 24.6279 26.3248 24.5031C23.085 24.3867 20.1307 24.7246 17.534 25.5077L17.3186 25.5906L14.8574 26.5313C14.3506 26.7725 13.865 27.029 13.413 27.2984L12.2493 27.991L11.6999 26.7497L11.416 26.1089L3.38551 12.6804C3.30712 12.6849 3.22721 12.6849 3.14807 12.6819ZM3.34746 7.3447C2.58946 7.31807 1.84364 7.70924 1.45627 8.41929C0.907563 9.42234 1.27362 10.6811 2.27515 11.2298C2.56968 11.3896 2.88094 11.4703 3.19297 11.4825C3.46542 11.4924 3.73711 11.4459 3.99054 11.3531L12.486 25.5564L12.7996 26.2672C13.3163 25.959 13.8483 25.6797 14.3841 25.427L16.8894 24.4681L16.8772 24.4529C20.012 23.4552 23.3103 23.1918 26.3697 23.3022C29.872 23.427 33.063 24.0457 35.334 24.6119L35.3317 24.6135L39.5007 26.0298L47.4817 11.4543C47.5266 11.4589 47.5685 11.4612 47.6111 11.4619C48.3683 11.4893 49.1141 11.0989 49.5015 10.3889C50.051 9.38733 49.6819 8.12933 48.6803 7.57986C48.3873 7.42081 48.0723 7.33709 47.7633 7.32644C47.0053 7.29828 46.2595 7.69098 45.8729 8.40103C45.4642 9.14608 45.5601 10.0335 46.051 10.6644L37.9428 21.2169C36.7952 20.8943 35.6833 20.6211 34.611 20.3889L37.2921 7.05018C38.038 7.06312 38.7632 6.67499 39.1453 5.97559C39.6947 4.97254 39.3256 3.7153 38.3241 3.16659C38.0311 3.00677 37.7191 2.92458 37.4071 2.91316C36.6468 2.88653 35.9032 3.27618 35.5166 3.98851C35.0387 4.85838 35.2541 5.92232 35.9763 6.54561L30.7685 19.7093C29.6216 19.5548 28.5257 19.4475 27.4816 19.3836L25.9755 5.22597C26.4443 5.06386 26.8621 4.73281 27.1178 4.26325C27.6695 3.26172 27.3004 2.0022 26.2966 1.45273C26.0052 1.29367 25.6916 1.21148 25.3796 1.20006C24.6216 1.17266 23.8788 1.56384 23.4884 2.27541C22.9397 3.2777 23.3065 4.53494 24.3096 5.08441C24.4077 5.13921 24.5082 5.18183 24.614 5.21836L23.5911 19.3387C22.6573 19.376 21.7776 19.4475 20.9518 19.5442L14.8102 7.41928C14.9891 7.26175 15.1482 7.07453 15.2676 6.85535C15.8194 5.85078 15.451 4.5943 14.4472 4.04483C14.1535 3.88349 13.8414 3.80206 13.5302 3.7914C12.7722 3.76401 12.0286 4.15442 11.639 4.86599C11.0895 5.86752 11.4586 7.12552 12.4602 7.67499C12.7532 7.83405 13.0682 7.917 13.3803 7.92918H13.4381L17.1215 20.2474C15.967 20.5419 14.9845 20.8745 14.171 21.1956L5.13286 10.3135C5.60927 9.32797 5.2356 8.1301 4.26451 7.59813C3.97379 7.43831 3.65949 7.35612 3.34746 7.3447Z" fill="url(#paint0_linear)"/>
</g>
<defs>
<filter id="filter0_d" x="0" y="0" width="52.9569" height="29.991" filterUnits="userSpaceOnUse" color-interpolation-filters="sRGB">
<feFlood flood-opacity="0" result="BackgroundImageFix"/>
<feColorMatrix in="SourceAlpha" type="matrix" values="0 0 0 0 0 0 0 0 0 0 0 0 0 0 0 0 0 0 127 0"/>
<feOffset dx="1" dy="1"/>
<feGaussianBlur stdDeviation="0.5"/>
<feColorMatrix type="matrix" values="0 0 0 0 0.106222 0 0 0 0 0.119546 0 0 0 0 0.133503 0 0 0 1 0"/>
<feBlend mode="normal" in2="BackgroundImageFix" result="effect1_dropShadow"/>
<feBlend mode="normal" in="SourceGraphic" in2="effect1_dropShadow" result="shape"/>
</filter>
<linearGradient id="paint0_linear" x1="0.0893231" y1="0.225393" x2="0.336992" y2="26.989" gradientUnits="userSpaceOnUse">
<stop stop-color="#F1FBFF"/>
<stop offset="0.332393" stop-color="#B3BBC5"/>
<stop offset="0.393199" stop-color="#6A6D71"/>
<stop offset="0.633603" stop-color="#929EAA"/>
<stop offset="0.793082" stop-color="#D2DAE0"/>
<stop offset="1" stop-color="#E1EDF8"/>
</linearGradient>
</defs>
</svg>
