<svg width="42" height="24" viewBox="0 0 42 24" fill="none" xmlns="http://www.w3.org/2000/svg">
<g filter="url(#filter0_d)">
<path fill-rule="evenodd" clip-rule="evenodd" d="M2.47116 9.95498C2.07688 9.94124 1.68498 9.83252 1.33311 9.64135C0.0923162 8.96151 -0.365292 7.39811 0.315743 6.15552C0.783507 5.29945 1.68438 4.78867 2.66054 4.82392C3.05661 4.83766 3.4503 4.94758 3.80216 5.13815C4.80639 5.68836 5.30164 6.81684 5.08418 7.89157L11.4226 15.5233C11.6956 15.4254 11.9764 15.3328 12.2625 15.2455L9.81439 7.0576C9.64712 7.00682 9.48403 6.93752 9.3287 6.85269C8.72653 6.52352 8.28923 5.98049 8.09806 5.32155C7.90451 4.66382 7.98037 3.96964 8.31014 3.36686C8.7791 2.51139 9.67818 2.00002 10.6543 2.03466C11.0504 2.0496 11.4465 2.15833 11.7942 2.34949C12.3958 2.67866 12.8348 3.2217 13.026 3.88063C13.2202 4.53896 13.1443 5.23314 12.8127 5.83532C12.7924 5.87355 12.7703 5.91238 12.7464 5.94942L16.9951 14.3375C17.2084 14.319 17.4229 14.3011 17.6391 14.2861L18.3393 4.63216C17.8858 4.3012 17.5585 3.83403 17.3984 3.28861C17.2066 2.63027 17.2819 1.93729 17.6116 1.33332C18.0812 0.476647 18.9803 -0.0335315 19.9558 0.00171505C20.3537 0.0148578 20.748 0.124779 21.0957 0.31535C21.6979 0.644517 22.1363 1.18934 22.3281 1.84887C22.5199 2.50661 22.4446 3.20079 22.116 3.80058C21.9356 4.12855 21.6907 4.40933 21.3944 4.62857L22.4273 14.3345C22.7953 14.3656 23.1692 14.4032 23.545 14.4474L27.1569 5.31737C26.6515 4.54016 26.5906 3.5204 27.0511 2.67986C27.5207 1.82199 28.418 1.31062 29.3977 1.34586C29.7938 1.3596 30.1875 1.46952 30.5376 1.6601C31.7784 2.33934 32.2372 3.90273 31.5579 5.14472C31.2317 5.73794 30.6965 6.16807 30.0698 6.36342L28.2746 15.2921C28.6558 15.3818 29.0375 15.4773 29.4234 15.5801L35.0312 8.28167C34.7701 7.59287 34.8161 6.81147 35.1823 6.14417C35.6501 5.28571 36.5492 4.77493 37.5271 4.81018C37.9232 4.82452 38.3175 4.93324 38.6664 5.12501C39.9078 5.80425 40.3648 7.36765 39.6849 8.60904C39.299 9.31636 38.6192 9.78711 37.8456 9.91078L31.8345 20.8868L31.4546 21.581L30.7048 21.3265L27.4562 20.2225C25.8468 19.8234 23.3789 19.3324 20.6644 19.2344C18.1212 19.143 15.8021 19.4082 13.7638 20.023L13.5947 20.0881L11.6627 20.8265C11.2649 21.0158 10.8837 21.2172 10.5289 21.4286L9.61546 21.9723L9.18413 20.9979L8.9613 20.4949L2.65755 9.95379C2.59602 9.95737 2.53329 9.95737 2.47116 9.95498ZM2.62768 5.76542C2.03267 5.74451 1.44722 6.05158 1.14314 6.60895C0.712416 7.39632 0.999765 8.38442 1.78594 8.81514C2.01714 8.9406 2.26147 9.00392 2.50641 9.01348C2.72027 9.02125 2.93355 8.98481 3.13248 8.91192L9.80125 20.0612L10.0474 20.6192C10.453 20.3772 10.8706 20.158 11.2912 19.9596L13.2578 19.2069L13.2482 19.195C15.7089 18.4118 18.2981 18.2051 20.6996 18.2917C23.4488 18.3897 25.9537 18.8753 27.7364 19.3198L27.7346 19.321L31.0071 20.4328L37.272 8.99138C37.3073 8.99496 37.3402 8.99675 37.3736 8.99735C37.968 9.01886 38.5535 8.71239 38.8575 8.15502C39.2889 7.36884 38.9991 6.38134 38.213 5.95002C37.983 5.82516 37.7356 5.75945 37.4931 5.75108C36.8981 5.72898 36.3126 6.03724 36.0091 6.59461C35.6883 7.17947 35.7636 7.87603 36.1489 8.37128L29.7842 16.6548C28.8834 16.4015 28.0106 16.187 27.1688 16.0048L29.2735 5.53423C29.8589 5.54438 30.4282 5.23971 30.7281 4.6907C31.1595 3.90333 30.8697 2.91643 30.0835 2.4857C29.8535 2.36025 29.6086 2.29573 29.3637 2.28677C28.7669 2.26586 28.1832 2.57173 27.8797 3.13089C27.5046 3.81372 27.6736 4.64888 28.2406 5.13815L24.1526 15.4714C23.2523 15.3501 22.392 15.2659 21.5724 15.2157L20.3901 4.10226C20.7581 3.97502 21.0861 3.71515 21.2868 3.34655C21.72 2.56038 21.4302 1.57168 20.6423 1.14036C20.4134 1.0155 20.1673 0.950982 19.9224 0.942021C19.3274 0.920515 18.7443 1.22758 18.4378 1.78615C18.0071 2.57292 18.2951 3.55982 19.0824 3.99115C19.1595 4.03416 19.2384 4.06761 19.3214 4.09629L18.5185 15.1804C17.7855 15.2097 17.0949 15.2659 16.4467 15.3417L11.6257 5.82397C11.7661 5.70031 11.8909 5.55335 11.9847 5.38129C12.4179 4.59273 12.1287 3.60642 11.3407 3.1751C11.1101 3.04845 10.8652 2.98453 10.6209 2.97617C10.0259 2.95466 9.44221 3.26113 9.13634 3.81969C8.70502 4.60587 8.99476 5.59337 9.78094 6.02469C10.0109 6.14955 10.2583 6.21467 10.5032 6.22422H10.5486L13.44 15.8937C12.5338 16.1249 11.7625 16.386 11.1239 16.6381L4.02918 8.09588C4.40315 7.32224 4.10983 6.38194 3.34754 5.96436C3.11934 5.8389 2.87261 5.77438 2.62768 5.76542Z" fill="#AF8D62"/>
</g>
<defs>
<filter id="filter0_d" x="0" y="0" width="42" height="23.9723" filterUnits="userSpaceOnUse" color-interpolation-filters="sRGB">
<feFlood flood-opacity="0" result="BackgroundImageFix"/>
<feColorMatrix in="SourceAlpha" type="matrix" values="0 0 0 0 0 0 0 0 0 0 0 0 0 0 0 0 0 0 127 0"/>
<feOffset dx="1" dy="1"/>
<feGaussianBlur stdDeviation="0.5"/>
<feColorMatrix type="matrix" values="0 0 0 0 0.106222 0 0 0 0 0.119546 0 0 0 0 0.133503 0 0 0 1 0"/>
<feBlend mode="normal" in2="BackgroundImageFix" result="effect1_dropShadow"/>
<feBlend mode="normal" in="SourceGraphic" in2="effect1_dropShadow" result="shape"/>
</filter>
</defs>
</svg>
