<svg width="92" height="86" viewBox="0 0 92 86" fill="none" xmlns="http://www.w3.org/2000/svg">
<path d="M92 3L87 5.88675V0.113249L92 3ZM0 84.5H22V85.5H0V84.5ZM31.5 75V71H32.5V75H31.5ZM42 60.5H52V61.5H42V60.5ZM61.5 51V13H62.5V51H61.5ZM72 2.5H87.5V3.5H72V2.5ZM61.5 13C61.5 7.20101 66.201 2.5 72 2.5V3.5C66.7533 3.5 62.5 7.75329 62.5 13H61.5ZM52 60.5C57.2467 60.5 61.5 56.2467 61.5 51H62.5C62.5 56.799 57.799 61.5 52 61.5V60.5ZM31.5 71C31.5 65.201 36.201 60.5 42 60.5V61.5C36.7533 61.5 32.5 65.7533 32.5 71H31.5ZM22 84.5C27.2467 84.5 31.5 80.2467 31.5 75H32.5C32.5 80.799 27.799 85.5 22 85.5V84.5Z" fill="#737C85"/>
</svg>
