<svg width="135" height="36" viewBox="0 0 135 36" fill="none" xmlns="http://www.w3.org/2000/svg">
<path d="M6.5 36C10.1111 36 13 33.1111 13 29.5C13 25.8889 10.1111 23 6.5 23C2.88889 23 0 25.8889 0 29.5C0 33.0208 2.88889 36 6.5 36Z" fill="#B42192"/>
<path d="M16.9733 0C15.2582 0 13.6334 0.450833 12.0086 1.3525C7.22447 4.14767 5.59967 10.279 8.30767 15.0578C12.3697 22.181 18.9592 20.558 20.4937 22.8122C20.7645 23.263 20.945 23.804 20.945 24.4352C20.945 26.4188 19.9521 29.3042 21.7574 32.46C23.7433 35.8863 28.0761 36.9683 31.416 35.0748C34.8461 33.0912 36.0196 28.7632 34.0337 25.427C32.1381 22.181 29.2496 21.64 27.4442 20.6482C26.9026 20.2875 26.4513 19.9268 26.2708 19.3858C25.0973 16.9513 29.6106 12.1725 25.7292 5.1395C25.8194 5.1395 25.7292 5.04934 25.7292 5.04934C23.8336 1.80333 20.4937 0 17.0636 0H16.9733Z" fill="url(#paint0_linear)"/>
<path fill-rule="evenodd" clip-rule="evenodd" d="M44.5953 13.4175C45.6589 12.2749 46.8998 11.7471 48.3179 11.7471C48.5492 11.7471 48.7563 11.7471 48.9646 11.7598C49.1554 11.771 49.3469 11.793 49.5587 11.835C49.9133 11.9229 50.2678 12.0112 50.5337 12.187C50.6385 12.2563 50.7435 12.312 50.843 12.3647C50.9956 12.4458 51.1355 12.52 51.2428 12.6265C51.3467 12.7295 51.4506 12.8022 51.5365 12.8623C51.5973 12.9048 51.6492 12.9414 51.6859 12.978L51.7745 13.1538V7H53.9904V22.7363H51.7745V21.5054C51.7173 21.6187 51.623 21.6958 51.5157 21.7832C51.4569 21.8311 51.3942 21.8823 51.3314 21.9448C51.1542 22.1211 50.7996 22.2969 50.1792 22.5605C49.5587 22.8242 48.9384 23 48.3179 23C46.8998 23 45.6589 22.3848 44.5953 21.3296C43.5317 20.2749 43 18.9561 43 17.3735C43 15.791 43.5317 14.4727 44.5953 13.4175ZM80.4913 10.6045C80.4913 11.4839 80.1368 11.9233 79.3391 11.9233H78.2755V13.9453H80.3141V19.5718C80.3141 21.7695 81.3777 22.9121 83.5048 22.9121C83.6368 22.9121 83.7649 22.9082 83.8889 22.9014C84.3475 22.875 84.7513 22.8057 85.1002 22.7363V20.6265H84.9229C84.8977 20.6265 84.8656 20.6333 84.8284 20.6436L84.7734 20.6592C84.6875 20.6841 84.5836 20.7144 84.4797 20.7144C84.3025 20.7144 84.1252 20.8022 83.948 20.8022C83.5934 20.8022 83.2389 20.7144 82.973 20.4507C82.7072 20.187 82.6185 19.8354 82.6185 19.4839V13.9453H84.8342V11.9233H82.6185V8.31885H80.58V10.6045H80.4913ZM104.865 17.9888L104.954 16.9341C104.954 15.4395 104.422 14.2085 103.447 13.1538C102.472 12.1865 101.143 11.6592 99.6359 11.6592C98.129 11.6592 96.7996 12.1865 95.736 13.2417C94.6724 14.2964 94.1406 15.6152 94.1406 17.1099C94.1406 18.6924 94.6724 20.0107 95.8246 21.1538C96.9768 22.2964 98.2177 22.8242 99.8131 22.8242C100.345 22.8242 100.965 22.7363 101.497 22.5601C102.029 22.3843 102.472 22.2085 102.827 22.0327C103.181 21.8569 103.447 21.5933 103.802 21.3296C103.872 21.2598 103.942 21.1963 104.009 21.1387L104.112 21.0527L104.253 20.9409L104.261 20.9351C104.333 20.8789 104.389 20.8345 104.422 20.8022L104.475 20.748C104.516 20.7061 104.553 20.6636 104.575 20.6216C104.583 20.6079 104.589 20.5942 104.593 20.5806C104.597 20.5664 104.599 20.5522 104.599 20.5381L103.092 19.0439L102.738 19.4834C102.472 19.7471 102.118 20.0107 101.586 20.2744C101.054 20.5381 100.433 20.7144 99.8131 20.7144C98.9268 20.7144 98.2177 20.4502 97.5087 19.9229C96.8882 19.3955 96.5337 18.6924 96.3564 17.9888H104.865ZM115.855 22.6479V15.7031C115.855 14.5601 115.412 13.5933 114.615 12.8022C113.728 12.0107 112.665 11.6592 111.335 11.6592C110.803 11.6592 110.272 11.7471 109.828 11.835L109.63 11.8999C109.206 12.0366 108.907 12.1328 108.676 12.3623C108.603 12.4106 108.524 12.459 108.441 12.5088C108.345 12.5674 108.244 12.6284 108.145 12.6948C108.069 12.7461 107.994 12.8003 107.923 12.8589C107.877 12.8965 107.832 12.936 107.79 12.978C107.684 13.083 107.592 13.1602 107.514 13.2207C107.468 13.2568 107.426 13.2871 107.39 13.3135L107.384 13.3179C107.331 13.356 107.289 13.3867 107.258 13.4175L107.205 13.4702C107.177 13.499 107.152 13.5278 107.131 13.5566C107.121 13.5703 107.112 13.584 107.105 13.5977C107.09 13.6255 107.081 13.6533 107.081 13.6812L108.588 15.1758L108.854 14.8242C109.031 14.5601 109.385 14.3843 109.828 14.1206C110.272 13.8569 110.803 13.769 111.424 13.769C112.044 13.769 112.665 13.9448 113.019 14.3843C113.462 14.7363 113.64 15.2637 113.64 15.791L109.651 16.4941C108.676 16.6704 107.879 17.022 107.347 17.6372C106.815 18.2524 106.549 18.9561 106.549 19.835C106.549 20.626 106.904 21.4175 107.613 22.0327C108.322 22.6479 109.208 23 110.36 23C110.46 23 110.559 22.9932 110.661 22.981C110.713 22.9751 110.765 22.9678 110.818 22.9595C111.031 22.9258 111.257 22.875 111.512 22.8242C111.601 22.8022 111.69 22.7803 111.776 22.7568C111.897 22.7241 112.012 22.6885 112.115 22.646L112.155 22.6284L112.205 22.6045C112.232 22.5913 112.257 22.5771 112.281 22.563L112.311 22.5435C112.325 22.5342 112.338 22.5244 112.35 22.5146C112.368 22.501 112.384 22.4868 112.399 22.4722C112.665 22.3843 112.842 22.2085 113.108 22.0327C113.285 21.8569 113.462 21.769 113.551 21.6812L113.728 21.5054V22.6479H115.855ZM135 22.6479H132.784V16.4941C132.784 15.6152 132.607 14.9121 132.164 14.4722C131.884 14.1943 131.568 13.9863 131.194 13.8716C130.977 13.8047 130.74 13.769 130.48 13.769C129.771 13.769 129.15 14.0327 128.707 14.5601C128.264 15.0879 127.998 15.8789 127.998 16.8462V22.6479H125.782V16.4062C125.782 15.5273 125.605 14.8242 125.162 14.3843C124.719 13.9448 124.187 13.6812 123.478 13.6812C122.769 13.6812 122.148 13.9448 121.705 14.4722C121.262 15 120.996 15.791 120.996 16.7583V22.5601H118.78V11.835H120.996V12.978L121.351 12.626C121.528 12.4502 121.794 12.2744 122.326 12.0107C122.857 11.7471 123.389 11.6592 123.921 11.6592C124.364 11.6592 124.807 11.7471 125.162 11.835C125.404 11.8828 125.593 11.957 125.758 12.0435C125.896 12.1152 126.016 12.1948 126.137 12.2744C126.403 12.4502 126.58 12.626 126.757 12.8022C126.86 12.9048 126.934 13.0073 126.994 13.0918L127 13.1006L127.051 13.1694C127.072 13.1973 127.092 13.2217 127.112 13.2417L127.2 13.4175C127.289 13.4175 127.289 13.3296 127.378 13.2417C127.403 13.2168 127.427 13.1851 127.456 13.1484C127.53 13.0552 127.63 12.9287 127.821 12.8022C127.922 12.7017 128.052 12.6016 128.194 12.5015C128.301 12.4258 128.416 12.3501 128.53 12.2744C128.701 12.1611 128.909 12.0479 129.153 11.9585C129.289 11.9087 129.435 11.8662 129.594 11.835C130.037 11.7471 130.48 11.6592 130.923 11.6592C132.252 11.6592 133.227 12.0986 133.937 12.8901C134.646 13.6812 135 14.9121 135 16.4062V22.6479ZM109.776 20.7549C110.019 20.8408 110.298 20.8901 110.626 20.8901C111.601 20.8901 112.31 20.6265 112.665 19.9229C113.197 19.3955 113.462 18.6045 113.462 17.6372V17.4614L110.006 17.9888C109.651 18.0767 109.297 18.2524 109.031 18.5166C108.765 18.7803 108.676 19.1318 108.676 19.4834C108.676 19.835 108.854 20.1865 109.208 20.4502C109.375 20.5742 109.561 20.6787 109.776 20.7549ZM101.674 14.2964C101.143 13.8569 100.433 13.5933 99.6359 13.5933C98.8381 13.5933 98.2177 13.8569 97.5973 14.2964C96.9768 14.7363 96.6223 15.3516 96.4451 16.1426H102.738C102.561 15.3516 102.206 14.7363 101.674 14.2964ZM93.343 11.7471V13.8569C93.0771 13.769 92.7227 13.769 92.2794 13.9448C91.3931 13.9448 90.7727 14.2085 90.2408 14.7358C89.7091 15.2637 89.4432 16.0547 89.4432 17.022V22.8242H87.2274V12.0986H89.4432V13.2417L89.6205 13.0659C89.6672 13.0195 89.7385 12.9731 89.8214 12.9141L89.8928 12.8618C89.9476 12.8198 90.0056 12.7715 90.0636 12.7139C90.11 12.6831 90.1536 12.6523 90.1953 12.6221L90.2141 12.6089L90.2356 12.5933L90.2632 12.5732L90.283 12.5586C90.4435 12.4409 90.5863 12.3359 90.7727 12.2744C90.95 12.0986 91.3044 12.0107 91.6591 11.9229C91.9037 11.8745 92.1213 11.8262 92.3269 11.792C92.4937 11.7646 92.6525 11.7471 92.8113 11.7471H93.343ZM76.3256 12.978L76.5028 13.1538L75.0847 14.5601L74.8188 14.2964C74.7302 14.1206 74.4644 14.0327 74.1097 13.8569C73.7552 13.6812 73.4008 13.5933 73.0461 13.5933C72.603 13.5933 72.1599 13.6812 71.8939 13.9448C71.6281 14.2085 71.4508 14.4722 71.4508 14.7363C71.4508 15.0879 71.6281 15.3516 71.8939 15.5273C72.2485 15.7031 72.5144 15.8789 72.9575 15.9668C73.0367 15.998 73.116 16.0269 73.1952 16.0537C73.3375 16.1016 73.4799 16.144 73.6222 16.1865C73.7407 16.2217 73.8591 16.2568 73.9775 16.2954C74.0807 16.3291 74.1838 16.3652 74.287 16.4062L75.6166 16.9341C76.0597 17.1978 76.4142 17.4614 76.6801 17.9009C76.946 18.2524 77.1233 18.7803 77.1233 19.3955C77.1233 20.3623 76.6801 21.1538 75.9711 21.769C75.262 22.3843 74.287 22.7363 73.0461 22.7363C72.5144 22.7363 71.9827 22.6479 71.5394 22.5601C71.0963 22.4722 70.6531 22.2964 70.3872 22.1206L69.5896 21.5933C69.3236 21.4175 69.1464 21.2417 69.0577 21.1538L68.8805 20.978L70.3872 19.4834L70.7418 19.835C70.8135 19.9771 71.0587 20.1191 71.384 20.3071L71.4866 20.3667L71.6281 20.4502C72.0713 20.7144 72.5144 20.8022 73.0461 20.8022C73.6666 20.8022 74.1097 20.7144 74.3757 20.4502C74.5126 20.3145 74.6259 20.1787 74.7037 20.019C74.7771 19.8687 74.8188 19.6968 74.8188 19.4834C74.8188 19.1318 74.6416 18.8682 74.3757 18.6924L74.2684 18.6382L74.1687 18.5859C73.906 18.4482 73.6654 18.3223 73.3121 18.2524C73.0906 18.1646 72.869 18.0986 72.6475 18.0327C72.4258 17.9668 72.2042 17.9009 71.9827 17.813L70.6531 17.2856C70.21 17.022 69.8555 16.7583 69.5896 16.3184C69.3236 15.9668 69.1464 15.4395 69.1464 14.8242C69.1464 13.9448 69.501 13.2417 70.21 12.626C70.9191 12.0107 71.8939 11.6592 72.9575 11.6592C73.3361 11.6592 73.6499 11.7236 74.0095 11.7969L74.1984 11.835C74.553 11.9229 74.9075 12.0107 75.1733 12.1865C75.4392 12.3623 75.7052 12.4502 75.8824 12.626C75.9865 12.7295 76.0905 12.8027 76.1765 12.8633C76.2372 12.9058 76.2889 12.9419 76.3256 12.978ZM62.0559 13.5933C62.8535 13.5933 63.5626 13.8569 64.0944 14.2964C64.6262 14.7363 64.9807 15.3516 65.158 16.1426H58.8651C59.0424 15.3516 59.3969 14.7363 60.0173 14.2964C60.6377 13.8569 61.2582 13.5933 62.0559 13.5933ZM67.2852 16.9341L67.1965 17.9888H58.6879C58.8651 18.6924 59.2196 19.3955 59.8401 19.9229C60.5491 20.4502 61.2582 20.7144 62.1445 20.7144C62.7649 20.7144 63.3854 20.5381 63.9171 20.2744C64.449 20.0107 64.8035 19.7471 65.0693 19.4834L65.4238 19.0439L66.9307 20.5381C66.9307 20.626 66.842 20.7144 66.7533 20.8022C66.7208 20.8345 66.6647 20.8784 66.5935 20.9341C66.4701 21.0308 66.3015 21.1626 66.1329 21.3296C65.7784 21.5933 65.5125 21.8569 65.158 22.0327C64.8035 22.2085 64.3604 22.3843 63.8285 22.5601C63.2968 22.7363 62.6763 22.8242 62.1445 22.8242C60.5491 22.8242 59.3082 22.2964 58.156 21.1538C57.0038 20.0107 56.472 18.6924 56.472 17.1099C56.472 15.6152 57.0038 14.2964 58.0674 13.2417C59.131 12.1865 60.4604 11.6592 61.9673 11.6592C63.474 11.6592 64.8035 12.1865 65.7784 13.1538C66.7533 14.2085 67.2852 15.4395 67.2852 16.9341ZM48.5839 20.8901C47.6975 20.8901 46.9884 20.5381 46.2794 19.835C45.6589 19.1318 45.3044 18.2524 45.3044 17.2856C45.3044 16.3184 45.6589 15.4395 46.2794 14.7363C46.8998 14.0327 47.6975 13.6812 48.5839 13.6812C49.4701 13.6812 50.1792 14.0327 50.8883 14.7363C51.5087 15.4395 51.8632 16.3184 51.8632 17.2856C51.8632 18.2524 51.5087 19.1318 50.8883 19.835C50.1792 20.5381 49.3815 20.8901 48.5839 20.8901Z" fill="white"/>
<defs>
<linearGradient id="paint0_linear" x1="13.9945" y1="10.903" x2="35.5855" y2="32.6477" gradientUnits="userSpaceOnUse">
<stop offset="0.0580892" stop-color="#FFC100"/>
<stop offset="1" stop-color="#F05A00"/>
</linearGradient>
</defs>
</svg>
