<svg width="15" height="16" viewBox="0 0 15 16" fill="none" xmlns="http://www.w3.org/2000/svg">
<path opacity="0.5" fill-rule="evenodd" clip-rule="evenodd" d="M11.7001 11.2932L14.7599 14.4801C15.0928 14.8396 15.077 15.4116 14.7282 15.7385C14.5855 15.9019 14.3636 16 14.1257 16C13.9038 16 13.6818 15.9019 13.5233 15.7385L10.416 12.4862C9.30619 13.2707 8.00618 13.6956 6.64275 13.6956C2.98052 13.6956 0 10.6231 0 6.8478C0 3.07252 2.98052 0 6.64275 0C10.305 0 13.3013 3.07252 13.2855 6.86415C13.2855 8.48212 12.7306 10.0511 11.7001 11.2932ZM1.72807 6.86415C1.72807 9.65884 3.93175 11.9305 6.64275 11.9305C9.35375 11.9305 11.5574 9.64249 11.5574 6.86415C11.5574 4.06946 9.35375 1.79775 6.64275 1.79775C3.93175 1.79775 1.72807 4.06946 1.72807 6.86415Z" fill="#AAB1B8"/>
</svg>
