<svg width="60" height="60" viewBox="0 0 60 60" fill="none" xmlns="http://www.w3.org/2000/svg">
<path fill-rule="evenodd" clip-rule="evenodd" d="M30 60C46.5685 60 60 46.5685 60 30C60 13.4315 46.5685 0 30 0C13.4315 0 0 13.4315 0 30C0 46.5685 13.4315 60 30 60Z" fill="#444C54"/>
<mask id="mask0" mask-type="alpha" maskUnits="userSpaceOnUse" x="0" y="0" width="60" height="60">
<path fill-rule="evenodd" clip-rule="evenodd" d="M30 60C46.5685 60 60 46.5685 60 30C60 13.4315 46.5685 0 30 0C13.4315 0 0 13.4315 0 30C0 46.5685 13.4315 60 30 60Z" fill="white"/>
</mask>
<g mask="url(#mask0)">
<path fill-rule="evenodd" clip-rule="evenodd" d="M41.6007 29.8358L34.2043 35.9974C34.2842 36.4893 34.3385 36.989 34.3385 37.5016C34.3385 42.7469 29.9722 47 24.5881 47C19.9431 47 16.0645 43.8353 15.0819 39.6009L-3.20087 33.559C-4.64553 34.6273 -6.44147 35.2697 -8.39507 35.2697C-13.1471 35.269 -17 31.5149 -17 26.8862C-17 22.2582 -13.1471 18.5063 -8.39507 18.5063C-4.30893 18.5063 -0.896 21.2809 -0.0152664 24.9984L17.6456 30.8352C19.366 29.1368 21.7383 28.0721 24.3673 28.0147L27.0125 20.1825C27.0098 20.1306 27.0062 20.0789 27.0026 20.0272C26.9954 19.9241 26.9883 19.8211 26.9883 19.7165C26.9883 13.7979 31.9163 9 37.9941 9C44.0713 9 49 13.7979 49 19.7165C49 24.4055 45.9046 28.3804 41.6007 29.8358ZM44.0617 19.7839C44.0617 23.0691 41.3271 25.7333 37.9545 25.7333C34.5783 25.7333 31.8459 23.0691 31.8459 19.7839C31.8459 16.4988 34.5797 13.8352 37.9545 13.8352C41.3271 13.8352 44.0617 16.4988 44.0617 19.7839ZM-8.2528 20.9942C-5.98607 20.9942 -4.01267 22.2151 -2.98453 24.0176L-4.8758 23.3938C-7.18067 22.1908 -10.0524 23.0354 -11.2888 25.2809C-12.5245 27.5279 -11.6562 30.3248 -9.34913 31.5278L-6.4862 32.4735C-7.045 32.6406 -7.63753 32.7302 -8.2528 32.7302C-11.5807 32.7302 -14.2786 30.1032 -14.2786 26.8625C-14.2786 23.6218 -11.5807 20.9942 -8.2528 20.9942ZM29.4112 19.7423C29.4112 24.3395 33.2377 28.0663 37.9582 28.0663C42.6787 28.0663 46.5074 24.3395 46.5074 19.7423C46.5074 15.143 42.6779 11.4162 37.9582 11.4162C33.2377 11.4162 29.4112 15.143 29.4112 19.7423ZM23.073 31.9781C26.6663 31.9781 29.5799 34.8166 29.5799 38.3161C29.5799 41.8156 26.6663 44.6541 23.073 44.6534C20.147 44.6534 17.672 42.7728 16.8536 40.1852L20.7725 41.4808C23.0774 42.6831 25.9491 41.8407 27.1848 39.5916C28.4197 37.3467 27.5537 34.5506 25.2473 33.3461L21.6107 32.1444C22.0815 32.0398 22.5685 31.9781 23.073 31.9781Z" fill="white"/>
</g>
</svg>
