<?xml version="1.0"?>
<svg xmlns="http://www.w3.org/2000/svg">	
	
	<g viewBox="0 0 40 40" id="telegram">
		<path d="M16.7087 0.178512L0.70865 6.47851C0.70865 6.47851 -0.0913495 6.77851 0.00865052 7.17851C0.108651 7.67851 0.70865 7.87851 0.70865 7.87851L4.70865 9.27851L14.4087 3.17851C14.4087 3.17851 15.0087 2.87851 14.9087 3.17851C14.9087 3.17851 15.0087 3.27851 14.7087 3.47851C14.4087 3.77851 7.10865 10.2785 7.10865 10.2785V10.3785L13.7087 15.3785C14.8087 15.8785 15.2087 14.8785 15.2087 14.8785L18.0086 0.578513C18.0086 -0.421487 16.7087 0.178512 16.7087 0.178512Z" transform="translate(8.99121 12.2214)" />
		<path d="M3 1.9L0.4 4.3C0.4 4.3 0.2 4.5 3.8147e-07 4.4L0.5 3.8147e-07" transform="translate(15.5996 22.6)" />
	</g>
	<g viewBox="0 0 30 30" id="facebook">
	<path d="M21.6562 7.5H8.34375C7.875 7.5 7.5 7.875 7.5 8.34375V21.6562C7.5 22.125 7.875 22.5 8.34375 22.5H15.5625V16.6875H13.5938V14.4375H15.5625V12.75C15.5625 10.7812 16.7812 9.75 18.4688 9.75C19.3125 9.75 19.9688 9.84375 20.25 9.84375V11.9062H19.0312C18.0938 11.9062 17.9062 12.375 17.9062 13.0312V14.4375H20.1562L19.875 16.6875H17.8125V22.5H21.6562C22.125 22.5 22.5 22.125 22.5 21.6562V8.34375C22.5 7.875 22.125 7.5 21.6562 7.5Z" />
	</g>

	<g viewBox="0 0 40 40" id="twitter">
		<path d="M14.9 2.2C15.6 2.1 16.3 1.9 16.9 1.7C16.4 2.4 15.8 3 15.2 3.5C15.2 3.6 15.2 3.8 15.2 4C15.2 8.6 11.7 13.9 5.3 13.9C3.3 13.9 1.5 13.3 3.8147e-07 12.3C0.3 12.3 0.6 12.3 0.8 12.3C2.4 12.3 3.9 11.7 5.1 10.8C3.6 10.8 2.3 9.8 1.8 8.4C2 8.4 2.2 8.5 2.5 8.5C2.8 8.5 3.1 8.5 3.4 8.4C1.8 8.1 0.6 6.7 0.6 5C1.1 5.3 1.6 5.4 2.2 5.4C1.3 4.8 0.6 3.7 0.6 2.5C0.6 1.9 0.8 1.3 1.1 0.700003C2.8 2.8 5.4 4.2 8.3 4.3C8.2 4 8.2 3.8 8.2 3.5C8.2 1.6 9.8 -1.52588e-06 11.7 -1.52588e-06C12.7 -1.52588e-06 13.6 0.399997 14.2 1.1C15 0.899997 15.7 0.700002 16.4 0.300002C16.2 1.1 15.6 1.7 14.9 2.2Z" transform="translate(12.5996 13.1)"  />
	</g>

	<g viewBox="0 0 30 30" id="twitch">
		<path fill-rule="evenodd" clip-rule="evenodd" d="M21.1006 15.8022L18.6627 18.2399H14.8333L12.7442 20.3286V18.2399H9.6106L9.6106 8.14272L21.1006 8.14272V15.8022ZM8.21737 6.74983L7.52112 9.53537L7.52112 22.0693H10.655V23.8105H12.3954L14.1368 22.0693H16.9218L22.4925 16.4993V6.74983L8.21737 6.74983Z" />
		<path fill-rule="evenodd" clip-rule="evenodd" d="M13.4404 15.1064H14.8331V10.9277H13.4404V15.1064ZM17.27 15.1064H18.6627V10.9277H17.27V15.1064Z" />
	</g>

	<g viewBox="0 0 30 30" id="youtube">
		<path fill-rule="evenodd" clip-rule="evenodd" d="M20.8334 9.91699C21.5 10.0835 22 10.5835 22.1666 11.25C22.5 12.417 22.5 14.8335 22.5 14.8335C22.5 14.8335 22.5 17.25 22.1666 18.417C22 19.0835 21.5 19.5835 20.8334 19.75C19.6666 20.0835 15 20.0835 15 20.0835C15 20.0835 10.3334 20.0835 9.16663 19.75C8.5 19.5835 8 19.0835 7.83337 18.417C7.5 17.25 7.5 14.8335 7.5 14.8335C7.5 14.8335 7.5 12.417 7.83337 11.25C8 10.5835 8.5 10.0835 9.16663 9.91699C10.3334 9.5835 15 9.5835 15 9.5835C15 9.5835 19.6666 9.5835 20.8334 9.91699ZM17.4166 14.8335L13.5 12.5835V17.0835L17.4166 14.8335Z" />
	</g>

	<g viewBox="0 0 40 40" id="linkedin">
		<path d="M13.6 13.6H11.2V9.89999C11.2 8.99999 11.2 7.89999 10 7.89999C8.8 7.89999 8.6 8.89999 8.6 9.89999V13.7H6.2V6H8.5V7C8.8 6.4 9.6 5.8 10.7 5.8C13.1 5.8 13.5 7.39999 13.5 9.39999V13.6H13.6ZM3.6 5C2.8 5 2.2 4.40001 2.2 3.60001C2.2 2.80001 2.8 2.2 3.6 2.2C4.4 2.2 5 2.80001 5 3.60001C4.9 4.30001 4.3 5 3.6 5ZM4.7 13.6H2.3V6H4.7V13.6ZM14.8 0H1.2C0.5 0 0 0.499997 0 1.2V14.9C0 15.5 0.5 16.1 1.2 16.1H14.8C15.5 16.1 16 15.6 16 14.9V1.2C16 0.499997 15.5 0 14.8 0Z" transform="translate(12 12)"  />
	</g>

	<g viewBox="0 0 42 42" id="twitch-white">
		<path fill-rule="evenodd" clip-rule="evenodd" d="M29.1345 22.0695L25.884 25.3197H20.778L17.9925 28.1047V25.3197H13.8145L13.8145 11.8569L29.1345 11.8569L29.1345 22.0695ZM11.9567 9.99994L11.0283 13.714L11.0283 30.4259H15.2069V32.7476H17.5274L19.8493 30.4259H23.5626L30.9902 22.9992L30.9902 9.99994L11.9567 9.99994Z" />
		<path fill-rule="evenodd" clip-rule="evenodd" d="M18.9209 21.1418H20.7778V15.5702H18.9209V21.1418ZM24.0273 21.1418H25.8842V15.5702H24.0273V21.1418Z" />
	</g>

	<g viewBox="0 0 42 42" id="steam-white">
		<path d="M11.4101 23.5623C12.6154 27.5829 16.3439 30.5122 20.7566 30.5122C26.1447 30.5122 30.5127 26.1441 30.5127 20.7561C30.5127 15.368 26.1447 11 20.7566 11C15.5862 11 11.3556 15.0221 11.0215 20.1079C11.6528 21.1681 11.8992 21.8238 11.4101 23.5623H11.4101Z" />
		<path fill-rule="evenodd" clip-rule="evenodd" d="M20.2549 18.3611L20.2539 18.3127C20.2539 16.2661 21.916 14.6011 23.959 14.6011C26.0039 14.6011 27.665 16.2661 27.665 18.3127C27.665 20.3594 26.0039 22.0259 23.959 22.0259L23.876 22.0242L20.46 24.4651C20.4697 24.842 20.4004 25.2197 20.251 25.5798C19.6787 26.9575 18.0908 27.613 16.7139 27.0378C15.8721 26.687 15.3018 25.9575 15.1152 25.126L11.4092 23.5967C11.1709 22.896 11.0723 22.0825 11.0342 21.418C10.9912 20.6721 11.0254 20.114 11.0254 20.114L16.2676 22.272C16.4102 22.1782 16.5625 22.0969 16.7246 22.0308C17.0928 21.8792 17.4805 21.8113 17.8672 21.8289L20.2549 18.3611ZM16.9512 26.4668C18.0146 26.9097 19.2373 26.4048 19.6807 25.3403C19.8955 24.8262 19.8965 24.2568 19.6846 23.741C19.4727 23.2251 19.0732 22.8215 18.5576 22.6069C18.0469 22.3943 17.499 22.4011 17.0186 22.5835L18.2656 23.1003C19.0488 23.427 19.4199 24.3279 19.0928 25.1125C18.7666 25.8965 17.8672 26.2683 17.083 25.9417L15.877 25.4417C16.0908 25.8882 16.4609 26.2625 16.9512 26.4668ZM23.959 20.7864C22.5986 20.7864 21.4902 19.6768 21.4902 18.3127C21.4902 16.9497 22.5986 15.8398 23.959 15.8398C25.3203 15.8398 26.4287 16.9497 26.4287 18.3127C26.4287 19.6768 25.3203 20.7864 23.959 20.7864ZM22.4268 17.2695C22.2266 17.5662 22.1094 17.9241 22.1094 18.3091C22.1094 19.3352 22.9404 20.1667 23.9639 20.1667C24.9873 20.1667 25.8184 19.3352 25.8184 18.3091C25.8184 17.283 24.9873 16.4507 23.9639 16.4507C23.3242 16.4507 22.7598 16.7756 22.4268 17.2695Z" fill="white"/>
	</g>

	<g viewBox="0 0 42 42" id="youtube-white">
		<path fill-rule="evenodd" clip-rule="evenodd" d="M28.7773 14.2222C29.667 14.4446 30.333 15.1111 30.5557 16C31 17.5557 31 20.7778 31 20.7778C31 20.7778 31 24 30.5557 25.5557C30.333 26.4446 29.667 27.1111 28.7773 27.3335C27.2227 27.7778 21 27.7778 21 27.7778C21 27.7778 14.7773 27.7778 13.2227 27.3335C12.333 27.1111 11.667 26.4446 11.4443 25.5557C11 24 11 20.7778 11 20.7778C11 20.7778 11 17.5557 11.4443 16C11.5703 15.4983 11.8369 15.0674 12.2061 14.7473C12.4902 14.5002 12.835 14.3191 13.2227 14.2222C14.7773 13.7778 21 13.7778 21 13.7778C21 13.7778 27.2227 13.7778 28.7773 14.2222ZM24.2227 20.7778L19 17.7778V23.7778L24.2227 20.7778Z" />
	</g>

	<g viewBox="0 0 42 42" id="fb-white">
		<path d="M29.875 11H12.125C11.5 11 11 11.5 11 12.125V29.875C11 30.5 11.5 31 12.125 31H21.75V23.25H19.125V20.25H21.75V18C21.75 15.375 23.375 14 25.625 14C26.75 14 27.625 14.125 28 14.125V16.875H26.375C25.125 16.875 24.875 17.5 24.875 18.375V20.25H27.875L27.5 23.25H24.75V31H29.875C30.5 31 31 30.5 31 29.875V12.125C31 11.5 30.5 11 29.875 11Z" />
	</g>

	<g viewBox="0 0 42 42" id="twitter-white">
		<path d="M28.7515 15.5324C29.5385 15.4173 30.3254 15.1871 31 14.9568C30.4379 15.7626 29.7633 16.4532 29.0888 17.0288C29.0888 17.1439 29.0888 17.3741 29.0888 17.6043C29.0888 22.8993 25.1538 29 17.9586 29C15.7101 29 13.6864 28.3094 12 27.1583C12.3373 27.1583 12.6746 27.1583 12.8994 27.1583C14.6982 27.1583 16.3846 26.4676 17.7337 25.4317C16.0473 25.4317 14.5858 24.2806 14.0237 22.6691C14.2485 22.6691 14.4734 22.7842 14.8107 22.7842C15.1479 22.7842 15.4852 22.7842 15.8225 22.6691C14.0237 22.3237 12.6746 20.7122 12.6746 18.7554C13.2367 19.1007 13.7988 19.2158 14.4734 19.2158C13.4615 18.5252 12.6746 17.259 12.6746 15.8777C12.6746 15.1871 12.8994 14.4964 13.2367 13.8058C15.1479 16.223 18.071 17.8345 21.3314 17.9496C21.2189 17.6043 21.2189 17.3741 21.2189 17.0288C21.2189 14.8417 23.0178 13 25.1538 13C26.2781 13 27.2899 13.4604 27.9645 14.2662C28.8639 14.036 29.6509 13.8058 30.4379 13.3453C30.213 14.2662 29.5385 14.9568 28.7515 15.5324Z" />
	</g>


	<g viewBox="0 0 40 40" id="instagram">
		<path d="M9 0C6.6 0 6.2 6.10203e-06 5.3 0.100006C4.3 0.100006 3.7 0.3 3.1 0.5C2.5 0.7 2 1 1.5 1.5C1 2 0.7 2.50001 0.5 3.10001C0.3 3.70001 0.1 4.29999 0.1 5.29999C0.1 6.29999 0 6.6 0 9C0 11.4 3.7998e-07 11.8 0.1 12.7C0.1 13.7 0.3 14.3 0.5 14.9C0.7 15.5 1 16 1.5 16.5C2 17 2.5 17.3 3.1 17.5C3.7 17.7 4.3 17.9 5.3 17.9C6.3 17.9 6.6 18 9 18C11.4 18 11.8 18 12.7 17.9C13.7 17.9 14.3 17.7 14.9 17.5C15.5 17.3 16 17 16.5 16.5C17 16 17.3 15.5 17.5 14.9C17.7 14.3 17.9 13.7 17.9 12.7C17.9 11.7 18 11.4 18 9C18 6.6 18 6.19999 17.9 5.29999C17.9 4.29999 17.7 3.70001 17.5 3.10001C17.3 2.50001 17 2 16.5 1.5C16 1 15.5 0.7 14.9 0.5C14.3 0.3 13.7 0.100006 12.7 0.100006C11.8 6.10203e-06 11.4 0 9 0ZM9 1.60001C11.4 1.60001 11.7 1.6 12.6 1.7C13.5 1.7 14 1.9 14.3 2C14.7 2.2 15 2.4 15.3 2.7C15.6 3 15.8 3.3 16 3.7C16.1 4 16.3 4.49999 16.3 5.39999C16.3 6.29999 16.4 6.6 16.4 9C16.4 11.4 16.4 11.7 16.3 12.6C16.3 13.5 16.1 14 16 14.3C15.8 14.7 15.6 15 15.3 15.3C15 15.6 14.7 15.8 14.3 16C14 16.1 13.5 16.3 12.6 16.3C11.7 16.3 11.4 16.4 9 16.4C6.6 16.4 6.3 16.4 5.4 16.3C4.5 16.3 4 16.1 3.7 16C3.3 15.8 3 15.6 2.7 15.3C2.4 15 2.2 14.7 2 14.3C1.9 14 1.7 13.5 1.7 12.6C1.7 11.7 1.6 11.4 1.6 9C1.6 6.6 1.6 6.29999 1.7 5.39999C1.7 4.49999 1.9 4 2 3.7C2.2 3.3 2.4 3 2.7 2.7C3 2.4 3.3 2.2 3.7 2C4 1.9 4.5 1.7 5.4 1.7C6.3 1.6 6.6 1.60001 9 1.60001Z" transform="translate(11 11)"  />
		<path d="M4.6 7.6C2.9 7.6 1.6 6.3 1.6 4.6C1.6 2.9 2.9 1.6 4.6 1.6C6.3 1.6 7.6 2.9 7.6 4.6C7.6 6.3 6.3 7.6 4.6 7.6ZM4.6 -6.10352e-06C2 -6.10352e-06 -3.8147e-07 2.1 -3.8147e-07 4.6C-3.8147e-07 7.2 2.1 9.20001 4.6 9.20001C7.1 9.20001 9.2 7.1 9.2 4.6C9.2 2 7.2 -6.10352e-06 4.6 -6.10352e-06Z" transform="translate(15.4004 15.4)"  />
		<path d="M2.2 1.1C2.2 1.7 1.7 2.19999 1.1 2.19999C0.499999 2.19999 7.62939e-07 1.7 7.62939e-07 1.1C7.62939e-07 0.499997 0.499999 6.10352e-06 1.1 6.10352e-06C1.7 6.10352e-06 2.2 0.499997 2.2 1.1Z" transform="translate(23.7002 14.1)"  />
	</g>


	<g viewBox="0 0 40 40" id="talk">
		<path d="M0.6 1.2207e-05L-7.62939e-07 1.69999H1.2L0.6 1.2207e-05Z" transform="translate(17.2998 19.2001)"  />
		<path d="M17.3 10.4C17.3 10.6 17.2 10.7 17.1 10.8C17 10.9 16.9 10.9 16.8 10.9C16.6 10.9 16.4 10.8 16.3 10.7L14.9 8.89999L14.7 9.10001V10.4C14.7 10.7 14.4 11 14.1 11C13.8 11 13.5 10.7 13.5 10.4V6.29999C13.5 5.99999 13.8 5.70001 14.1 5.70001C14.4 5.70001 14.7 5.99999 14.7 6.29999V7.60001L16.3 5.89999C16.4 5.79999 16.5 5.79999 16.6 5.79999C16.7 5.79999 16.9 5.9 17 6C17.1 6.1 17.2 6.19999 17.2 6.39999C17.2 6.49999 17.2 6.69999 17.1 6.79999L15.8 8.20001L17.2 10.1C17.3 10.1 17.4 10.3 17.3 10.4ZM12.8 10.9H11C10.7 10.9 10.4 10.7 10.4 10.4V6.39999C10.4 6.09999 10.7 5.79999 11 5.79999C11.3 5.79999 11.6 6.09999 11.6 6.39999V9.89999H12.8C13.1 9.89999 13.4 10.1 13.4 10.4C13.4 10.6 13.1 10.9 12.8 10.9ZM9.9 10.9C9.8 11 9.7 11 9.5 11C9.3 11 9.1 10.9 9 10.7L8.7 9.89999H7L6.7 10.7C6.6 10.9 6.5 11 6.2 11C6.1 11 5.9 11 5.8 10.9C5.6 10.8 5.5 10.6 5.7 10.1L7.1 6.29999C7.2 5.99999 7.5 5.70001 7.9 5.70001C8.3 5.70001 8.6 5.99999 8.7 6.29999L10 10C10.2 10.6 10.1 10.8 9.9 10.9ZM5 10.4C5 10.7 4.7 11 4.4 11C4.1 11 3.8 10.7 3.8 10.4V6.89999H3C2.7 6.89999 2.4 6.59999 2.4 6.29999C2.4 5.99999 2.7 5.70001 3 5.70001H6C6.3 5.70001 6.6 5.99999 6.6 6.29999C6.6 6.59999 6.3 6.89999 6 6.89999H5V10.4ZM10 0C4.5 0 0 3.60001 0 8.10001C0 11 1.9 13.6 4.7 15C4.5 15.5 3.7 18.5 3.7 18.7C3.7 18.7 3.7 18.9 3.8 18.9C3.9 19 4 18.9 4 18.9C4.3 18.9 7.6 16.4 8.2 16C8.8 16.1 9.4 16.1 10 16.1C15.5 16.1 20 12.5 20 8C20 3.6 15.5 0 10 0Z" transform="translate(10 12)"  />
	</g>

	<g viewBox="0 0 23 20" id="wechat">
		<path d="M11.2732 4.7328C10.7466 4.7328 10.2785 5.20438 10.337 5.7349C10.337 6.26542 10.8051 6.67804 11.3317 6.67804C11.8583 6.67804 12.2679 6.26542 12.2679 5.67595C12.2094 5.14543 11.7998 4.7328 11.2732 4.7328ZM6.12428 5.7349C6.12428 5.20438 5.71471 4.7328 5.18811 4.7328C4.66152 4.67386 4.19343 5.08648 4.19343 5.67595C4.19343 6.20647 4.60301 6.6191 5.1296 6.67804C5.6562 6.6191 6.12428 6.20647 6.12428 5.7349ZM15.954 6.56015C13.8477 6.67804 11.9753 7.32646 10.4541 8.80013C8.93279 10.2738 8.23066 12.1011 8.40619 14.3411C7.58704 14.2232 6.82641 14.1053 6.06577 14.0464C5.77322 14.0464 5.48067 14.0464 5.24662 14.1643C4.48599 14.5769 3.78386 15.0485 2.96471 15.579C3.14025 14.8716 3.19876 14.2822 3.37429 13.6927C3.49131 13.2801 3.4328 12.9853 3.02322 12.7496C0.507273 10.9812 -0.545915 8.26961 0.273232 5.44016C1.03387 2.84651 2.84769 1.25495 5.36365 0.429693C8.75725 -0.690295 12.6189 0.429693 14.6668 3.20019C15.3689 4.14334 15.837 5.26332 15.954 6.56015Z" />
		<path d="M8.68409 3.46499C8.27452 3.46499 7.92345 3.81867 7.92345 4.23129C7.92345 4.70287 8.27452 5.05655 8.68409 5.05655C9.09366 5.05655 9.44473 4.70287 9.44473 4.29024C9.50324 3.87761 9.15217 3.46499 8.68409 3.46499ZM3.7107 5.05655C4.12027 5.05655 4.47134 4.70287 4.52985 4.29024C4.52985 3.81867 4.17878 3.46499 3.7107 3.46499C3.24261 3.46499 2.89155 3.81867 2.89155 4.29024C2.95006 4.76181 3.30112 5.05655 3.7107 5.05655ZM11.4341 12.6017C10.732 12.307 10.1469 11.8354 9.50324 11.7765C8.85962 11.7175 8.1575 12.0712 7.45537 12.1891C5.34899 12.4249 3.47666 11.8354 1.95538 10.3618C-0.970143 7.59126 -0.560569 3.40604 2.83304 1.16606C5.87559 -0.838123 10.3224 -0.189709 12.4288 2.58079C14.3011 4.9976 14.0671 8.18072 11.7851 10.2439C11.1415 10.8333 10.9075 11.3049 11.3171 12.0712C11.3756 12.248 11.3756 12.4249 11.4341 12.6017Z" transform="translate(9.31836 7.39801)" />
	</g>

	<g viewBox="0 0 40 40" id="bitcoin">
		<path d="M5 7.89999C6.6 7.89999 9 7.8 9 6.1C9 4.7 7.5 4.30001 5 4.30001V7.89999ZM5 9.30001V12.9C7.9 12.9 9.8 12.6 9.8 11.1C9.8 9.5 7.7 9.30001 5 9.30001ZM5.7 17.3V15.1H5V17.3H3.6V15.1H3.8147e-07L0.4 13H1.2C1.8 13 2.2 12.4 2.2 11.8V5.39999C2.2 4.79999 1.8 4.39999 1.2 4.39999H3.8147e-07V2.20001H3.6V-6.10352e-06H5V2.20001H5.7V-6.10352e-06H7.1V2.20001C10.2 2.30001 11.5 3.50001 11.8 4.80001C12.2 6.40001 11.2 7.69999 10.3 7.99999C11.4 8.29999 12.9 9.09999 12.9 10.9C12.9 13.4 11 15.1 7.1 15.1V17.3H5.7Z" transform="translate(13.5996 11.4)"  />
	</g>

	<g viewBox="0 0 40 40" id="medium">
		<path d="M13.3 3.7L12.4 4.49999C12.3 4.59999 12.3 4.6 12.3 4.7V10.5C12.3 10.6 12.3 10.7 12.4 10.7L13.2 11.5V11.7H9V11.5L9.9 10.7C10 10.6 10 10.6 10 10.5V5.80001L7.6 11.7H7.3L4.5 5.80001V9.7C4.5 9.9 4.5 10 4.7 10.2L5.8 11.5V11.7H2.6V11.5L3.7 10.2C3.8 10.1 3.9 9.9 3.8 9.7V5.09999C3.8 4.99999 3.8 4.80001 3.7 4.80001L2.7 3.59999V3.40001H5.8L8.2 8.49999L10.3 3.40001H13.3V3.7ZM0 15.4H16V-1.2207e-05H0V15.4Z" transform="translate(12 12.2999)"  />
	</g>

	<g viewBox="0 0 40 40" id="git">
		 <path d="M9 1.2207e-05C4 1.2207e-05 0 4.00001 0 9.00001C0 13 2.6 16.3 6.2 17.5C6.7 17.6 6.8 17.3 6.8 17.1C6.8 16.9 6.8 16.3 6.8 15.6C4.3 16.1 3.8 14.4 3.8 14.4C3.4 13.4 2.8 13.1 2.8 13.1C2 12.5 2.9 12.6 2.9 12.6C3.8 12.7 4.3 13.5 4.3 13.5C5.1 14.9 6.4 14.5 6.9 14.2C7 13.6 7.2 13.2 7.5 13C5.5 12.8 3.4 12 3.4 8.59999C3.4 7.59999 3.8 6.79999 4.3 6.19999C4.2 5.99999 3.9 5.1 4.4 3.8C4.4 3.8 5.2 3.59999 6.9 4.69999C7.6 4.49999 8.4 4.40001 9.2 4.40001C10 4.40001 10.7 4.49999 11.5 4.69999C13.2 3.49999 14 3.8 14 3.8C14.5 5 14.2 5.99999 14.1 6.19999C14.7 6.79999 15 7.59999 15 8.59999C15 12.1 12.9 12.8 10.9 13C11.2 13.3 11.5 13.8 11.5 14.7C11.5 15.9 11.5 16.9 11.5 17.2C11.5 17.4 11.7 17.7 12.1 17.6C15.7 16.4 18.2 13 18.2 9.09999C18 4.09999 14 1.2207e-05 9 1.2207e-05Z" transform="translate(11 11.2001)"  />
	</g>

	<g viewBox="0 0 40 40" id="weibo">
		<path d="M10.0837 14.9271C6.10982 15.3122 2.67905 13.555 2.42075 11.0082C2.16244 8.45818 5.17596 6.08291 9.14651 5.69781C13.1204 5.31272 16.5511 7.06991 16.8061 9.61669C17.0677 12.1667 14.0542 14.5452 10.0837 14.9271ZM18.0281 6.46476C17.6903 6.36444 17.4585 6.29972 17.634 5.86609C18.0182 4.92439 18.0579 4.11214 17.6406 3.52965C16.8624 2.44233 14.7298 2.50058 12.2859 3.50052C12.2859 3.50052 11.5176 3.82737 11.7163 3.23517C12.0905 2.054 12.0342 1.067 11.4514 0.494218C10.1267 -0.803445 6.59993 0.542759 3.57648 3.49729C1.31469 5.70752 0 8.05367 0 10.0827C0 13.9595 5.08986 16.3186 10.0671 16.3186C16.5942 16.3186 20.9356 12.6133 20.9356 9.67171C20.939 7.89187 19.4057 6.88222 18.0281 6.46476Z" transform="translate(8 13.6816)" />
		<path d="M6.77279 2.04919C5.19649 0.340546 2.87178 -0.309904 0.725891 0.136674C0.229158 0.240228 -0.0854398 0.719166 0.0205299 1.20134C0.1265 1.68675 0.613298 1.99418 1.11003 1.89062C2.63666 1.57349 4.28912 2.03625 5.40843 3.24977C6.52773 4.4633 6.8324 6.11693 6.35222 7.56669C6.19658 8.03915 6.4615 8.54398 6.94499 8.69607C7.42848 8.84817 7.94508 8.58928 8.10072 8.12005V8.11682C8.77628 6.08133 8.34909 3.7546 6.77279 2.04919Z" transform="translate(23.5898 11)"/>
		<path d="M3.57032 0.996554C2.80204 0.164885 1.66949 -0.15225 0.626349 0.0678024C0.199158 0.155176 -0.072389 0.569393 0.017023 0.986846C0.109747 1.4043 0.530314 1.66966 0.954193 1.57905C1.46417 1.47226 2.02051 1.62759 2.39472 2.0321C2.76892 2.43984 2.87158 2.99321 2.70932 3.47862C2.57685 3.88313 2.80204 4.32 3.21929 4.45267C3.63655 4.58212 4.0803 4.36206 4.21607 3.95432C4.54392 2.96085 4.3386 1.82822 3.57032 0.996554Z" transform="translate(24.3711 14.189)" />
		<path d="M5.00153 2.78151C4.86245 3.01451 4.55447 3.12454 4.31604 3.02745C4.07761 2.93361 4.00475 2.67149 4.14053 2.44496C4.27961 2.21844 4.57434 2.10841 4.80946 2.19902C5.04789 2.28316 5.13399 2.54528 5.00153 2.78151ZM3.73321 4.36719C3.34907 4.96586 2.52449 5.22798 1.90523 4.95292C1.2959 4.68109 1.11377 3.98533 1.49791 3.3996C1.87874 2.81711 2.67351 2.55822 3.28946 2.81064C3.91203 3.07276 4.11072 3.76204 3.73321 4.36719ZM5.17704 0.127938C3.28615 -0.354236 1.15019 0.568043 0.328929 2.19579C-0.508894 3.85589 0.302437 5.70045 2.20989 6.30235C4.1902 6.92692 6.52153 5.96904 7.33287 4.1795C8.13426 2.42555 7.13417 0.623056 5.17704 0.127938Z" transform="translate(13.3008 21.2119)" />
	</g>

	<g viewBox="0 0 40 40" id="reddit">
		<path d="M24 9.8C24 8.3 22.8 7.2 21.3 7.2C20.6 7.2 19.9 7.5 19.5 7.9C17.7 6.7 15.2 6 12.5 5.9L14 1.2L18 2.1C18 2.1 18 2.1 18 2.2C18 3.4 19 4.4 20.2 4.4C21.4 4.4 22.4 3.4 22.4 2.2C22.4 1 21.4 0 20.2 0C19.3 0 18.5 0.6 18.2 1.4L13.9 0.4C13.7 0.4 13.5 0.5 13.5 0.6L11.8 5.8C9 5.8 6.4 6.6 4.5 7.8C4 7.4 3.4 7.1 2.7 7.1C1.2 7.1 0 8.3 0 9.8C0 10.8 0.5 11.6 1.3 12.1C1.2 12.4 1.2 12.7 1.2 13C1.2 16.8 6 20 11.9 20C17.8 20 22.6 16.8 22.6 12.9C22.6 12.6 22.6 12.4 22.5 12.1C23.4 11.7 24 10.8 24 9.8ZM6.8 11.6C6.8 10.7 7.5 10 8.4 10C9.3 10 10 10.7 10 11.6C10 12.5 9.3 13.2 8.4 13.2C7.5 13.2 6.8 12.5 6.8 11.6ZM15.8 16.3C15 17.1 13.8 17.5 12 17.5C10.2 17.5 9 17.1 8.2 16.3C8.1 16.2 8.1 15.9 8.2 15.8C8.3 15.7 8.6 15.7 8.7 15.8C9.3 16.4 10.4 16.8 12 16.8C13.6 16.8 14.6 16.5 15.3 15.8C15.4 15.7 15.7 15.7 15.8 15.8C16 15.9 16 16.1 15.8 16.3ZM15.6 13.2C14.7 13.2 14 12.5 14 11.6C14 10.7 14.7 10 15.6 10C16.5 10 17.2 10.7 17.2 11.6C17.2 12.5 16.5 13.2 15.6 13.2Z" transform="translate(8 10)" />
	</g>

	<g viewBox="0 0 40 40" id="discord">
		<path d="M1.16571 0C0.514286 0 0 0.55 0 1.221C0 1.892 0.525715 2.442 1.16571 2.442C1.81714 2.442 2.33143 1.892 2.33143 1.221C2.34286 0.55 1.81714 0 1.16571 0ZM5.33714 0C4.68571 0 4.17143 0.55 4.17143 1.221C4.17143 1.892 4.69714 2.442 5.33714 2.442C5.98857 2.442 6.50286 1.892 6.50286 1.221C6.50286 0.55 5.98857 0 5.33714 0Z" transform="translate(16.7656 19.2295)" />
		<path d="M17.6571 0H2.34286C1.05143 0 0 1.012 0 2.266V17.138C0 18.392 1.05143 19.404 2.34286 19.404H15.3029L14.6971 17.369L16.16 18.678L17.5429 19.91L20 22V2.266C20 1.012 18.9486 0 17.6571 0ZM13.2457 14.366C13.2457 14.366 12.8343 13.893 12.4914 13.475C13.9886 13.068 14.56 12.166 14.56 12.166C14.0914 12.463 13.6457 12.672 13.2457 12.815C12.6743 13.046 12.1257 13.2 11.5886 13.288C10.4914 13.486 9.48571 13.431 8.62857 13.277C7.97714 13.156 7.41714 12.98 6.94857 12.804C6.68571 12.705 6.4 12.584 6.11429 12.43C6.08 12.408 6.04571 12.397 6.01143 12.375C5.98857 12.364 5.97714 12.353 5.96571 12.342C5.76 12.232 5.64571 12.155 5.64571 12.155C5.64571 12.155 6.19429 13.035 7.64571 13.453C7.30286 13.871 6.88 14.366 6.88 14.366C4.35429 14.289 3.39429 12.694 3.39429 12.694C3.39429 9.152 5.04 6.281 5.04 6.281C6.68571 5.093 8.25143 5.126 8.25143 5.126L8.36571 5.258C6.30857 5.83 5.36 6.699 5.36 6.699C5.36 6.699 5.61143 6.567 6.03429 6.38C7.25714 5.863 8.22857 5.72 8.62857 5.687C8.69714 5.676 8.75429 5.665 8.82286 5.665C9.52 5.577 10.3086 5.555 11.1314 5.643C12.2171 5.764 13.3829 6.072 14.5714 6.699C14.5714 6.699 13.6686 5.874 11.7257 5.302L11.8857 5.126C11.8857 5.126 13.4514 5.093 15.0971 6.281C15.0971 6.281 16.7429 9.152 16.7429 12.694C16.7429 12.694 15.7714 14.289 13.2457 14.366Z" transform="translate(10 10)" />
	</g>

	<g viewBox="0 0 40 40" id="email">
		<path d="M8 6.46667L0 0H16L8 6.46667ZM8 8.2L0 1.73333V12H16V1.73333L8 8.2Z" transform="translate(12 14)" />
	</g>

	<g viewBox="0 0 56 56" id="telebot">
		<path d="M16.7087 0.178512L0.70865 6.47851C0.70865 6.47851 -0.0913495 6.77851 0.00865052 7.17851C0.108651 7.67851 0.70865 7.87851 0.70865 7.87851L4.70865 9.27851L14.4087 3.17851C14.4087 3.17851 15.0087 2.87851 14.9087 3.17851C14.9087 3.17851 15.0087 3.27851 14.7087 3.47851C14.4087 3.77851 7.10865 10.2785 7.10865 10.2785V10.3785L13.7087 15.3785C14.8087 15.8785 15.2087 14.8785 15.2087 14.8785L18.0086 0.578513C18.0086 -0.421487 16.7087 0.178512 16.7087 0.178512Z" transform="translate(16.9912 20.2214)" fill="white"/>
		<path d="M3 1.9L0.4 4.3C0.4 4.3 0.2 4.5 3.8147e-07 4.4L0.5 3.8147e-07" transform="translate(23.5996 30.6)" fill="white" fill-opacity="0.4"/>
	</g>


	<g viewBox="0 0 64 64" id="download">
		<path d="M7.62939e-07 7.62939e-07C2.1 1.8 4.2 3.6 6.3 5.4C8.4 3.6 10.5 1.8 12.6 7.62939e-07" transform="translate(25.7002 31.2)" stroke="white" stroke-width="2"/>
		<path d="M0 0V14" transform="translate(32 22)" stroke="white" stroke-width="2"/>
		<path d="M0 0H16" transform="translate(24 41)" stroke="white" stroke-width="2"/>
	</g>
	
	<g viewBox="0 0 24 16" id="right">
		<path d="M16 0H0" transform="translate(0 8)" stroke-width="2"/>
		<path d="M1 13.7976V2.2659C3.16719 4.23943 5.29266 6.15735 7.47785 8.06951C6.25057 9.14294 5.0427 10.2155 3.83804 11.2852L3.83601 11.287C2.892 12.1253 1.94995 12.9618 1 13.7976Z" transform="translate(15)"  stroke-width="2"/>
	</g>

	<g viewBox="0 0 24 16" id="left">
		<path d="M16 0H0" transform="translate(24 8) rotate(-180)" stroke-width="2"/>
		<path d="M1 13.7976V2.2659C3.16719 4.23943 5.29266 6.15735 7.47785 8.06951C6.25057 9.14294 5.0427 10.2155 3.83804 11.2852L3.83601 11.287C2.892 12.1253 1.94995 12.9618 1 13.7976Z" transform="translate(9 16) rotate(-180)" stroke-width="2"/>
	</g>

	<g viewBox="0 0 19 19" id="close">		
		<path d="M1.875 1.875L16.875 16.875" stroke-width="2" stroke-linecap="square"/>
<path d="M16.875 1.875L1.875 16.875" stroke-width="2" stroke-linecap="square"/>
	</g>

	<g viewBox="0 0 64 64" id="plus">
		<path d="M0 0V24" transform="translate(32 20)" stroke-width="2"/>
		<path d="M0 0V24" transform="translate(20 32) rotate(-90)"  stroke-width="2"/>
	</g>

	<g viewBox="0 0 14 18" id="lock">
		<path id="Vector" d="M12 0H0V9.27273H12V0Z" transform="translate(1 7.72726)" stroke-width="2" stroke-linecap="round" stroke-linejoin="round"/>
		<path id="Vector_2" d="M9 6.18182V4.48182C9 2.00909 7.05 0 4.5 0C1.95 0 0 2.00909 0 4.48182V6.18182" transform="translate(2.5 1)" stroke-width="2" stroke-linecap="round"/>
		<path id="Vector_3" d="M0 0V3.09091" transform="translate(7 13.9091)"  stroke-width="2" stroke-linecap="round" stroke-linejoin="round"/>
	</g>

	<g viewBox="0 0 14 18" id="lock-s">
		<path id="Vector" d="M8 0H0V6H8V0Z" transform="translate(1 6)" stroke-width="2" stroke-linecap="round" stroke-linejoin="round"/>
		<path id="Vector_2" d="M6 4V2.9C6 1.3 4.7 0 3 0C1.3 0 0 1.3 0 2.9V4" transform="translate(2 1)" stroke-width="2" stroke-linecap="round"/>
		<path id="Vector_3" d="M0 0V2" transform="translate(5 10)"  stroke-width="2" stroke-linecap="round" stroke-linejoin="round"/>
	</g>

	<g viewBox="0 0 24 24" id="ltc">
		<path d="M0 8.14801L4.91128 11.052V5.916V0L0 8.14801Z" transform="translate(7 4)" fill-opacity="0.7"/>
		<path d="M0 0V5.916V11.052L4.91128 8.14801L0 0Z" transform="translate(11.9111 4)" />
		<path d="M0 2.63758e-07L4.91128 6.92073V2.90182L0 2.63758e-07Z" transform="translate(7 13.0793)" fill-opacity="0.7"/>
		<path d="M6.59394e-08 2.90182V6.92073L4.91344 2.63758e-07L6.59394e-08 2.90182Z" transform="translate(11.9111 13.0793)"/>
		<path d="M4.91128 -2.63758e-07L0 2.23201L4.91128 5.13599L9.82255 2.23201L4.91128 -2.63758e-07Z" transform="translate(7 9.91602)" />
	</g>

	<g viewBox="0 0 24 24" id="ether">
		<path d="M23.6408 14.9029C22.0379 21.3315 15.5261 25.2438 9.09602 23.6407C2.66858 22.038 -1.24421 15.5266 0.359457 9.09838C1.96163 2.66907 8.47346 -1.24364 14.9016 0.359096C21.3313 1.96183 25.2437 8.47401 23.6408 14.9029Z" fill="#C7D0DA"/>
		<path d="M0 8.14801L4.91128 11.052V5.916V0L0 8.14801Z" transform="translate(7 4)" fill="white" fill-opacity="0.7"/>
		<path d="M0 0V5.916V11.052L4.91128 8.14801L0 0Z" transform="translate(11.9111 4)" fill="white"/>
		<path d="M0 2.63758e-07L4.91128 6.92073V2.90182L0 2.63758e-07Z" transform="translate(7 13.0791)" fill="white" fill-opacity="0.7"/>
		<path d="M6.59394e-08 2.90182V6.92073L4.91344 2.63758e-07L6.59394e-08 2.90182Z" transform="translate(11.9111 13.0791)" fill="white"/>
		<path d="M4.91128 -2.63758e-07L0 2.23201L4.91128 5.13599L9.82255 2.23201L4.91128 -2.63758e-07Z" transform="translate(7 9.91602)" fill="white"/>
	</g>

	<g viewBox="0 0 24 24" id="litecoin">
		<path d="M24 11.9999C24 18.6274 18.6275 24 12.0001 24C5.37258 24 -7.2991e-10 18.6274 -7.2991e-10 11.9999C-7.2991e-10 5.37255 5.37258 -9.38451e-10 12.0001 -9.38451e-10C18.6274 -9.38451e-10 24 5.37255 24 11.9999Z" fill="#C7D0DA"/>
		<path d="M3.48674 7.05608L4.05719 4.9081L5.40774 4.4147L5.74366 3.15234L5.7322 3.12103L4.40277 3.6067L5.36063 -1.95363e-07H2.64412L1.39146 4.70683L0.345585 5.0889L1.46523e-07 6.3903L1.04508 6.00855L0.306802 8.7825H7.53652L8 7.05608H3.48674Z" transform="translate(8 7)" fill="white"/>
	</g>

	<g viewBox="0 0 24 24" id="usd">
		<path d="M23.6408 14.9029C22.0379 21.3315 15.5261 25.2438 9.09602 23.6407C2.66858 22.038 -1.24421 15.5266 0.359457 9.09838C1.96163 2.66907 8.47346 -1.24364 14.9016 0.359096C21.3313 1.96183 25.2437 8.47401 23.6408 14.9029Z" fill="#C7D0DA"/>
		<path d="M4.49263 1.28043V0H2.77164V1.26756C2.02394 1.40268 1.42449 1.71796 0.986188 2.2134C0.547882 2.70241 0.328729 3.26863 0.328729 3.8992C0.328729 4.50402 0.483425 4.99946 0.799263 5.39839C1.10866 5.79088 1.48895 6.07399 1.9337 6.24772C2.37845 6.41501 2.8232 6.563 3.2744 6.69169C3.7256 6.82038 4.10589 6.9748 4.41529 7.16783C4.72468 7.35442 4.88582 7.60536 4.88582 7.91421C4.88582 8.25523 4.75046 8.53834 4.47974 8.76354C4.20902 8.98231 3.84162 9.09812 3.36464 9.09812C2.95212 9.09812 2.55249 9.00161 2.17864 8.82145C1.79834 8.63485 1.55341 8.48686 1.44383 8.37748C1.33425 8.2681 1.25046 8.17802 1.19245 8.11367L0 9.29759L0.109576 9.43271C0.174033 9.50992 0.290055 9.61287 0.451197 9.74156C0.605893 9.87024 0.792818 9.99893 0.999079 10.1276C1.20534 10.2563 1.46317 10.385 1.77901 10.5072C2.09484 10.6231 2.42357 10.7131 2.77164 10.7646V12H4.49263V10.7196C5.27901 10.5651 5.89779 10.2306 6.3361 9.72869C6.7744 9.22038 7 8.61555 7 7.91421C7 7.30938 6.83886 6.80751 6.52947 6.41501C6.21363 6.01609 5.83333 5.73298 5.38214 5.56568C4.93094 5.39196 4.48619 5.24397 4.04144 5.11528C3.59669 4.9866 3.21639 4.82574 2.907 4.63914C2.59761 4.45255 2.44291 4.20804 2.44291 3.8992C2.44291 3.62252 2.55249 3.39088 2.78453 3.19786C3.01657 3.00483 3.31952 2.90831 3.69982 2.90831C4.00921 2.90831 4.3186 2.97909 4.6151 3.12708C4.9116 3.26863 5.10497 3.38445 5.19521 3.47453C5.28545 3.56461 5.3628 3.63539 5.41436 3.69973L6.60037 2.44504L6.38766 2.21984C6.24586 2.07185 6.00092 1.89812 5.65285 1.70509C5.29834 1.51206 4.9116 1.37051 4.49263 1.28043Z" transform="translate(8.5 6)" fill="white"/>
	</g>

	<g viewBox="0 0 24 24" id="strat">
		<path d="M23.6408 14.9029C22.0379 21.3315 15.5261 25.2438 9.09602 23.6407C2.66858 22.038 -1.24421 15.5266 0.359457 9.09838C1.96163 2.66907 8.47346 -1.24364 14.9016 0.359096C21.3313 1.96183 25.2437 8.47401 23.6408 14.9029Z" fill="#C7D0DA"/>
		<path d="M6.01285 11.1727C5.95692 11.1727 5.87302 11.1447 5.81708 11.1168L0.195766 7.50907C0.195766 7.50907 0.195766 7.50907 0.195766 7.4811L0.447464 7.11754C0.447464 7.11754 0.447466 7.11754 0.475433 7.11754L6.04081 10.6973L11.2986 7.31331C11.4104 7.22941 11.4943 7.08957 11.4943 6.94973V6.11073L6.18065 9.49471C6.06878 9.57861 5.90098 9.57861 5.78911 9.49471L0.419505 6.08276C0.139837 5.91496 3.41391e-06 5.6353 3.41391e-06 5.2997V4.12509C3.41391e-06 4.04119 0.0279685 3.92933 0.111869 3.87339L0.139837 3.84542L0.251702 3.76153L5.95692 0.0419535C6.06878 -0.01398 6.20861 -0.01398 6.32048 0.0419535L11.8299 3.56576C11.9977 3.67762 12.0537 3.90136 11.9418 4.06916C11.9138 4.1251 11.8859 4.15306 11.8299 4.18103L6.26455 7.67687C6.15269 7.76077 5.98489 7.76077 5.87302 7.67687L0.447464 4.32086C0.447464 4.32086 0.447471 4.32086 0.419505 4.32086V5.27173C0.419505 5.43953 0.5034 5.57936 0.615267 5.66326L5.92895 9.04724L11.3545 5.57937C11.4943 5.49547 11.6621 5.49547 11.802 5.60733C11.8859 5.69123 11.9138 5.77513 11.9138 5.887V6.92177C11.9138 7.2294 11.774 7.50907 11.4943 7.67687L6.18065 11.0888C6.15268 11.1448 6.09675 11.1447 6.01285 11.1727ZM0.783069 3.98526L6.04081 7.28534L11.3825 3.90136L6.06878 0.517383L0.783069 3.98526C0.783069 3.95729 0.783069 3.98526 0.783069 3.98526Z" transform="translate(6 6.5)" fill="white"/>
		<path d="M0.783069 3.98526L6.04081 7.28534L11.3825 3.90136L6.06878 0.517383L0.783069 3.98526ZM0.783069 3.98526C0.783069 3.95729 0.783069 3.98526 0.783069 3.98526ZM6.01285 11.1727C5.95692 11.1727 5.87302 11.1447 5.81708 11.1168L0.195766 7.50907C0.195766 7.50907 0.195766 7.50907 0.195766 7.4811L0.447464 7.11754C0.447464 7.11754 0.447466 7.11754 0.475433 7.11754L6.04081 10.6973L11.2986 7.31331C11.4104 7.22941 11.4943 7.08957 11.4943 6.94973V6.11073L6.18065 9.49471C6.06878 9.57861 5.90098 9.57861 5.78911 9.49471L0.419505 6.08276C0.139837 5.91496 3.41391e-06 5.6353 3.41391e-06 5.2997V4.12509C3.41391e-06 4.04119 0.0279685 3.92933 0.111869 3.87339L0.139837 3.84542L0.251702 3.76153L5.95692 0.0419535C6.06878 -0.01398 6.20861 -0.01398 6.32048 0.0419535L11.8299 3.56576C11.9977 3.67762 12.0537 3.90136 11.9418 4.06916C11.9138 4.1251 11.8859 4.15306 11.8299 4.18103L6.26455 7.67687C6.15269 7.76077 5.98489 7.76077 5.87302 7.67687L0.447464 4.32086C0.447464 4.32086 0.447471 4.32086 0.419505 4.32086V5.27173C0.419505 5.43953 0.5034 5.57936 0.615267 5.66326L5.92895 9.04724L11.3545 5.57937C11.4943 5.49547 11.6621 5.49547 11.802 5.60733C11.8859 5.69123 11.9138 5.77513 11.9138 5.887V6.92177C11.9138 7.2294 11.774 7.50907 11.4943 7.67687L6.18065 11.0888C6.15268 11.1448 6.09675 11.1447 6.01285 11.1727Z" transform="translate(6 6.5)" stroke="white" stroke-width="0.5" stroke-linejoin="round"/>
	</g>

	<g viewBox="0 0 24 24" id="bit">
		<path d="M9.97386 5.3208C10.1819 3.9301 9.12295 3.18249 7.67492 2.68375L8.14463 0.799868L6.99778 0.514084L6.54047 2.34832C6.23898 2.2732 5.92931 2.20233 5.6216 2.13211L6.08218 0.285782L4.93597 -1.11634e-06L4.46593 1.88323C4.21637 1.8264 3.97138 1.77023 3.73358 1.71111L3.73489 1.70523L2.15326 1.31035L1.84818 2.53514C1.84818 2.53514 2.69909 2.73013 2.68113 2.74221C3.14562 2.85816 3.22956 3.1655 3.21552 3.40915L2.68047 5.5553C2.71248 5.56347 2.75397 5.57523 2.7997 5.59352C2.76148 5.58405 2.72065 5.57359 2.67851 5.56347L1.92852 8.56992C1.87169 8.71101 1.72764 8.92265 1.40296 8.8423C1.41439 8.85896 0.569349 8.63426 0.569349 8.63426L-1.67471e-06 9.9469L1.49245 10.3189C1.7701 10.3885 2.0422 10.4613 2.31005 10.5299L1.83544 12.4353L2.98099 12.7211L3.45103 10.8359C3.76396 10.9208 4.06775 10.9992 4.365 11.0731L3.89659 12.9494L5.04344 13.2352L5.51806 11.3334C7.4737 11.7034 8.94427 11.5541 9.56327 9.78555C10.0621 8.36153 9.53844 7.54012 8.5095 7.00448C9.25883 6.8317 9.82328 6.33885 9.97386 5.3208ZM7.35349 8.99483C6.99908 10.4189 4.60116 9.64903 3.82374 9.456L4.45352 6.93163C5.23094 7.12564 7.72391 7.50974 7.35349 8.99483ZM7.70823 5.30022C7.38485 6.59555 5.38903 5.93744 4.74162 5.77609L5.3126 3.48656C5.96002 3.64791 8.045 3.94904 7.70823 5.30022Z" transform="translate(7 5)" />
	</g>

	<g viewBox="0 0 24 24" id="das">
		<path d="M11.7137 1.11027C11.7014 0.90678 11.6411 0.70898 11.5377 0.532738C11.446 0.351124 11.2829 0.209465 11.0922 0.136819C10.8977 0.0408254 10.6823 -0.00597112 10.4652 0.000609175H2.32844L1.74542 1.73139H9.1176L7.95338 5.26922H0.583028L-1.11903e-07 7H8.17522C8.41882 6.99302 8.65967 6.94702 8.88843 6.86379C9.1176 6.73484 9.37978 6.60408 9.60163 6.42247C9.81821 6.25333 10.0139 6.05948 10.1847 5.84494C10.3258 5.63473 10.4461 5.41152 10.544 5.17842L11.6239 1.81493C11.7221 1.59363 11.7533 1.34882 11.7137 1.11027Z" transform="translate(6.26953 9)" />
		<path d="M4.9209 -2.21696e-07H0.583028L-5.59516e-08 1.60002H4.38188L4.9209 -2.21696e-07Z" transform="translate(6 11.6975)" fill="white"/>
	</g>

	<g viewBox="0 0 20 22" id="copy">
		<path d="M16 4V0H0V18H4V22H15.6L16.1 21.9L16.4 21.6C17.5 20.5 18.7 19.4 19.8 18.2L20 18V4H16ZM2 16V2H14V4H4V16H2ZM6 6H18V15H13V20H6V6ZM15.2 20H15V17H18V17.2C17.1 18.1 16.1 19 15.2 20Z" />
	</g>
	<g viewBox="0 0 24 24" id="check">
		<path d="M5.64 13.44L2.28882e-07 7.68L1.68 6L5.64 9.84L14.4 2.28882e-07L16.08 1.68L5.64 13.44Z" transform="translate(5.23633 5.15967)" />
	</g>
	<g viewBox="0 0 9 9" id="rate-arrow">
		<path d="M6 6V0H0" transform="translate(2 1)" stroke-width="2" stroke-linecap="round" stroke-linejoin="round"/>
		<path d="M0 7L7 0" transform="translate(1 1)" stroke-width="2" stroke-linecap="round" stroke-linejoin="round"/>
	</g>

	<g viewBox="0 0 24 24" id="status-ok">
		<path d="M0 3L4 7L10 0" transform="translate(7 8)" stroke="white" stroke-width="2"/>
	</g>

	<g viewBox="0 0 10 10" id="status-wait">
		<circle cx="5" cy="5" r="4.5" stroke="#C7D0DA"/>
		<path d="M3 3H0V0H1V2H3V3Z" transform="translate(4 3)" fill="#C7D0DA"/>
	</g>

	<g viewBox="0 0 16 16" id="calendar_dir">
		<path d="M1 13.7976V2.2659C3.16719 4.23943 5.29266 6.15735 7.47785 8.06951C6.25057 9.14294 5.0427 10.2155 3.83804 11.2852L3.83601 11.287C2.892 12.1253 1.94995 12.9618 1 13.7976Z" transform="translate(7)" stroke="#FFC100" stroke-width="2"/>
		<path d="M1 13.7976V2.2659C3.16719 4.23943 5.29266 6.15735 7.47785 8.06951C6.25057 9.14294 5.0427 10.2155 3.83804 11.2852L3.83601 11.287C2.892 12.1253 1.94995 12.9618 1 13.7976Z" stroke="#FFC100" stroke-width="2"/>
	</g>

	<g viewBox="0 0 53 58" id="stairs">
		<path fill-rule="evenodd"  fill="rgb(255, 193, 0)"
 		d="M52.989,32.600 L52.989,34.061 L41.515,34.061 C40.708,34.061 40.056,33.405 40.056,32.595 C40.056,31.785 40.708,31.129 41.515,31.129 L48.012,31.129 L39.011,22.084 L34.005,27.117 L18.977,12.019 L13.972,17.052 L0.420,3.433 C-0.150,2.860 -0.150,1.932 0.420,1.360 C0.990,0.787 1.913,0.787 2.483,1.360 L13.972,12.906 L18.977,7.873 L34.005,22.971 L39.011,17.938 L50.071,29.054 L50.071,21.269 C50.071,20.459 50.724,19.803 51.530,19.803 C52.336,19.803 52.989,20.459 52.989,21.269 L52.989,32.587 C52.989,32.591 52.989,32.596 52.989,32.600 ZM2.704,10.996 C3.510,10.996 4.162,11.652 4.162,12.462 L4.162,56.497 C4.162,57.307 3.510,57.963 2.704,57.963 C1.897,57.963 1.245,57.307 1.245,56.497 L1.245,12.462 C1.245,11.652 1.897,10.996 2.704,10.996 ZM10.216,18.546 C11.022,18.546 11.675,19.202 11.675,20.012 L11.675,56.497 C11.675,57.307 11.022,57.963 10.216,57.963 C9.410,57.963 8.757,57.307 8.757,56.497 L8.757,20.012 C8.757,19.202 9.410,18.546 10.216,18.546 ZM17.727,18.546 C18.533,18.546 19.186,19.202 19.186,20.012 L19.186,56.497 C19.186,57.307 18.533,57.963 17.727,57.963 C16.921,57.963 16.268,57.307 16.268,56.497 L16.268,20.012 C16.268,19.202 16.921,18.546 17.727,18.546 ZM25.239,23.577 C26.046,23.577 26.698,24.232 26.698,25.042 L26.698,56.497 C26.698,57.307 26.046,57.963 25.239,57.963 C24.433,57.963 23.781,57.307 23.781,56.497 L23.781,25.042 C23.781,24.232 24.433,23.577 25.239,23.577 ZM32.752,31.129 C33.558,31.129 34.210,31.785 34.210,32.595 L34.210,56.497 C34.210,57.307 33.558,57.963 32.752,57.963 C31.945,57.963 31.293,57.307 31.293,56.497 L31.293,32.595 C31.293,31.785 31.945,31.129 32.752,31.129 ZM40.263,37.418 C41.069,37.418 41.721,38.074 41.721,38.884 L41.721,56.497 C41.721,57.307 41.069,57.963 40.263,57.963 C39.456,57.963 38.804,57.307 38.804,56.497 L38.804,38.884 C38.804,38.074 39.456,37.418 40.263,37.418 ZM47.775,36.160 C48.581,36.160 49.234,36.815 49.234,37.625 L49.234,56.497 C49.234,57.307 48.581,57.963 47.775,57.963 C46.969,57.963 46.317,57.307 46.317,56.497 L46.317,37.625 C46.317,36.815 46.969,36.160 47.775,36.160 Z"/>
	</g>

	<g viewBox="0 0 57 48" id="caution">
		<path fill-rule="evenodd" d="M56.819,24.643 L44.517,47.258 C44.269,47.713 43.781,47.999 43.249,47.999 L13.725,47.999 C13.193,47.999 12.705,47.713 12.457,47.258 L0.155,24.643 C-0.065,24.238 -0.065,23.756 0.155,23.351 L12.457,0.737 C12.705,0.283 13.193,-0.003 13.725,-0.003 L43.249,-0.003 C43.781,-0.003 44.269,0.283 44.517,0.737 L56.819,23.351 C57.039,23.756 57.039,24.238 56.819,24.643 ZM42.384,2.770 L14.591,2.770 L3.042,23.997 L14.591,45.226 L42.384,45.226 L53.932,23.997 L42.384,2.770 ZM27.112,8.895 L30.348,8.895 L30.348,30.105 L27.112,30.105 L27.112,8.895 ZM30.344,40.156 L27.125,40.156 L27.125,36.813 L30.344,36.813 L30.344,40.156 Z"/>
	</g>

	<g viewBox="0 0 55 55" id="not_exchange">
		<path fill-rule="evenodd" d="M27.498,-0.003 C12.334,-0.003 -0.004,12.335 -0.004,27.499 C-0.004,42.664 12.334,55.001 27.498,55.001 C42.662,55.001 55.000,42.664 55.000,27.499 C55.000,12.335 42.662,-0.003 27.498,-0.003 ZM27.498,52.406 C21.443,52.406 15.617,50.203 11.064,46.196 L17.466,39.685 L17.466,39.728 C17.466,40.443 18.048,41.025 18.763,41.025 L20.960,41.025 L20.960,43.222 C20.960,43.937 21.542,44.519 22.257,44.519 C22.973,44.519 23.555,43.937 23.555,43.222 L23.555,41.025 L27.947,41.025 L27.947,43.222 C27.947,43.937 28.529,44.519 29.245,44.519 C29.960,44.519 30.542,43.937 30.542,43.222 L30.542,41.025 L31.865,41.025 C35.952,41.025 39.277,37.700 39.277,33.613 C39.277,30.964 37.881,28.572 35.543,27.217 L35.046,26.929 L35.444,26.517 C36.789,25.123 37.530,23.301 37.530,21.385 C37.530,20.757 37.450,20.131 37.290,19.524 L45.913,10.755 C50.102,15.355 52.405,21.291 52.405,27.499 C52.405,41.233 41.232,52.406 27.498,52.406 ZM27.498,2.593 C33.615,2.593 39.483,4.833 44.053,8.907 L36.080,17.015 C34.854,15.361 32.998,14.288 30.942,14.057 L30.542,14.013 L30.542,11.777 C30.542,11.061 29.960,10.479 29.245,10.479 C28.529,10.479 27.947,11.061 27.947,11.777 L27.947,13.973 L23.555,13.973 L23.555,11.777 C23.555,11.061 22.973,10.479 22.257,10.479 C21.542,10.479 20.960,11.061 20.960,11.777 L20.960,13.973 L18.763,13.973 C18.048,13.973 17.466,14.555 17.466,15.271 L17.466,35.945 L9.191,44.360 C4.933,39.741 2.591,33.765 2.591,27.499 C2.591,13.765 13.764,2.593 27.498,2.593 ZM20.061,26.202 L20.061,16.568 L30.118,16.568 C31.789,16.568 33.344,17.460 34.220,18.907 L27.047,26.202 L20.061,26.202 ZM31.865,38.430 L20.061,38.430 L20.061,37.046 L28.172,28.797 L31.865,28.797 C34.521,28.797 36.682,30.958 36.682,33.613 C36.682,36.269 34.521,38.430 31.865,38.430 ZM20.061,33.306 L20.061,28.797 L24.495,28.797 L20.061,33.306 ZM30.769,26.156 L34.901,21.953 C34.645,24.126 32.932,25.863 30.769,26.156 Z"/>
	</g>

	<g viewBox="0 0 19 20" id="search">
		<path opacity="0.5" fill-rule="evenodd" clip-rule="evenodd" d="M14.8202 14.1162L18.6959 18.1001C19.1176 18.5493 19.0975 19.2646 18.6558 19.6733C18.475 19.8774 18.1938 20 17.8926 20C17.6115 20 17.3303 19.8774 17.1295 19.6733L13.1936 15.6079C11.7878 16.5884 10.1411 17.1196 8.41418 17.1196C3.77527 17.1196 0 13.2788 0 8.55957C0 3.84082 3.77527 0 8.41418 0C13.053 0 16.8484 3.84082 16.8282 8.58008C16.8282 10.6025 16.1255 12.564 14.8202 14.1162ZM2.18884 8.58008C2.18884 12.0732 4.98022 14.9131 8.41406 14.9131C11.848 14.9131 14.6394 12.0532 14.6394 8.58008C14.6394 5.08691 11.848 2.24707 8.41406 2.24707C4.98022 2.24707 2.18884 5.08691 2.18884 8.58008Z" />
	</g>

	<g viewBox="0 0 18 16" id="likes">
		<path d="M5.31117 15.454C5.29732 14.2596 5.29697 13.0644 5.29628 11.87C5.29558 10.6755 5.29835 9.48035 5.31117 8.28589C5.31117 8.44555 5.31359 7.68953 5.32571 7.19775C3.85085 7.19775 2.37599 7.19775 0.901126 7.19775C0.526753 7.19775 0.237229 7.33282 0.0734199 7.68503C0.0470996 7.73975 0.0242424 7.79723 0 7.85472V15.3948C0.0692641 15.5146 0.122597 15.6476 0.20987 15.7515C0.353593 15.9216 0.554113 15.9939 0.776104 15.9939C2.28918 15.9939 3.8026 15.9981 5.31602 15.9922C5.31325 15.7332 5.31186 15.5091 5.31117 15.454Z" />
		<path d="M17.6821 7.08276C17.5671 6.63255 17.3178 6.2793 16.8714 6.12207C16.6389 6.04549 16.3955 6.00724 16.1507 6.00882C14.8513 5.99878 13.5516 6.00501 12.2522 6.00536C12.0852 6.00536 12.079 5.99497 12.1057 5.83393C12.1864 5.35982 12.2549 4.88363 12.3481 4.41159C12.4742 3.77263 12.4901 3.13852 12.2771 2.51757C12.0852 1.9593 11.8678 1.40934 11.6596 0.857309C11.5429 0.545621 11.3455 0.317396 11.0303 0.185101C10.4343 -0.0656347 9.84663 -0.0607862 9.27589 0.237742C8.91087 0.428564 8.69719 0.73298 8.70896 1.16692C8.72559 1.77783 8.73009 2.38943 8.75502 2.99999C8.76647 3.19684 8.71935 3.39267 8.61961 3.56276C8.14827 4.37211 7.69217 5.19047 7.1997 5.98701C6.94515 6.3974 6.62585 6.76796 6.32767 7.1503C6.31704 7.16392 6.3055 7.17708 6.29303 7.18978C6.29303 7.74089 6.29303 8.292 6.29303 8.84311C6.29303 10.9291 6.28703 13.0152 6.27502 15.1015C6.67849 15.3564 7.1107 15.4724 7.59831 15.4696C9.81719 15.4564 12.0361 15.4637 14.2546 15.4637C14.6404 15.4637 15.0217 15.4402 15.3936 15.3183C16.1323 15.0758 16.5964 14.5037 16.6549 13.7304C16.6774 13.4364 16.6639 13.1451 16.558 12.8629C16.5431 12.8234 16.568 12.7534 16.5971 12.7146C16.8891 12.325 17.0629 11.8938 17.0317 11.4017C17.0213 11.232 16.968 11.063 16.9157 10.8996C16.888 10.8116 16.8884 10.7531 16.9479 10.6783C17.225 10.3288 17.3943 9.93194 17.3808 9.48346C17.3746 9.27185 17.2963 9.06268 17.2565 8.85177C17.2468 8.8012 17.2388 8.72744 17.2662 8.69696C17.5052 8.43064 17.6381 8.11688 17.706 7.77056C17.7117 7.75751 17.7199 7.74573 17.7303 7.73592V7.24761C17.715 7.19255 17.697 7.13818 17.6821 7.08276Z" />
	</g>

	<g viewBox="0 0 18 16" id="comments">
		<path fill-rule="evenodd" clip-rule="evenodd" d="M7.42038 0.0981445C3.37092 0.0981445 0.0880127 2.37014 0.0880127 5.17378C0.0880127 5.27924 0.0931036 5.38396 0.101831 5.48869C0.25674 7.23778 1.69019 8.7476 3.76438 9.57524C4.01238 12.08 2.35129 13.0763 2.35129 13.0763C5.07347 12.5316 6.87638 11.3301 8.0131 10.2327C11.7847 10.024 14.7527 7.83851 14.7527 5.17305C14.7527 2.36942 11.4698 0.0981445 7.42038 0.0981445ZM15.7608 4.82812C15.8822 5.19394 15.947 5.57649 15.947 5.96922C15.947 8.63467 12.9797 10.8201 9.20659 11.0289C8.6495 11.5663 7.93168 12.1299 7.02405 12.6281C7.77241 12.8623 8.58696 13.0114 9.44296 13.0587C10.5797 14.1554 12.3811 15.3569 15.1048 15.9016C15.1048 15.9016 13.443 14.9045 13.691 12.3998C15.8873 11.5234 17.3666 9.87976 17.3666 7.99903C17.3666 6.79976 16.7659 5.69649 15.7608 4.82812Z" />
	</g>

	<g opacity="0.5" viewBox="0 0 17 16" id="megaphone">
		<path d="M12.0415 0.052788L6.77197 3.40413C6.73103 3.41673 6.66803 3.43563 6.62709 3.44507H0.837835C0.374821 3.44507 0 3.8199 0 4.28291V9.30362C0 9.76663 0.374821 10.1415 0.837835 10.1415H1.42684C1.57488 10.1415 1.70402 10.2391 1.74811 10.3777L3.38914 15.7575C3.43008 15.9024 3.56237 16 3.71041 16H6.36251C6.58614 16 6.74678 15.7858 6.68378 15.5748L5.15615 10.5761C5.09 10.3619 5.25064 10.1446 5.47742 10.1446H6.61134C6.67118 10.1635 6.72788 10.1793 6.78772 10.195L12.0415 13.5337C12.2651 13.6755 12.5549 13.5148 12.5549 13.2503V0.333116C12.5549 0.0716865 12.262 -0.088951 12.0415 0.052788Z" fill="#CDD0D2"/>
		<path fill-rule="evenodd" clip-rule="evenodd" d="M14.06 9.55159C14.1951 10.7005 16.6263 9.56913 16.6263 6.98533C16.6263 4.40153 14.06 3.33855 14.06 4.41908C14.06 5.49961 13.925 8.40264 14.06 9.55159Z" fill="#CDD0D2"/>
	</g>

	<g viewBox="0 0 15 16" id="alarm">
		<path fill-rule="evenodd" clip-rule="evenodd" d="M0.958713 13.6629C-0.299714 13.6629 -0.299714 11.8052 0.958713 11.8052C1.97744 11.8052 2.03736 8.20974 2.03736 6.95131C2.03736 3.95506 3.83512 2.21723 5.87257 1.79775C5.51302 0.958802 6.11227 0 7.01115 0C7.91002 0 8.50927 0.958802 8.14972 1.79775C10.1872 2.21723 11.9849 3.95506 11.9849 6.95131C11.9849 8.20974 12.0449 11.8052 13.0636 11.8052C14.322 11.8052 14.322 13.6629 13.0636 13.6629H0.958713Z" />
		<path fill-rule="evenodd" clip-rule="evenodd" d="M8.08995 14.0825C8.56935 14.9215 7.9701 16.0001 7.01129 16.0001C6.05249 16.0001 5.45324 14.9215 5.93264 14.0825H8.08995Z" />
	</g>

	<g opacity="0.5" viewBox="0 0 26 20" id="loading">
		<path d="M6.59998 16.4L6.21621 15.4766C5.90303 15.6067 5.67717 15.8867 5.61624 16.2204C5.55532 16.554 5.66764 16.8958 5.91461 17.1282L6.59998 16.4ZM22 10H23C23 9.66581 22.833 9.35371 22.5551 9.16821C22.2771 8.9827 21.9248 8.94832 21.6162 9.07657L22 10ZM19.4 3.6L19.7838 4.52343C20.0969 4.39328 20.3228 4.11327 20.3837 3.77964C20.4447 3.44601 20.3323 3.10424 20.0854 2.8718L19.4 3.6ZM4 10H3C3 10.3342 3.16694 10.6463 3.44492 10.8318C3.72289 11.0173 4.07516 11.0517 4.38376 10.9234L4 10ZM5.91461 17.1282C7.77991 18.8838 10.2188 20 13 20V18C10.7812 18 8.82004 17.1162 7.28534 15.6718L5.91461 17.1282ZM13 20C18.5523 20 23 15.5523 23 10H21C21 14.4477 17.4477 18 13 18V20ZM6.98374 17.3234L22.3837 10.9234L21.6162 9.07657L6.21621 15.4766L6.98374 17.3234ZM20.0854 2.8718C18.2201 1.11622 15.7812 0 13 0V2C15.2188 2 17.1799 2.88378 18.7146 4.3282L20.0854 2.8718ZM13 0C7.44772 0 3 4.44772 3 10H5C5 5.55228 8.55228 2 13 2V0ZM19.0162 2.67657L3.61624 9.07657L4.38376 10.9234L19.7838 4.52343L19.0162 2.67657Z" fill="#AAB1B8"/>
		<path d="M18 10H26L22 6L18 10Z" fill="#AAB1B8"/>
		<path d="M0 10L4 14L8 10H0Z" fill="#AAB1B8"/>
	</g>
	<g opacity="0.7" viewBox="0 0 18 20" id="notifications">
		<path fill-rule="evenodd" clip-rule="evenodd" d="M1.19833 17.0787C-0.374704 17.0787 -0.374704 14.7566 1.19833 14.7566C2.47174 14.7566 2.54664 10.2622 2.54664 8.68914C2.54664 4.94382 4.79384 2.77154 7.34065 2.24719C6.89121 1.1985 7.64028 0 8.76387 0C9.88747 0 10.6365 1.1985 10.1871 2.24719C12.7339 2.77154 14.9811 4.94382 14.9811 8.68914C14.9811 10.2622 15.056 14.7566 16.3294 14.7566C17.9025 14.7566 17.9025 17.0787 16.3294 17.0787H1.19833Z" />
		<path fill-rule="evenodd" clip-rule="evenodd" d="M10.1126 17.603C10.7119 18.6517 9.9628 20 8.7643 20C7.5658 20 6.81673 18.6517 7.41599 17.603H10.1126Z" />
	</g>

	<g opacity="0.7" viewBox="0 0 20 14" id="my-channel">
		<path fill-rule="evenodd" clip-rule="evenodd" d="M2.5459 13.8179L3.81836 12.5454C2.5459 11.1816 1.81836 9.27246 1.81836 7.27246C1.81836 5.27246 2.5459 3.36328 3.72754 1.90918L2.4541 0.63623C0.90918 2.45459 0 4.72705 0 7.27246C0 9.81787 0.90918 12.0908 2.5459 13.8179ZM17.5449 13.9087L16.2725 12.6362C17.4541 11.1816 18.2725 9.36328 18.2725 7.36328C18.2725 5.36328 17.5449 3.4541 16.2725 2.09082L17.5449 0.817871C19.0908 2.4541 20 4.72705 20 7.27246C20 9.81787 19.0908 12.0908 17.5449 13.9087ZM3.63672 7.27295C3.63672 3.72754 6.45508 0.90918 10 0.90918C13.5459 0.90918 16.3643 3.72754 16.3643 7.27295C16.3643 10.8184 13.5459 13.6362 10 13.6362C6.45508 13.6362 3.63672 10.8184 3.63672 7.27295ZM13.1816 7.27246L8.18164 3.63623V10.9092L13.1816 7.27246Z" fill="white"/>
	</g>
	<g opacity="0.7" viewBox="0 0 15 14" id="wallet">
		<path fill-rule="evenodd" clip-rule="evenodd" d="M0 11.2983C0 12.7905 1.20996 14 2.70215 14H13.0176C13.9668 14 14.7373 13.2305 14.7373 12.2808V4.17529C14.7373 3.22607 13.9668 2.45605 13.0176 2.45605H11.5439V1.22803C11.5439 0.549805 10.9941 0 10.3154 0H1.96484C0.879883 0 0 0.879883 0 1.96484V11.2983ZM11.4531 7.33691H13.1406V9.36279H11.4531C11.0791 9.38135 10.7256 9.19238 10.5332 8.87158C10.3408 8.55029 10.3408 8.14941 10.5332 7.82812C10.7256 7.50732 11.0791 7.31836 11.4531 7.33691ZM10.0703 1.47363H1.96484C1.69336 1.47363 1.47363 1.69336 1.47363 1.96484C1.47363 2.23633 1.69336 2.45605 1.96484 2.45605H10.0703V1.47363Z" fill="white"/>
	</g>
	<g opacity="0.7" viewBox="0 0 13 14" id="overlays">
		<path d="M6.60572 7.7415V7.7415C6.64726 7.76383 6.6934 7.77625 6.74054 7.7778C6.78802 7.77881 6.8348 7.76622 6.87535 7.7415L12.8383 4.11187C12.9145 4.06331 12.9606 3.97923 12.9606 3.88891C12.9606 3.79859 12.9145 3.71451 12.8383 3.66595L6.87535 0.0363166C6.79165 -0.0108035 6.68942 -0.0108035 6.60572 0.0363166L0.642761 3.66595C0.566607 3.71451 0.520508 3.79859 0.520508 3.88891C0.520508 3.97923 0.566607 4.06331 0.642761 4.11187L6.60572 7.7415Z" fill="white"/>
		<path d="M11.7753 6.14453L7.14488 8.96009C6.89679 9.11251 6.58408 9.11251 6.33599 8.96009L1.70562 6.14453L0.668584 6.79268C0.592306 6.83995 0.545898 6.92331 0.545898 7.01305C0.545898 7.10279 0.592306 7.18615 0.668584 7.23342L6.63155 10.863C6.71497 10.9112 6.81775 10.9112 6.90118 10.863L12.8641 7.23342C12.9404 7.18615 12.9868 7.10279 12.9868 7.01305C12.9868 6.92331 12.9404 6.83995 12.8641 6.79268L11.7753 6.14453Z" fill="white"/>
		<path d="M11.7966 9.25537L7.12996 12.0865C6.87998 12.2321 6.57106 12.2321 6.32107 12.0865L1.65441 9.25537L0.61737 9.88796C0.541216 9.93653 0.495117 10.0206 0.495117 10.1109C0.495117 10.2012 0.541216 10.2853 0.61737 10.3339L6.58033 13.9635C6.66376 14.0117 6.76654 14.0117 6.84996 13.9635L12.8129 10.3339C12.8891 10.2853 12.9352 10.2012 12.9352 10.1109C12.9352 10.0206 12.8891 9.93653 12.8129 9.88796L11.7966 9.25537Z" fill="white"/>
	</g>
	<g opacity="0.7" viewBox="0 0 14 14" id="settings">
		<path fill-rule="evenodd" clip-rule="evenodd" d="M13.7529 4.69971C12.4756 5.43408 12.0342 7.06445 12.7666 8.34326C12.9209 8.61182 13.1211 8.84961 13.3564 9.04736C13.4766 9.14844 13.6064 9.23877 13.7432 9.31689L12.3672 11.6997C11.0928 10.9653 9.46484 11.3994 8.72461 12.6709C8.58984 12.9038 8.49219 13.1548 8.43359 13.415C8.39062 13.606 8.36914 13.8022 8.36914 14H5.61816C5.61523 12.5308 4.42578 11.3394 2.95605 11.335C2.4707 11.335 2.0166 11.4653 1.62402 11.6934L0.249023 9.31104C1.52148 8.57422 1.95996 6.94727 1.22852 5.6709C0.995117 5.2627 0.655273 4.92529 0.246094 4.69336L1.62207 2.31104C2.90234 3.04785 4.53613 2.61523 5.27051 1.34326C5.40918 1.104 5.50879 0.845703 5.56641 0.578125C5.60742 0.38916 5.62793 0.195312 5.62598 0H8.37793C8.375 0.708496 8.6543 1.38867 9.15332 1.89111C9.65234 2.39355 10.3311 2.67676 11.0391 2.6792C11.5098 2.67969 11.9717 2.55469 12.377 2.31689L13.7529 4.69971ZM4.16504 7C4.16504 8.56592 5.43457 9.83496 7 9.83496C8.56543 9.83496 9.83496 8.56592 9.83496 7C9.83496 5.43408 8.56543 4.16504 7 4.16504C5.43457 4.16504 4.16504 5.43408 4.16504 7Z" fill="white"/>
	</g>
	<g opacity="0.7" viewBox="0 0 15 16" id="exit">
		<path fill-rule="evenodd" clip-rule="evenodd" d="M11 13V9H10V12H6V3L2 1H10V5H11V0H0V13L6 16V13H11ZM7 8H12V10L15 7L12 4V6H7V8Z" fill="white"/>
	</g>
	<g viewBox="0 0 11 16" id="arrow-get">
		<path d="M5.96096 12.2926L10.7294 7.55982C10.9681 7.32352 10.969 6.93889 10.7327 6.70016C10.4964 6.46184 10.1113 6.46022 9.873 6.69692L6.0631 10.4784L6.0631 0.607963C6.0631 0.272368 5.79073 0 5.45514 0C5.11954 0 4.84718 0.272368 4.84718 0.607963L4.84718 10.4995L1.0393 6.66449C0.8026 6.42617 0.417962 6.42455 0.179641 6.66125C0.0596694 6.78 8.86917e-05 6.93645 8.86917e-05 7.0925C8.86917e-05 7.24733 0.059264 7.40256 0.176804 7.52091L5.00565 12.3846C5.03362 12.4126 5.06847 12.4268 5.10009 12.4478C5.11103 12.4559 5.12238 12.4632 5.13413 12.4705C5.17588 12.4953 5.21641 12.5163 5.26181 12.5297C5.31004 12.5459 5.3607 12.5561 5.41339 12.5597C5.44622 12.563 5.45028 12.5642 5.45473 12.5642C5.6659 12.5646 5.85194 12.4564 5.96096 12.2926Z" />
		<rect x="0.36377" y="14.5454" width="10.1818" height="1.45455" />
	</g>
	<g viewBox="0 0 11 16" id="arrow-put">
		<path d="M5.96096 0.271356L10.7294 5.00415C10.9681 5.24044 10.969 5.62508 10.7327 5.86381C10.4964 6.10213 10.1113 6.10375 9.873 5.86705L6.0631 2.08552L6.0631 11.956C6.0631 12.2916 5.79073 12.564 5.45514 12.564C5.11954 12.564 4.84718 12.2916 4.84718 11.956L4.84718 2.06444L1.0393 5.89947C0.8026 6.13779 0.417962 6.13942 0.179641 5.90272C0.0596694 5.78396 8.86917e-05 5.62751 8.86917e-05 5.47147C8.86917e-05 5.31664 0.059264 5.16141 0.176804 5.04306L5.00565 0.179351C5.03362 0.151385 5.06847 0.137198 5.10009 0.116122C5.11103 0.108016 5.12238 0.10072 5.13413 0.0934248C5.17588 0.068701 5.21641 0.0476254 5.26181 0.0342503C5.31004 0.0180379 5.3607 0.00790498 5.41339 0.0042572C5.44622 0.00101473 5.45028 -0.000201225 5.45473 -0.000201225C5.6659 -0.000606534 5.85194 0.107611 5.96096 0.271356Z" />
		<rect x="0.36377" y="14.5454" width="10.1818" height="1.45455" />
	</g>
	<g viewBox="0 0 28 24" id="arrow-add">
		<path d="M23.7056 9.67609L23.6672 17.0001C23.6657 17.3663 23.3672 17.6661 23.001 17.6712C22.6351 17.6761 22.3397 17.3832 22.3417 17.017L22.3726 11.1652L14.6951 18.8426C14.4341 19.1037 14.0142 19.1075 13.7578 18.8511C13.5015 18.5947 13.5052 18.1748 13.7663 17.9138L21.4601 10.2199L15.5682 10.2939C15.202 10.2985 14.9069 10.0059 14.909 9.63975C14.9097 9.45573 14.9859 9.28852 15.1072 9.16715C15.2277 9.04672 15.3936 8.97119 15.5754 8.96892L23.0474 8.87474C23.0905 8.87435 23.1282 8.88995 23.1687 8.8977C23.1834 8.89976 23.1977 8.90275 23.2124 8.90606C23.2635 8.91872 23.3109 8.93329 23.356 8.95756C23.4054 8.9818 23.452 9.01262 23.4951 9.05003C23.5227 9.07259 23.5267 9.07474 23.5301 9.07815C23.6918 9.23915 23.7497 9.46544 23.7056 9.67609Z" />
		<path d="M4.78166 14.3239L4.82015 6.9999C4.82158 6.63374 5.12013 6.33394 5.48633 6.32877C5.85222 6.32391 6.14762 6.61679 6.14557 6.98296L6.11472 12.8348L13.7922 5.15736C14.0532 4.89633 14.4731 4.89254 14.7295 5.14892C14.9859 5.40529 14.9821 5.82521 14.721 6.08624L7.02721 13.7801L12.9191 13.7061C13.2853 13.7015 13.5804 13.9941 13.5783 14.3603C13.5776 14.5443 13.5015 14.7115 13.3801 14.8328C13.2596 14.9533 13.0937 15.0288 12.9119 15.0311L5.43989 15.1253C5.39677 15.1256 5.35911 15.1101 5.31857 15.1023C5.3039 15.1002 5.28956 15.0972 5.2749 15.0939C5.22378 15.0813 5.17642 15.0667 5.13134 15.0424C5.08189 15.0182 5.0353 14.9874 4.99221 14.95C4.96461 14.9274 4.96057 14.9253 4.95716 14.9219C4.79553 14.7609 4.73759 14.5346 4.78166 14.3239Z" />
	</g>
	<g viewBox="0 0 8 12" id="arrow-more">
		<path d="M2.25 2.25L5.75 5.75" stroke-width="2" stroke-linecap="square"/>
		<path d="M2.25 9.75L5.75 6.25" stroke-width="2" stroke-linecap="square"/>
	</g>
	
	<g viewBox="0 0 20 20" id="share">
		<path d="M3.52945 13.5293C4.48076 13.5293 5.34265 13.1512 5.97725 12.5392L12.9707 16.036C12.9533 16.1785 12.9413 16.323 12.9413 16.4705C12.9413 18.4197 14.5216 20 16.4708 20C18.42 20 20.0002 18.4197 20.0002 16.4705C20.0002 14.5213 18.42 12.9411 16.4708 12.9411C15.5195 12.9411 14.6576 13.3195 14.023 13.9315L7.02949 10.4345C7.04691 10.2919 7.05891 10.1474 7.05891 9.99988C7.05891 9.85235 7.04691 9.70788 7.02949 9.56529L14.023 6.06854C14.6578 6.68055 15.5195 7.05891 16.4708 7.05891C18.42 7.05891 20.0002 5.47865 20.0002 3.52945C20.0002 1.58025 18.42 0 16.4708 0C14.5216 0 12.9413 1.58025 12.9413 3.52945C12.9413 3.67698 12.9533 3.82146 12.9707 3.96428L5.97725 7.46056C5.34265 6.84855 4.48076 6.47043 3.52945 6.47043C1.58025 6.47043 0 8.05068 0 9.99988C0 11.9491 1.58025 13.5293 3.52945 13.5293Z" />
	</g>
	<g viewBox="0 0 10 7" id="up">
		<path d="M2 5.42857L5.08897 2.3396" stroke="#A6ACB3" stroke-width="2" stroke-linecap="square"/>
		<path d="M8.28613 5.42857L5.19716 2.3396" stroke="#A6ACB3" stroke-width="2" stroke-linecap="square"/>
	</g>
	<g viewBox="0 0 10 7" id="down">
		<path d="M2 1.57143L5.08897 4.6604" stroke="#A6ACB3" stroke-width="2" stroke-linecap="square"/>
		<path d="M8.28613 1.57143L5.19716 4.6604" stroke="#A6ACB3" stroke-width="2" stroke-linecap="square"/>
	</g>

	<g viewBox="0 0 16 16" id="link">
		<path fill-rule="evenodd" clip-rule="evenodd" d="M6.2627 9.73633C6.42529 9.89844 6.63818 9.98047 6.85107 9.98047C7.06445 9.98047 7.27734 9.89844 7.43994 9.73633C7.76514 9.41113 7.76514 8.88477 7.43994 8.55957C6.56641 7.68652 6.56641 6.26465 7.43994 5.3916L10.5122 2.32031C10.9355 1.89648 11.498 1.66406 12.0967 1.66406C12.6953 1.66406 13.2578 1.89648 13.6812 2.32031C14.5547 3.19336 14.5547 4.61426 13.6812 5.4873L12.2769 6.8916C11.9517 7.2168 11.9517 7.74316 12.2769 8.06836C12.6016 8.39355 13.1284 8.39355 13.4536 8.06836L14.8579 6.66406C16.3804 5.1416 16.3804 2.66504 14.8579 1.14355C14.1201 0.40625 13.1401 0 12.0967 0C11.0537 0 10.0728 0.40625 9.33545 1.14355L6.2627 4.21582C4.74072 5.7373 4.74072 8.21387 6.2627 9.73633ZM2.68066 15.8047C3.06982 15.9326 3.48145 15.999 3.90283 15.999C4.94629 16 5.92676 15.5938 6.66406 14.8564L9.73682 11.7842C11.2593 10.2617 11.2593 7.78516 9.73682 6.26367C9.41162 5.93848 8.88525 5.93848 8.56006 6.26367C8.23486 6.58789 8.23486 7.11523 8.56006 7.44043C9.43359 8.31348 9.43359 9.73438 8.56006 10.6074L5.4873 13.6797C5.06445 14.1025 4.50146 14.3359 3.90283 14.3359C3.30469 14.3359 2.7417 14.1025 2.31885 13.6797C1.44531 12.8066 1.44531 11.3848 2.31885 10.5117L3.72314 9.10742C4.04834 8.7832 4.04834 8.25586 3.72314 7.93066C3.39795 7.60645 2.87109 7.60645 2.54639 7.93066L1.1416 9.33496C-0.380371 10.8574 -0.380371 13.334 1.1416 14.8564C1.58105 15.2959 2.10693 15.6172 2.68066 15.8047Z" />
	</g>

	<g viewBox="0 0 33 17" id="double-arrow">
		<path d="M24.522 9H8.52197" stroke="#AAB1B8" stroke-width="2"/>
		<path fill-rule="evenodd" clip-rule="evenodd" d="M25 14.5317V3C27.1672 4.97353 29.2927 6.89145 31.4778 8.80361C30.2506 9.87704 29.0427 10.9496 27.838 12.0193L27.836 12.0211C26.892 12.8594 25.9499 13.6959 25 14.5317Z" stroke="#AAB1B8" stroke-width="2"/>
		<path fill-rule="evenodd" clip-rule="evenodd" d="M8.47803 14.5317V3C6.31084 4.97353 4.18537 6.89145 2.00018 8.80361C3.22746 9.87704 4.43533 10.9496 5.63999 12.0193L5.64202 12.0211C6.58603 12.8594 7.52808 13.6959 8.47803 14.5317Z" stroke="#AAB1B8" stroke-width="2"/>
	</g>

	<g viewBox="0 0 12 20" opacity="0.5" id="arrow-prev">
		<path d="M9.78378 2.21622L2.18847 9.81153" stroke="#AAB1B8" stroke-width="2" stroke-linecap="square"/>
		<path d="M9.78378 17.7838L2.18847 10.1885" stroke="#AAB1B8" stroke-width="2" stroke-linecap="square"/>
	</g>

	<g viewBox="0 0 12 20" opacity="0.5" id="arrow-next">
		<path d="M2.21622 2.21622L9.81153 9.81153" stroke="#AAB1B8" stroke-width="2" stroke-linecap="square"/>
		<path d="M2.21622 17.7838L9.81153 10.1885" stroke="#AAB1B8" stroke-width="2" stroke-linecap="square"/>
	</g>


	
</svg>