<?xml version="1.0"?>
<svg xmlns="http://www.w3.org/2000/svg">	
	
	<g viewBox="0 0 40 40" id="telegram">
		<path d="M16.7087 0.178512L0.70865 6.47851C0.70865 6.47851 -0.0913495 6.77851 0.00865052 7.17851C0.108651 7.67851 0.70865 7.87851 0.70865 7.87851L4.70865 9.27851L14.4087 3.17851C14.4087 3.17851 15.0087 2.87851 14.9087 3.17851C14.9087 3.17851 15.0087 3.27851 14.7087 3.47851C14.4087 3.77851 7.10865 10.2785 7.10865 10.2785V10.3785L13.7087 15.3785C14.8087 15.8785 15.2087 14.8785 15.2087 14.8785L18.0086 0.578513C18.0086 -0.421487 16.7087 0.178512 16.7087 0.178512Z" transform="translate(8.99121 12.2214)" />
		<path d="M3 1.9L0.4 4.3C0.4 4.3 0.2 4.5 3.8147e-07 4.4L0.5 3.8147e-07" transform="translate(15.5996 22.6)" />
	</g>
	<g viewBox="0 0 30 30" id="facebook">
	<path d="M21.6562 7.5H8.34375C7.875 7.5 7.5 7.875 7.5 8.34375V21.6562C7.5 22.125 7.875 22.5 8.34375 22.5H15.5625V16.6875H13.5938V14.4375H15.5625V12.75C15.5625 10.7812 16.7812 9.75 18.4688 9.75C19.3125 9.75 19.9688 9.84375 20.25 9.84375V11.9062H19.0312C18.0938 11.9062 17.9062 12.375 17.9062 13.0312V14.4375H20.1562L19.875 16.6875H17.8125V22.5H21.6562C22.125 22.5 22.5 22.125 22.5 21.6562V8.34375C22.5 7.875 22.125 7.5 21.6562 7.5Z" />
	</g>

	<g viewBox="0 0 40 40" id="twitter">
		<path d="M14.9 2.2C15.6 2.1 16.3 1.9 16.9 1.7C16.4 2.4 15.8 3 15.2 3.5C15.2 3.6 15.2 3.8 15.2 4C15.2 8.6 11.7 13.9 5.3 13.9C3.3 13.9 1.5 13.3 3.8147e-07 12.3C0.3 12.3 0.6 12.3 0.8 12.3C2.4 12.3 3.9 11.7 5.1 10.8C3.6 10.8 2.3 9.8 1.8 8.4C2 8.4 2.2 8.5 2.5 8.5C2.8 8.5 3.1 8.5 3.4 8.4C1.8 8.1 0.6 6.7 0.6 5C1.1 5.3 1.6 5.4 2.2 5.4C1.3 4.8 0.6 3.7 0.6 2.5C0.6 1.9 0.8 1.3 1.1 0.700003C2.8 2.8 5.4 4.2 8.3 4.3C8.2 4 8.2 3.8 8.2 3.5C8.2 1.6 9.8 -1.52588e-06 11.7 -1.52588e-06C12.7 -1.52588e-06 13.6 0.399997 14.2 1.1C15 0.899997 15.7 0.700002 16.4 0.300002C16.2 1.1 15.6 1.7 14.9 2.2Z" transform="translate(12.5996 13.1)"  />
	</g>

	<g viewBox="0 0 30 30" id="twitch">
		<path fill-rule="evenodd" clip-rule="evenodd" d="M21.1006 15.8022L18.6627 18.2399H14.8333L12.7442 20.3286V18.2399H9.6106L9.6106 8.14272L21.1006 8.14272V15.8022ZM8.21737 6.74983L7.52112 9.53537L7.52112 22.0693H10.655V23.8105H12.3954L14.1368 22.0693H16.9218L22.4925 16.4993V6.74983L8.21737 6.74983Z" />
		<path fill-rule="evenodd" clip-rule="evenodd" d="M13.4404 15.1064H14.8331V10.9277H13.4404V15.1064ZM17.27 15.1064H18.6627V10.9277H17.27V15.1064Z" />
	</g>

	<g viewBox="0 0 30 30" id="youtube">
		<path fill-rule="evenodd" clip-rule="evenodd" d="M20.8334 9.91699C21.5 10.0835 22 10.5835 22.1666 11.25C22.5 12.417 22.5 14.8335 22.5 14.8335C22.5 14.8335 22.5 17.25 22.1666 18.417C22 19.0835 21.5 19.5835 20.8334 19.75C19.6666 20.0835 15 20.0835 15 20.0835C15 20.0835 10.3334 20.0835 9.16663 19.75C8.5 19.5835 8 19.0835 7.83337 18.417C7.5 17.25 7.5 14.8335 7.5 14.8335C7.5 14.8335 7.5 12.417 7.83337 11.25C8 10.5835 8.5 10.0835 9.16663 9.91699C10.3334 9.5835 15 9.5835 15 9.5835C15 9.5835 19.6666 9.5835 20.8334 9.91699ZM17.4166 14.8335L13.5 12.5835V17.0835L17.4166 14.8335Z" />
	</g>

	<g viewBox="0 0 40 40" id="linkedin">
		<path d="M13.6 13.6H11.2V9.89999C11.2 8.99999 11.2 7.89999 10 7.89999C8.8 7.89999 8.6 8.89999 8.6 9.89999V13.7H6.2V6H8.5V7C8.8 6.4 9.6 5.8 10.7 5.8C13.1 5.8 13.5 7.39999 13.5 9.39999V13.6H13.6ZM3.6 5C2.8 5 2.2 4.40001 2.2 3.60001C2.2 2.80001 2.8 2.2 3.6 2.2C4.4 2.2 5 2.80001 5 3.60001C4.9 4.30001 4.3 5 3.6 5ZM4.7 13.6H2.3V6H4.7V13.6ZM14.8 0H1.2C0.5 0 0 0.499997 0 1.2V14.9C0 15.5 0.5 16.1 1.2 16.1H14.8C15.5 16.1 16 15.6 16 14.9V1.2C16 0.499997 15.5 0 14.8 0Z" transform="translate(12 12)"  />
	</g>

	<g viewBox="0 0 42 42" id="twitch-white">
		<path fill-rule="evenodd" clip-rule="evenodd" d="M29.1345 22.0695L25.884 25.3197H20.778L17.9925 28.1047V25.3197H13.8145L13.8145 11.8569L29.1345 11.8569L29.1345 22.0695ZM11.9567 9.99994L11.0283 13.714L11.0283 30.4259H15.2069V32.7476H17.5274L19.8493 30.4259H23.5626L30.9902 22.9992L30.9902 9.99994L11.9567 9.99994Z" />
		<path fill-rule="evenodd" clip-rule="evenodd" d="M18.9209 21.1418H20.7778V15.5702H18.9209V21.1418ZM24.0273 21.1418H25.8842V15.5702H24.0273V21.1418Z" />
	</g>

	<g viewBox="0 0 42 42" id="steam-white">
		<path d="M11.4101 23.5623C12.6154 27.5829 16.3439 30.5122 20.7566 30.5122C26.1447 30.5122 30.5127 26.1441 30.5127 20.7561C30.5127 15.368 26.1447 11 20.7566 11C15.5862 11 11.3556 15.0221 11.0215 20.1079C11.6528 21.1681 11.8992 21.8238 11.4101 23.5623H11.4101Z" />
		<path fill-rule="evenodd" clip-rule="evenodd" d="M20.2549 18.3611L20.2539 18.3127C20.2539 16.2661 21.916 14.6011 23.959 14.6011C26.0039 14.6011 27.665 16.2661 27.665 18.3127C27.665 20.3594 26.0039 22.0259 23.959 22.0259L23.876 22.0242L20.46 24.4651C20.4697 24.842 20.4004 25.2197 20.251 25.5798C19.6787 26.9575 18.0908 27.613 16.7139 27.0378C15.8721 26.687 15.3018 25.9575 15.1152 25.126L11.4092 23.5967C11.1709 22.896 11.0723 22.0825 11.0342 21.418C10.9912 20.6721 11.0254 20.114 11.0254 20.114L16.2676 22.272C16.4102 22.1782 16.5625 22.0969 16.7246 22.0308C17.0928 21.8792 17.4805 21.8113 17.8672 21.8289L20.2549 18.3611ZM16.9512 26.4668C18.0146 26.9097 19.2373 26.4048 19.6807 25.3403C19.8955 24.8262 19.8965 24.2568 19.6846 23.741C19.4727 23.2251 19.0732 22.8215 18.5576 22.6069C18.0469 22.3943 17.499 22.4011 17.0186 22.5835L18.2656 23.1003C19.0488 23.427 19.4199 24.3279 19.0928 25.1125C18.7666 25.8965 17.8672 26.2683 17.083 25.9417L15.877 25.4417C16.0908 25.8882 16.4609 26.2625 16.9512 26.4668ZM23.959 20.7864C22.5986 20.7864 21.4902 19.6768 21.4902 18.3127C21.4902 16.9497 22.5986 15.8398 23.959 15.8398C25.3203 15.8398 26.4287 16.9497 26.4287 18.3127C26.4287 19.6768 25.3203 20.7864 23.959 20.7864ZM22.4268 17.2695C22.2266 17.5662 22.1094 17.9241 22.1094 18.3091C22.1094 19.3352 22.9404 20.1667 23.9639 20.1667C24.9873 20.1667 25.8184 19.3352 25.8184 18.3091C25.8184 17.283 24.9873 16.4507 23.9639 16.4507C23.3242 16.4507 22.7598 16.7756 22.4268 17.2695Z" fill="white"/>
	</g>

	<g viewBox="0 0 42 42" id="youtube-white">
		<path fill-rule="evenodd" clip-rule="evenodd" d="M28.7773 14.2222C29.667 14.4446 30.333 15.1111 30.5557 16C31 17.5557 31 20.7778 31 20.7778C31 20.7778 31 24 30.5557 25.5557C30.333 26.4446 29.667 27.1111 28.7773 27.3335C27.2227 27.7778 21 27.7778 21 27.7778C21 27.7778 14.7773 27.7778 13.2227 27.3335C12.333 27.1111 11.667 26.4446 11.4443 25.5557C11 24 11 20.7778 11 20.7778C11 20.7778 11 17.5557 11.4443 16C11.5703 15.4983 11.8369 15.0674 12.2061 14.7473C12.4902 14.5002 12.835 14.3191 13.2227 14.2222C14.7773 13.7778 21 13.7778 21 13.7778C21 13.7778 27.2227 13.7778 28.7773 14.2222ZM24.2227 20.7778L19 17.7778V23.7778L24.2227 20.7778Z" />
	</g>

	<g viewBox="0 0 42 42" id="fb-white">
		<path d="M29.875 11H12.125C11.5 11 11 11.5 11 12.125V29.875C11 30.5 11.5 31 12.125 31H21.75V23.25H19.125V20.25H21.75V18C21.75 15.375 23.375 14 25.625 14C26.75 14 27.625 14.125 28 14.125V16.875H26.375C25.125 16.875 24.875 17.5 24.875 18.375V20.25H27.875L27.5 23.25H24.75V31H29.875C30.5 31 31 30.5 31 29.875V12.125C31 11.5 30.5 11 29.875 11Z" />
	</g>

	<g viewBox="0 0 42 42" id="twitter-white">
		<path d="M28.7515 15.5324C29.5385 15.4173 30.3254 15.1871 31 14.9568C30.4379 15.7626 29.7633 16.4532 29.0888 17.0288C29.0888 17.1439 29.0888 17.3741 29.0888 17.6043C29.0888 22.8993 25.1538 29 17.9586 29C15.7101 29 13.6864 28.3094 12 27.1583C12.3373 27.1583 12.6746 27.1583 12.8994 27.1583C14.6982 27.1583 16.3846 26.4676 17.7337 25.4317C16.0473 25.4317 14.5858 24.2806 14.0237 22.6691C14.2485 22.6691 14.4734 22.7842 14.8107 22.7842C15.1479 22.7842 15.4852 22.7842 15.8225 22.6691C14.0237 22.3237 12.6746 20.7122 12.6746 18.7554C13.2367 19.1007 13.7988 19.2158 14.4734 19.2158C13.4615 18.5252 12.6746 17.259 12.6746 15.8777C12.6746 15.1871 12.8994 14.4964 13.2367 13.8058C15.1479 16.223 18.071 17.8345 21.3314 17.9496C21.2189 17.6043 21.2189 17.3741 21.2189 17.0288C21.2189 14.8417 23.0178 13 25.1538 13C26.2781 13 27.2899 13.4604 27.9645 14.2662C28.8639 14.036 29.6509 13.8058 30.4379 13.3453C30.213 14.2662 29.5385 14.9568 28.7515 15.5324Z" />
	</g>


	<g viewBox="0 0 40 40" id="instagram">
		<path d="M9 0C6.6 0 6.2 6.10203e-06 5.3 0.100006C4.3 0.100006 3.7 0.3 3.1 0.5C2.5 0.7 2 1 1.5 1.5C1 2 0.7 2.50001 0.5 3.10001C0.3 3.70001 0.1 4.29999 0.1 5.29999C0.1 6.29999 0 6.6 0 9C0 11.4 3.7998e-07 11.8 0.1 12.7C0.1 13.7 0.3 14.3 0.5 14.9C0.7 15.5 1 16 1.5 16.5C2 17 2.5 17.3 3.1 17.5C3.7 17.7 4.3 17.9 5.3 17.9C6.3 17.9 6.6 18 9 18C11.4 18 11.8 18 12.7 17.9C13.7 17.9 14.3 17.7 14.9 17.5C15.5 17.3 16 17 16.5 16.5C17 16 17.3 15.5 17.5 14.9C17.7 14.3 17.9 13.7 17.9 12.7C17.9 11.7 18 11.4 18 9C18 6.6 18 6.19999 17.9 5.29999C17.9 4.29999 17.7 3.70001 17.5 3.10001C17.3 2.50001 17 2 16.5 1.5C16 1 15.5 0.7 14.9 0.5C14.3 0.3 13.7 0.100006 12.7 0.100006C11.8 6.10203e-06 11.4 0 9 0ZM9 1.60001C11.4 1.60001 11.7 1.6 12.6 1.7C13.5 1.7 14 1.9 14.3 2C14.7 2.2 15 2.4 15.3 2.7C15.6 3 15.8 3.3 16 3.7C16.1 4 16.3 4.49999 16.3 5.39999C16.3 6.29999 16.4 6.6 16.4 9C16.4 11.4 16.4 11.7 16.3 12.6C16.3 13.5 16.1 14 16 14.3C15.8 14.7 15.6 15 15.3 15.3C15 15.6 14.7 15.8 14.3 16C14 16.1 13.5 16.3 12.6 16.3C11.7 16.3 11.4 16.4 9 16.4C6.6 16.4 6.3 16.4 5.4 16.3C4.5 16.3 4 16.1 3.7 16C3.3 15.8 3 15.6 2.7 15.3C2.4 15 2.2 14.7 2 14.3C1.9 14 1.7 13.5 1.7 12.6C1.7 11.7 1.6 11.4 1.6 9C1.6 6.6 1.6 6.29999 1.7 5.39999C1.7 4.49999 1.9 4 2 3.7C2.2 3.3 2.4 3 2.7 2.7C3 2.4 3.3 2.2 3.7 2C4 1.9 4.5 1.7 5.4 1.7C6.3 1.6 6.6 1.60001 9 1.60001Z" transform="translate(11 11)"  />
		<path d="M4.6 7.6C2.9 7.6 1.6 6.3 1.6 4.6C1.6 2.9 2.9 1.6 4.6 1.6C6.3 1.6 7.6 2.9 7.6 4.6C7.6 6.3 6.3 7.6 4.6 7.6ZM4.6 -6.10352e-06C2 -6.10352e-06 -3.8147e-07 2.1 -3.8147e-07 4.6C-3.8147e-07 7.2 2.1 9.20001 4.6 9.20001C7.1 9.20001 9.2 7.1 9.2 4.6C9.2 2 7.2 -6.10352e-06 4.6 -6.10352e-06Z" transform="translate(15.4004 15.4)"  />
		<path d="M2.2 1.1C2.2 1.7 1.7 2.19999 1.1 2.19999C0.499999 2.19999 7.62939e-07 1.7 7.62939e-07 1.1C7.62939e-07 0.499997 0.499999 6.10352e-06 1.1 6.10352e-06C1.7 6.10352e-06 2.2 0.499997 2.2 1.1Z" transform="translate(23.7002 14.1)"  />
	</g>


	<g viewBox="0 0 40 40" id="talk">
		<path d="M0.6 1.2207e-05L-7.62939e-07 1.69999H1.2L0.6 1.2207e-05Z" transform="translate(17.2998 19.2001)"  />
		<path d="M17.3 10.4C17.3 10.6 17.2 10.7 17.1 10.8C17 10.9 16.9 10.9 16.8 10.9C16.6 10.9 16.4 10.8 16.3 10.7L14.9 8.89999L14.7 9.10001V10.4C14.7 10.7 14.4 11 14.1 11C13.8 11 13.5 10.7 13.5 10.4V6.29999C13.5 5.99999 13.8 5.70001 14.1 5.70001C14.4 5.70001 14.7 5.99999 14.7 6.29999V7.60001L16.3 5.89999C16.4 5.79999 16.5 5.79999 16.6 5.79999C16.7 5.79999 16.9 5.9 17 6C17.1 6.1 17.2 6.19999 17.2 6.39999C17.2 6.49999 17.2 6.69999 17.1 6.79999L15.8 8.20001L17.2 10.1C17.3 10.1 17.4 10.3 17.3 10.4ZM12.8 10.9H11C10.7 10.9 10.4 10.7 10.4 10.4V6.39999C10.4 6.09999 10.7 5.79999 11 5.79999C11.3 5.79999 11.6 6.09999 11.6 6.39999V9.89999H12.8C13.1 9.89999 13.4 10.1 13.4 10.4C13.4 10.6 13.1 10.9 12.8 10.9ZM9.9 10.9C9.8 11 9.7 11 9.5 11C9.3 11 9.1 10.9 9 10.7L8.7 9.89999H7L6.7 10.7C6.6 10.9 6.5 11 6.2 11C6.1 11 5.9 11 5.8 10.9C5.6 10.8 5.5 10.6 5.7 10.1L7.1 6.29999C7.2 5.99999 7.5 5.70001 7.9 5.70001C8.3 5.70001 8.6 5.99999 8.7 6.29999L10 10C10.2 10.6 10.1 10.8 9.9 10.9ZM5 10.4C5 10.7 4.7 11 4.4 11C4.1 11 3.8 10.7 3.8 10.4V6.89999H3C2.7 6.89999 2.4 6.59999 2.4 6.29999C2.4 5.99999 2.7 5.70001 3 5.70001H6C6.3 5.70001 6.6 5.99999 6.6 6.29999C6.6 6.59999 6.3 6.89999 6 6.89999H5V10.4ZM10 0C4.5 0 0 3.60001 0 8.10001C0 11 1.9 13.6 4.7 15C4.5 15.5 3.7 18.5 3.7 18.7C3.7 18.7 3.7 18.9 3.8 18.9C3.9 19 4 18.9 4 18.9C4.3 18.9 7.6 16.4 8.2 16C8.8 16.1 9.4 16.1 10 16.1C15.5 16.1 20 12.5 20 8C20 3.6 15.5 0 10 0Z" transform="translate(10 12)"  />
	</g>

	<g viewBox="0 0 23 20" id="wechat">
		<path d="M11.2732 4.7328C10.7466 4.7328 10.2785 5.20438 10.337 5.7349C10.337 6.26542 10.8051 6.67804 11.3317 6.67804C11.8583 6.67804 12.2679 6.26542 12.2679 5.67595C12.2094 5.14543 11.7998 4.7328 11.2732 4.7328ZM6.12428 5.7349C6.12428 5.20438 5.71471 4.7328 5.18811 4.7328C4.66152 4.67386 4.19343 5.08648 4.19343 5.67595C4.19343 6.20647 4.60301 6.6191 5.1296 6.67804C5.6562 6.6191 6.12428 6.20647 6.12428 5.7349ZM15.954 6.56015C13.8477 6.67804 11.9753 7.32646 10.4541 8.80013C8.93279 10.2738 8.23066 12.1011 8.40619 14.3411C7.58704 14.2232 6.82641 14.1053 6.06577 14.0464C5.77322 14.0464 5.48067 14.0464 5.24662 14.1643C4.48599 14.5769 3.78386 15.0485 2.96471 15.579C3.14025 14.8716 3.19876 14.2822 3.37429 13.6927C3.49131 13.2801 3.4328 12.9853 3.02322 12.7496C0.507273 10.9812 -0.545915 8.26961 0.273232 5.44016C1.03387 2.84651 2.84769 1.25495 5.36365 0.429693C8.75725 -0.690295 12.6189 0.429693 14.6668 3.20019C15.3689 4.14334 15.837 5.26332 15.954 6.56015Z" />
		<path d="M8.68409 3.46499C8.27452 3.46499 7.92345 3.81867 7.92345 4.23129C7.92345 4.70287 8.27452 5.05655 8.68409 5.05655C9.09366 5.05655 9.44473 4.70287 9.44473 4.29024C9.50324 3.87761 9.15217 3.46499 8.68409 3.46499ZM3.7107 5.05655C4.12027 5.05655 4.47134 4.70287 4.52985 4.29024C4.52985 3.81867 4.17878 3.46499 3.7107 3.46499C3.24261 3.46499 2.89155 3.81867 2.89155 4.29024C2.95006 4.76181 3.30112 5.05655 3.7107 5.05655ZM11.4341 12.6017C10.732 12.307 10.1469 11.8354 9.50324 11.7765C8.85962 11.7175 8.1575 12.0712 7.45537 12.1891C5.34899 12.4249 3.47666 11.8354 1.95538 10.3618C-0.970143 7.59126 -0.560569 3.40604 2.83304 1.16606C5.87559 -0.838123 10.3224 -0.189709 12.4288 2.58079C14.3011 4.9976 14.0671 8.18072 11.7851 10.2439C11.1415 10.8333 10.9075 11.3049 11.3171 12.0712C11.3756 12.248 11.3756 12.4249 11.4341 12.6017Z" transform="translate(9.31836 7.39801)" />
	</g>

	<g viewBox="0 0 40 40" id="bitcoin">
		<path d="M5 7.89999C6.6 7.89999 9 7.8 9 6.1C9 4.7 7.5 4.30001 5 4.30001V7.89999ZM5 9.30001V12.9C7.9 12.9 9.8 12.6 9.8 11.1C9.8 9.5 7.7 9.30001 5 9.30001ZM5.7 17.3V15.1H5V17.3H3.6V15.1H3.8147e-07L0.4 13H1.2C1.8 13 2.2 12.4 2.2 11.8V5.39999C2.2 4.79999 1.8 4.39999 1.2 4.39999H3.8147e-07V2.20001H3.6V-6.10352e-06H5V2.20001H5.7V-6.10352e-06H7.1V2.20001C10.2 2.30001 11.5 3.50001 11.8 4.80001C12.2 6.40001 11.2 7.69999 10.3 7.99999C11.4 8.29999 12.9 9.09999 12.9 10.9C12.9 13.4 11 15.1 7.1 15.1V17.3H5.7Z" transform="translate(13.5996 11.4)"  />
	</g>

	<g viewBox="0 0 40 40" id="medium">
		<path d="M13.3 3.7L12.4 4.49999C12.3 4.59999 12.3 4.6 12.3 4.7V10.5C12.3 10.6 12.3 10.7 12.4 10.7L13.2 11.5V11.7H9V11.5L9.9 10.7C10 10.6 10 10.6 10 10.5V5.80001L7.6 11.7H7.3L4.5 5.80001V9.7C4.5 9.9 4.5 10 4.7 10.2L5.8 11.5V11.7H2.6V11.5L3.7 10.2C3.8 10.1 3.9 9.9 3.8 9.7V5.09999C3.8 4.99999 3.8 4.80001 3.7 4.80001L2.7 3.59999V3.40001H5.8L8.2 8.49999L10.3 3.40001H13.3V3.7ZM0 15.4H16V-1.2207e-05H0V15.4Z" transform="translate(12 12.2999)"  />
	</g>

	<g viewBox="0 0 40 40" id="git">
		 <path d="M9 1.2207e-05C4 1.2207e-05 0 4.00001 0 9.00001C0 13 2.6 16.3 6.2 17.5C6.7 17.6 6.8 17.3 6.8 17.1C6.8 16.9 6.8 16.3 6.8 15.6C4.3 16.1 3.8 14.4 3.8 14.4C3.4 13.4 2.8 13.1 2.8 13.1C2 12.5 2.9 12.6 2.9 12.6C3.8 12.7 4.3 13.5 4.3 13.5C5.1 14.9 6.4 14.5 6.9 14.2C7 13.6 7.2 13.2 7.5 13C5.5 12.8 3.4 12 3.4 8.59999C3.4 7.59999 3.8 6.79999 4.3 6.19999C4.2 5.99999 3.9 5.1 4.4 3.8C4.4 3.8 5.2 3.59999 6.9 4.69999C7.6 4.49999 8.4 4.40001 9.2 4.40001C10 4.40001 10.7 4.49999 11.5 4.69999C13.2 3.49999 14 3.8 14 3.8C14.5 5 14.2 5.99999 14.1 6.19999C14.7 6.79999 15 7.59999 15 8.59999C15 12.1 12.9 12.8 10.9 13C11.2 13.3 11.5 13.8 11.5 14.7C11.5 15.9 11.5 16.9 11.5 17.2C11.5 17.4 11.7 17.7 12.1 17.6C15.7 16.4 18.2 13 18.2 9.09999C18 4.09999 14 1.2207e-05 9 1.2207e-05Z" transform="translate(11 11.2001)"  />
	</g>

	<g viewBox="0 0 40 40" id="weibo">
		<path d="M10.0837 14.9271C6.10982 15.3122 2.67905 13.555 2.42075 11.0082C2.16244 8.45818 5.17596 6.08291 9.14651 5.69781C13.1204 5.31272 16.5511 7.06991 16.8061 9.61669C17.0677 12.1667 14.0542 14.5452 10.0837 14.9271ZM18.0281 6.46476C17.6903 6.36444 17.4585 6.29972 17.634 5.86609C18.0182 4.92439 18.0579 4.11214 17.6406 3.52965C16.8624 2.44233 14.7298 2.50058 12.2859 3.50052C12.2859 3.50052 11.5176 3.82737 11.7163 3.23517C12.0905 2.054 12.0342 1.067 11.4514 0.494218C10.1267 -0.803445 6.59993 0.542759 3.57648 3.49729C1.31469 5.70752 0 8.05367 0 10.0827C0 13.9595 5.08986 16.3186 10.0671 16.3186C16.5942 16.3186 20.9356 12.6133 20.9356 9.67171C20.939 7.89187 19.4057 6.88222 18.0281 6.46476Z" transform="translate(8 13.6816)" />
		<path d="M6.77279 2.04919C5.19649 0.340546 2.87178 -0.309904 0.725891 0.136674C0.229158 0.240228 -0.0854398 0.719166 0.0205299 1.20134C0.1265 1.68675 0.613298 1.99418 1.11003 1.89062C2.63666 1.57349 4.28912 2.03625 5.40843 3.24977C6.52773 4.4633 6.8324 6.11693 6.35222 7.56669C6.19658 8.03915 6.4615 8.54398 6.94499 8.69607C7.42848 8.84817 7.94508 8.58928 8.10072 8.12005V8.11682C8.77628 6.08133 8.34909 3.7546 6.77279 2.04919Z" transform="translate(23.5898 11)"/>
		<path d="M3.57032 0.996554C2.80204 0.164885 1.66949 -0.15225 0.626349 0.0678024C0.199158 0.155176 -0.072389 0.569393 0.017023 0.986846C0.109747 1.4043 0.530314 1.66966 0.954193 1.57905C1.46417 1.47226 2.02051 1.62759 2.39472 2.0321C2.76892 2.43984 2.87158 2.99321 2.70932 3.47862C2.57685 3.88313 2.80204 4.32 3.21929 4.45267C3.63655 4.58212 4.0803 4.36206 4.21607 3.95432C4.54392 2.96085 4.3386 1.82822 3.57032 0.996554Z" transform="translate(24.3711 14.189)" />
		<path d="M5.00153 2.78151C4.86245 3.01451 4.55447 3.12454 4.31604 3.02745C4.07761 2.93361 4.00475 2.67149 4.14053 2.44496C4.27961 2.21844 4.57434 2.10841 4.80946 2.19902C5.04789 2.28316 5.13399 2.54528 5.00153 2.78151ZM3.73321 4.36719C3.34907 4.96586 2.52449 5.22798 1.90523 4.95292C1.2959 4.68109 1.11377 3.98533 1.49791 3.3996C1.87874 2.81711 2.67351 2.55822 3.28946 2.81064C3.91203 3.07276 4.11072 3.76204 3.73321 4.36719ZM5.17704 0.127938C3.28615 -0.354236 1.15019 0.568043 0.328929 2.19579C-0.508894 3.85589 0.302437 5.70045 2.20989 6.30235C4.1902 6.92692 6.52153 5.96904 7.33287 4.1795C8.13426 2.42555 7.13417 0.623056 5.17704 0.127938Z" transform="translate(13.3008 21.2119)" />
	</g>

	<g viewBox="0 0 40 40" id="reddit">
		<path d="M24 9.8C24 8.3 22.8 7.2 21.3 7.2C20.6 7.2 19.9 7.5 19.5 7.9C17.7 6.7 15.2 6 12.5 5.9L14 1.2L18 2.1C18 2.1 18 2.1 18 2.2C18 3.4 19 4.4 20.2 4.4C21.4 4.4 22.4 3.4 22.4 2.2C22.4 1 21.4 0 20.2 0C19.3 0 18.5 0.6 18.2 1.4L13.9 0.4C13.7 0.4 13.5 0.5 13.5 0.6L11.8 5.8C9 5.8 6.4 6.6 4.5 7.8C4 7.4 3.4 7.1 2.7 7.1C1.2 7.1 0 8.3 0 9.8C0 10.8 0.5 11.6 1.3 12.1C1.2 12.4 1.2 12.7 1.2 13C1.2 16.8 6 20 11.9 20C17.8 20 22.6 16.8 22.6 12.9C22.6 12.6 22.6 12.4 22.5 12.1C23.4 11.7 24 10.8 24 9.8ZM6.8 11.6C6.8 10.7 7.5 10 8.4 10C9.3 10 10 10.7 10 11.6C10 12.5 9.3 13.2 8.4 13.2C7.5 13.2 6.8 12.5 6.8 11.6ZM15.8 16.3C15 17.1 13.8 17.5 12 17.5C10.2 17.5 9 17.1 8.2 16.3C8.1 16.2 8.1 15.9 8.2 15.8C8.3 15.7 8.6 15.7 8.7 15.8C9.3 16.4 10.4 16.8 12 16.8C13.6 16.8 14.6 16.5 15.3 15.8C15.4 15.7 15.7 15.7 15.8 15.8C16 15.9 16 16.1 15.8 16.3ZM15.6 13.2C14.7 13.2 14 12.5 14 11.6C14 10.7 14.7 10 15.6 10C16.5 10 17.2 10.7 17.2 11.6C17.2 12.5 16.5 13.2 15.6 13.2Z" transform="translate(8 10)" />
	</g>

	<g viewBox="0 0 40 40" id="discord">
		<path d="M1.16571 0C0.514286 0 0 0.55 0 1.221C0 1.892 0.525715 2.442 1.16571 2.442C1.81714 2.442 2.33143 1.892 2.33143 1.221C2.34286 0.55 1.81714 0 1.16571 0ZM5.33714 0C4.68571 0 4.17143 0.55 4.17143 1.221C4.17143 1.892 4.69714 2.442 5.33714 2.442C5.98857 2.442 6.50286 1.892 6.50286 1.221C6.50286 0.55 5.98857 0 5.33714 0Z" transform="translate(16.7656 19.2295)" />
		<path d="M17.6571 0H2.34286C1.05143 0 0 1.012 0 2.266V17.138C0 18.392 1.05143 19.404 2.34286 19.404H15.3029L14.6971 17.369L16.16 18.678L17.5429 19.91L20 22V2.266C20 1.012 18.9486 0 17.6571 0ZM13.2457 14.366C13.2457 14.366 12.8343 13.893 12.4914 13.475C13.9886 13.068 14.56 12.166 14.56 12.166C14.0914 12.463 13.6457 12.672 13.2457 12.815C12.6743 13.046 12.1257 13.2 11.5886 13.288C10.4914 13.486 9.48571 13.431 8.62857 13.277C7.97714 13.156 7.41714 12.98 6.94857 12.804C6.68571 12.705 6.4 12.584 6.11429 12.43C6.08 12.408 6.04571 12.397 6.01143 12.375C5.98857 12.364 5.97714 12.353 5.96571 12.342C5.76 12.232 5.64571 12.155 5.64571 12.155C5.64571 12.155 6.19429 13.035 7.64571 13.453C7.30286 13.871 6.88 14.366 6.88 14.366C4.35429 14.289 3.39429 12.694 3.39429 12.694C3.39429 9.152 5.04 6.281 5.04 6.281C6.68571 5.093 8.25143 5.126 8.25143 5.126L8.36571 5.258C6.30857 5.83 5.36 6.699 5.36 6.699C5.36 6.699 5.61143 6.567 6.03429 6.38C7.25714 5.863 8.22857 5.72 8.62857 5.687C8.69714 5.676 8.75429 5.665 8.82286 5.665C9.52 5.577 10.3086 5.555 11.1314 5.643C12.2171 5.764 13.3829 6.072 14.5714 6.699C14.5714 6.699 13.6686 5.874 11.7257 5.302L11.8857 5.126C11.8857 5.126 13.4514 5.093 15.0971 6.281C15.0971 6.281 16.7429 9.152 16.7429 12.694C16.7429 12.694 15.7714 14.289 13.2457 14.366Z" transform="translate(10 10)" />
	</g>

	<g viewBox="0 0 40 40" id="email">
		<path d="M8 6.46667L0 0H16L8 6.46667ZM8 8.2L0 1.73333V12H16V1.73333L8 8.2Z" transform="translate(12 14)" />
	</g>

	<g viewBox="0 0 56 56" id="telebot">
		<path d="M16.7087 0.178512L0.70865 6.47851C0.70865 6.47851 -0.0913495 6.77851 0.00865052 7.17851C0.108651 7.67851 0.70865 7.87851 0.70865 7.87851L4.70865 9.27851L14.4087 3.17851C14.4087 3.17851 15.0087 2.87851 14.9087 3.17851C14.9087 3.17851 15.0087 3.27851 14.7087 3.47851C14.4087 3.77851 7.10865 10.2785 7.10865 10.2785V10.3785L13.7087 15.3785C14.8087 15.8785 15.2087 14.8785 15.2087 14.8785L18.0086 0.578513C18.0086 -0.421487 16.7087 0.178512 16.7087 0.178512Z" transform="translate(16.9912 20.2214)" fill="white"/>
		<path d="M3 1.9L0.4 4.3C0.4 4.3 0.2 4.5 3.8147e-07 4.4L0.5 3.8147e-07" transform="translate(23.5996 30.6)" fill="white" fill-opacity="0.4"/>
	</g>


	<g viewBox="0 0 64 64" id="download">
		<path d="M7.62939e-07 7.62939e-07C2.1 1.8 4.2 3.6 6.3 5.4C8.4 3.6 10.5 1.8 12.6 7.62939e-07" transform="translate(25.7002 31.2)" stroke="white" stroke-width="2"/>
		<path d="M0 0V14" transform="translate(32 22)" stroke="white" stroke-width="2"/>
		<path d="M0 0H16" transform="translate(24 41)" stroke="white" stroke-width="2"/>
	</g>
	
	<g viewBox="0 0 24 16" id="right">
		<path d="M16 0H0" transform="translate(0 8)" stroke-width="2"/>
		<path d="M1 13.7976V2.2659C3.16719 4.23943 5.29266 6.15735 7.47785 8.06951C6.25057 9.14294 5.0427 10.2155 3.83804 11.2852L3.83601 11.287C2.892 12.1253 1.94995 12.9618 1 13.7976Z" transform="translate(15)"  stroke-width="2"/>
	</g>

	<g viewBox="0 0 24 16" id="left">
		<path d="M16 0H0" transform="translate(24 8) rotate(-180)" stroke-width="2"/>
		<path d="M1 13.7976V2.2659C3.16719 4.23943 5.29266 6.15735 7.47785 8.06951C6.25057 9.14294 5.0427 10.2155 3.83804 11.2852L3.83601 11.287C2.892 12.1253 1.94995 12.9618 1 13.7976Z" transform="translate(9 16) rotate(-180)" stroke-width="2"/>
	</g>

	<g viewBox="0 0 19 19" id="close">		
		<path d="M1.875 1.875L16.875 16.875" stroke-width="2" stroke-linecap="square"/>
<path d="M16.875 1.875L1.875 16.875" stroke-width="2" stroke-linecap="square"/>
	</g>

	<g viewBox="0 0 64 64" id="plus">
		<path d="M0 0V24" transform="translate(32 20)" stroke-width="2"/>
		<path d="M0 0V24" transform="translate(20 32) rotate(-90)"  stroke-width="2"/>
	</g>

	<g viewBox="0 0 14 18" id="lock">
		<path id="Vector" d="M12 0H0V9.27273H12V0Z" transform="translate(1 7.72726)" stroke-width="2" stroke-linecap="round" stroke-linejoin="round"/>
		<path id="Vector_2" d="M9 6.18182V4.48182C9 2.00909 7.05 0 4.5 0C1.95 0 0 2.00909 0 4.48182V6.18182" transform="translate(2.5 1)" stroke-width="2" stroke-linecap="round"/>
		<path id="Vector_3" d="M0 0V3.09091" transform="translate(7 13.9091)"  stroke-width="2" stroke-linecap="round" stroke-linejoin="round"/>
	</g>

	<g viewBox="0 0 14 18" id="lock-s">
		<path id="Vector" d="M8 0H0V6H8V0Z" transform="translate(1 6)" stroke-width="2" stroke-linecap="round" stroke-linejoin="round"/>
		<path id="Vector_2" d="M6 4V2.9C6 1.3 4.7 0 3 0C1.3 0 0 1.3 0 2.9V4" transform="translate(2 1)" stroke-width="2" stroke-linecap="round"/>
		<path id="Vector_3" d="M0 0V2" transform="translate(5 10)"  stroke-width="2" stroke-linecap="round" stroke-linejoin="round"/>
	</g>

	<g viewBox="0 0 24 24" id="ltc">
		<path d="M0 8.14801L4.91128 11.052V5.916V0L0 8.14801Z" transform="translate(7 4)" fill-opacity="0.7"/>
		<path d="M0 0V5.916V11.052L4.91128 8.14801L0 0Z" transform="translate(11.9111 4)" />
		<path d="M0 2.63758e-07L4.91128 6.92073V2.90182L0 2.63758e-07Z" transform="translate(7 13.0793)" fill-opacity="0.7"/>
		<path d="M6.59394e-08 2.90182V6.92073L4.91344 2.63758e-07L6.59394e-08 2.90182Z" transform="translate(11.9111 13.0793)"/>
		<path d="M4.91128 -2.63758e-07L0 2.23201L4.91128 5.13599L9.82255 2.23201L4.91128 -2.63758e-07Z" transform="translate(7 9.91602)" />
	</g>

	<g viewBox="0 0 24 24" id="ether">
		<path d="M23.6408 14.9029C22.0379 21.3315 15.5261 25.2438 9.09602 23.6407C2.66858 22.038 -1.24421 15.5266 0.359457 9.09838C1.96163 2.66907 8.47346 -1.24364 14.9016 0.359096C21.3313 1.96183 25.2437 8.47401 23.6408 14.9029Z" fill="#C7D0DA"/>
		<path d="M0 8.14801L4.91128 11.052V5.916V0L0 8.14801Z" transform="translate(7 4)" fill="white" fill-opacity="0.7"/>
		<path d="M0 0V5.916V11.052L4.91128 8.14801L0 0Z" transform="translate(11.9111 4)" fill="white"/>
		<path d="M0 2.63758e-07L4.91128 6.92073V2.90182L0 2.63758e-07Z" transform="translate(7 13.0791)" fill="white" fill-opacity="0.7"/>
		<path d="M6.59394e-08 2.90182V6.92073L4.91344 2.63758e-07L6.59394e-08 2.90182Z" transform="translate(11.9111 13.0791)" fill="white"/>
		<path d="M4.91128 -2.63758e-07L0 2.23201L4.91128 5.13599L9.82255 2.23201L4.91128 -2.63758e-07Z" transform="translate(7 9.91602)" fill="white"/>
	</g>

	<g viewBox="0 0 24 24" id="litecoin">
		<path d="M24 11.9999C24 18.6274 18.6275 24 12.0001 24C5.37258 24 -7.2991e-10 18.6274 -7.2991e-10 11.9999C-7.2991e-10 5.37255 5.37258 -9.38451e-10 12.0001 -9.38451e-10C18.6274 -9.38451e-10 24 5.37255 24 11.9999Z" fill="#C7D0DA"/>
		<path d="M3.48674 7.05608L4.05719 4.9081L5.40774 4.4147L5.74366 3.15234L5.7322 3.12103L4.40277 3.6067L5.36063 -1.95363e-07H2.64412L1.39146 4.70683L0.345585 5.0889L1.46523e-07 6.3903L1.04508 6.00855L0.306802 8.7825H7.53652L8 7.05608H3.48674Z" transform="translate(8 7)" fill="white"/>
	</g>

	<g viewBox="0 0 24 24" id="usd">
		<path d="M23.6408 14.9029C22.0379 21.3315 15.5261 25.2438 9.09602 23.6407C2.66858 22.038 -1.24421 15.5266 0.359457 9.09838C1.96163 2.66907 8.47346 -1.24364 14.9016 0.359096C21.3313 1.96183 25.2437 8.47401 23.6408 14.9029Z" fill="#C7D0DA"/>
		<path d="M4.49263 1.28043V0H2.77164V1.26756C2.02394 1.40268 1.42449 1.71796 0.986188 2.2134C0.547882 2.70241 0.328729 3.26863 0.328729 3.8992C0.328729 4.50402 0.483425 4.99946 0.799263 5.39839C1.10866 5.79088 1.48895 6.07399 1.9337 6.24772C2.37845 6.41501 2.8232 6.563 3.2744 6.69169C3.7256 6.82038 4.10589 6.9748 4.41529 7.16783C4.72468 7.35442 4.88582 7.60536 4.88582 7.91421C4.88582 8.25523 4.75046 8.53834 4.47974 8.76354C4.20902 8.98231 3.84162 9.09812 3.36464 9.09812C2.95212 9.09812 2.55249 9.00161 2.17864 8.82145C1.79834 8.63485 1.55341 8.48686 1.44383 8.37748C1.33425 8.2681 1.25046 8.17802 1.19245 8.11367L0 9.29759L0.109576 9.43271C0.174033 9.50992 0.290055 9.61287 0.451197 9.74156C0.605893 9.87024 0.792818 9.99893 0.999079 10.1276C1.20534 10.2563 1.46317 10.385 1.77901 10.5072C2.09484 10.6231 2.42357 10.7131 2.77164 10.7646V12H4.49263V10.7196C5.27901 10.5651 5.89779 10.2306 6.3361 9.72869C6.7744 9.22038 7 8.61555 7 7.91421C7 7.30938 6.83886 6.80751 6.52947 6.41501C6.21363 6.01609 5.83333 5.73298 5.38214 5.56568C4.93094 5.39196 4.48619 5.24397 4.04144 5.11528C3.59669 4.9866 3.21639 4.82574 2.907 4.63914C2.59761 4.45255 2.44291 4.20804 2.44291 3.8992C2.44291 3.62252 2.55249 3.39088 2.78453 3.19786C3.01657 3.00483 3.31952 2.90831 3.69982 2.90831C4.00921 2.90831 4.3186 2.97909 4.6151 3.12708C4.9116 3.26863 5.10497 3.38445 5.19521 3.47453C5.28545 3.56461 5.3628 3.63539 5.41436 3.69973L6.60037 2.44504L6.38766 2.21984C6.24586 2.07185 6.00092 1.89812 5.65285 1.70509C5.29834 1.51206 4.9116 1.37051 4.49263 1.28043Z" transform="translate(8.5 6)" fill="white"/>
	</g>

	<g viewBox="0 0 24 24" id="strat">
		<path d="M23.6408 14.9029C22.0379 21.3315 15.5261 25.2438 9.09602 23.6407C2.66858 22.038 -1.24421 15.5266 0.359457 9.09838C1.96163 2.66907 8.47346 -1.24364 14.9016 0.359096C21.3313 1.96183 25.2437 8.47401 23.6408 14.9029Z" fill="#C7D0DA"/>
		<path d="M6.01285 11.1727C5.95692 11.1727 5.87302 11.1447 5.81708 11.1168L0.195766 7.50907C0.195766 7.50907 0.195766 7.50907 0.195766 7.4811L0.447464 7.11754C0.447464 7.11754 0.447466 7.11754 0.475433 7.11754L6.04081 10.6973L11.2986 7.31331C11.4104 7.22941 11.4943 7.08957 11.4943 6.94973V6.11073L6.18065 9.49471C6.06878 9.57861 5.90098 9.57861 5.78911 9.49471L0.419505 6.08276C0.139837 5.91496 3.41391e-06 5.6353 3.41391e-06 5.2997V4.12509C3.41391e-06 4.04119 0.0279685 3.92933 0.111869 3.87339L0.139837 3.84542L0.251702 3.76153L5.95692 0.0419535C6.06878 -0.01398 6.20861 -0.01398 6.32048 0.0419535L11.8299 3.56576C11.9977 3.67762 12.0537 3.90136 11.9418 4.06916C11.9138 4.1251 11.8859 4.15306 11.8299 4.18103L6.26455 7.67687C6.15269 7.76077 5.98489 7.76077 5.87302 7.67687L0.447464 4.32086C0.447464 4.32086 0.447471 4.32086 0.419505 4.32086V5.27173C0.419505 5.43953 0.5034 5.57936 0.615267 5.66326L5.92895 9.04724L11.3545 5.57937C11.4943 5.49547 11.6621 5.49547 11.802 5.60733C11.8859 5.69123 11.9138 5.77513 11.9138 5.887V6.92177C11.9138 7.2294 11.774 7.50907 11.4943 7.67687L6.18065 11.0888C6.15268 11.1448 6.09675 11.1447 6.01285 11.1727ZM0.783069 3.98526L6.04081 7.28534L11.3825 3.90136L6.06878 0.517383L0.783069 3.98526C0.783069 3.95729 0.783069 3.98526 0.783069 3.98526Z" transform="translate(6 6.5)" fill="white"/>
		<path d="M0.783069 3.98526L6.04081 7.28534L11.3825 3.90136L6.06878 0.517383L0.783069 3.98526ZM0.783069 3.98526C0.783069 3.95729 0.783069 3.98526 0.783069 3.98526ZM6.01285 11.1727C5.95692 11.1727 5.87302 11.1447 5.81708 11.1168L0.195766 7.50907C0.195766 7.50907 0.195766 7.50907 0.195766 7.4811L0.447464 7.11754C0.447464 7.11754 0.447466 7.11754 0.475433 7.11754L6.04081 10.6973L11.2986 7.31331C11.4104 7.22941 11.4943 7.08957 11.4943 6.94973V6.11073L6.18065 9.49471C6.06878 9.57861 5.90098 9.57861 5.78911 9.49471L0.419505 6.08276C0.139837 5.91496 3.41391e-06 5.6353 3.41391e-06 5.2997V4.12509C3.41391e-06 4.04119 0.0279685 3.92933 0.111869 3.87339L0.139837 3.84542L0.251702 3.76153L5.95692 0.0419535C6.06878 -0.01398 6.20861 -0.01398 6.32048 0.0419535L11.8299 3.56576C11.9977 3.67762 12.0537 3.90136 11.9418 4.06916C11.9138 4.1251 11.8859 4.15306 11.8299 4.18103L6.26455 7.67687C6.15269 7.76077 5.98489 7.76077 5.87302 7.67687L0.447464 4.32086C0.447464 4.32086 0.447471 4.32086 0.419505 4.32086V5.27173C0.419505 5.43953 0.5034 5.57936 0.615267 5.66326L5.92895 9.04724L11.3545 5.57937C11.4943 5.49547 11.6621 5.49547 11.802 5.60733C11.8859 5.69123 11.9138 5.77513 11.9138 5.887V6.92177C11.9138 7.2294 11.774 7.50907 11.4943 7.67687L6.18065 11.0888C6.15268 11.1448 6.09675 11.1447 6.01285 11.1727Z" transform="translate(6 6.5)" stroke="white" stroke-width="0.5" stroke-linejoin="round"/>
	</g>

	<g viewBox="0 0 24 24" id="bit">
		<path d="M9.97386 5.3208C10.1819 3.9301 9.12295 3.18249 7.67492 2.68375L8.14463 0.799868L6.99778 0.514084L6.54047 2.34832C6.23898 2.2732 5.92931 2.20233 5.6216 2.13211L6.08218 0.285782L4.93597 -1.11634e-06L4.46593 1.88323C4.21637 1.8264 3.97138 1.77023 3.73358 1.71111L3.73489 1.70523L2.15326 1.31035L1.84818 2.53514C1.84818 2.53514 2.69909 2.73013 2.68113 2.74221C3.14562 2.85816 3.22956 3.1655 3.21552 3.40915L2.68047 5.5553C2.71248 5.56347 2.75397 5.57523 2.7997 5.59352C2.76148 5.58405 2.72065 5.57359 2.67851 5.56347L1.92852 8.56992C1.87169 8.71101 1.72764 8.92265 1.40296 8.8423C1.41439 8.85896 0.569349 8.63426 0.569349 8.63426L-1.67471e-06 9.9469L1.49245 10.3189C1.7701 10.3885 2.0422 10.4613 2.31005 10.5299L1.83544 12.4353L2.98099 12.7211L3.45103 10.8359C3.76396 10.9208 4.06775 10.9992 4.365 11.0731L3.89659 12.9494L5.04344 13.2352L5.51806 11.3334C7.4737 11.7034 8.94427 11.5541 9.56327 9.78555C10.0621 8.36153 9.53844 7.54012 8.5095 7.00448C9.25883 6.8317 9.82328 6.33885 9.97386 5.3208ZM7.35349 8.99483C6.99908 10.4189 4.60116 9.64903 3.82374 9.456L4.45352 6.93163C5.23094 7.12564 7.72391 7.50974 7.35349 8.99483ZM7.70823 5.30022C7.38485 6.59555 5.38903 5.93744 4.74162 5.77609L5.3126 3.48656C5.96002 3.64791 8.045 3.94904 7.70823 5.30022Z" transform="translate(7 5)" />
	</g>

	<g viewBox="0 0 24 24" id="das">
		<path d="M11.7137 1.11027C11.7014 0.90678 11.6411 0.70898 11.5377 0.532738C11.446 0.351124 11.2829 0.209465 11.0922 0.136819C10.8977 0.0408254 10.6823 -0.00597112 10.4652 0.000609175H2.32844L1.74542 1.73139H9.1176L7.95338 5.26922H0.583028L-1.11903e-07 7H8.17522C8.41882 6.99302 8.65967 6.94702 8.88843 6.86379C9.1176 6.73484 9.37978 6.60408 9.60163 6.42247C9.81821 6.25333 10.0139 6.05948 10.1847 5.84494C10.3258 5.63473 10.4461 5.41152 10.544 5.17842L11.6239 1.81493C11.7221 1.59363 11.7533 1.34882 11.7137 1.11027Z" transform="translate(6.26953 9)" />
		<path d="M4.9209 -2.21696e-07H0.583028L-5.59516e-08 1.60002H4.38188L4.9209 -2.21696e-07Z" transform="translate(6 11.6975)" fill="white"/>
	</g>

	<g viewBox="0 0 20 22" id="copy">
		<path d="M16 4V0H0V18H4V22H15.6L16.1 21.9L16.4 21.6C17.5 20.5 18.7 19.4 19.8 18.2L20 18V4H16ZM2 16V2H14V4H4V16H2ZM6 6H18V15H13V20H6V6ZM15.2 20H15V17H18V17.2C17.1 18.1 16.1 19 15.2 20Z" />
	</g>
	<g viewBox="0 0 24 24" id="check">
		<path d="M5.64 13.44L2.28882e-07 7.68L1.68 6L5.64 9.84L14.4 2.28882e-07L16.08 1.68L5.64 13.44Z" transform="translate(5.23633 5.15967)" />
	</g>
	<g viewBox="0 0 9 9" id="rate-arrow">
		<path d="M6 6V0H0" transform="translate(2 1)" stroke-width="2" stroke-linecap="round" stroke-linejoin="round"/>
		<path d="M0 7L7 0" transform="translate(1 1)" stroke-width="2" stroke-linecap="round" stroke-linejoin="round"/>
	</g>

	<g viewBox="0 0 24 24" id="status-ok">
		<path d="M0 3L4 7L10 0" transform="translate(7 8)" stroke="white" stroke-width="2"/>
	</g>

	<g viewBox="0 0 10 10" id="status-wait">
		<circle cx="5" cy="5" r="4.5" stroke="#C7D0DA"/>
		<path d="M3 3H0V0H1V2H3V3Z" transform="translate(4 3)" fill="#C7D0DA"/>
	</g>

	<g viewBox="0 0 16 16" id="calendar_dir">
		<path d="M1 13.7976V2.2659C3.16719 4.23943 5.29266 6.15735 7.47785 8.06951C6.25057 9.14294 5.0427 10.2155 3.83804 11.2852L3.83601 11.287C2.892 12.1253 1.94995 12.9618 1 13.7976Z" transform="translate(7)" stroke="#FFC100" stroke-width="2"/>
		<path d="M1 13.7976V2.2659C3.16719 4.23943 5.29266 6.15735 7.47785 8.06951C6.25057 9.14294 5.0427 10.2155 3.83804 11.2852L3.83601 11.287C2.892 12.1253 1.94995 12.9618 1 13.7976Z" stroke="#FFC100" stroke-width="2"/>
	</g>

	<g viewBox="0 0 53 58" id="stairs">
		<path fill-rule="evenodd"  fill="rgb(255, 193, 0)"
 		d="M52.989,32.600 L52.989,34.061 L41.515,34.061 C40.708,34.061 40.056,33.405 40.056,32.595 C40.056,31.785 40.708,31.129 41.515,31.129 L48.012,31.129 L39.011,22.084 L34.005,27.117 L18.977,12.019 L13.972,17.052 L0.420,3.433 C-0.150,2.860 -0.150,1.932 0.420,1.360 C0.990,0.787 1.913,0.787 2.483,1.360 L13.972,12.906 L18.977,7.873 L34.005,22.971 L39.011,17.938 L50.071,29.054 L50.071,21.269 C50.071,20.459 50.724,19.803 51.530,19.803 C52.336,19.803 52.989,20.459 52.989,21.269 L52.989,32.587 C52.989,32.591 52.989,32.596 52.989,32.600 ZM2.704,10.996 C3.510,10.996 4.162,11.652 4.162,12.462 L4.162,56.497 C4.162,57.307 3.510,57.963 2.704,57.963 C1.897,57.963 1.245,57.307 1.245,56.497 L1.245,12.462 C1.245,11.652 1.897,10.996 2.704,10.996 ZM10.216,18.546 C11.022,18.546 11.675,19.202 11.675,20.012 L11.675,56.497 C11.675,57.307 11.022,57.963 10.216,57.963 C9.410,57.963 8.757,57.307 8.757,56.497 L8.757,20.012 C8.757,19.202 9.410,18.546 10.216,18.546 ZM17.727,18.546 C18.533,18.546 19.186,19.202 19.186,20.012 L19.186,56.497 C19.186,57.307 18.533,57.963 17.727,57.963 C16.921,57.963 16.268,57.307 16.268,56.497 L16.268,20.012 C16.268,19.202 16.921,18.546 17.727,18.546 ZM25.239,23.577 C26.046,23.577 26.698,24.232 26.698,25.042 L26.698,56.497 C26.698,57.307 26.046,57.963 25.239,57.963 C24.433,57.963 23.781,57.307 23.781,56.497 L23.781,25.042 C23.781,24.232 24.433,23.577 25.239,23.577 ZM32.752,31.129 C33.558,31.129 34.210,31.785 34.210,32.595 L34.210,56.497 C34.210,57.307 33.558,57.963 32.752,57.963 C31.945,57.963 31.293,57.307 31.293,56.497 L31.293,32.595 C31.293,31.785 31.945,31.129 32.752,31.129 ZM40.263,37.418 C41.069,37.418 41.721,38.074 41.721,38.884 L41.721,56.497 C41.721,57.307 41.069,57.963 40.263,57.963 C39.456,57.963 38.804,57.307 38.804,56.497 L38.804,38.884 C38.804,38.074 39.456,37.418 40.263,37.418 ZM47.775,36.160 C48.581,36.160 49.234,36.815 49.234,37.625 L49.234,56.497 C49.234,57.307 48.581,57.963 47.775,57.963 C46.969,57.963 46.317,57.307 46.317,56.497 L46.317,37.625 C46.317,36.815 46.969,36.160 47.775,36.160 Z"/>
	</g>

	<g viewBox="0 0 57 48" id="caution">
		<path fill-rule="evenodd" d="M56.819,24.643 L44.517,47.258 C44.269,47.713 43.781,47.999 43.249,47.999 L13.725,47.999 C13.193,47.999 12.705,47.713 12.457,47.258 L0.155,24.643 C-0.065,24.238 -0.065,23.756 0.155,23.351 L12.457,0.737 C12.705,0.283 13.193,-0.003 13.725,-0.003 L43.249,-0.003 C43.781,-0.003 44.269,0.283 44.517,0.737 L56.819,23.351 C57.039,23.756 57.039,24.238 56.819,24.643 ZM42.384,2.770 L14.591,2.770 L3.042,23.997 L14.591,45.226 L42.384,45.226 L53.932,23.997 L42.384,2.770 ZM27.112,8.895 L30.348,8.895 L30.348,30.105 L27.112,30.105 L27.112,8.895 ZM30.344,40.156 L27.125,40.156 L27.125,36.813 L30.344,36.813 L30.344,40.156 Z"/>
	</g>

	<g viewBox="0 0 55 55" id="not_exchange">
		<path fill-rule="evenodd" d="M27.498,-0.003 C12.334,-0.003 -0.004,12.335 -0.004,27.499 C-0.004,42.664 12.334,55.001 27.498,55.001 C42.662,55.001 55.000,42.664 55.000,27.499 C55.000,12.335 42.662,-0.003 27.498,-0.003 ZM27.498,52.406 C21.443,52.406 15.617,50.203 11.064,46.196 L17.466,39.685 L17.466,39.728 C17.466,40.443 18.048,41.025 18.763,41.025 L20.960,41.025 L20.960,43.222 C20.960,43.937 21.542,44.519 22.257,44.519 C22.973,44.519 23.555,43.937 23.555,43.222 L23.555,41.025 L27.947,41.025 L27.947,43.222 C27.947,43.937 28.529,44.519 29.245,44.519 C29.960,44.519 30.542,43.937 30.542,43.222 L30.542,41.025 L31.865,41.025 C35.952,41.025 39.277,37.700 39.277,33.613 C39.277,30.964 37.881,28.572 35.543,27.217 L35.046,26.929 L35.444,26.517 C36.789,25.123 37.530,23.301 37.530,21.385 C37.530,20.757 37.450,20.131 37.290,19.524 L45.913,10.755 C50.102,15.355 52.405,21.291 52.405,27.499 C52.405,41.233 41.232,52.406 27.498,52.406 ZM27.498,2.593 C33.615,2.593 39.483,4.833 44.053,8.907 L36.080,17.015 C34.854,15.361 32.998,14.288 30.942,14.057 L30.542,14.013 L30.542,11.777 C30.542,11.061 29.960,10.479 29.245,10.479 C28.529,10.479 27.947,11.061 27.947,11.777 L27.947,13.973 L23.555,13.973 L23.555,11.777 C23.555,11.061 22.973,10.479 22.257,10.479 C21.542,10.479 20.960,11.061 20.960,11.777 L20.960,13.973 L18.763,13.973 C18.048,13.973 17.466,14.555 17.466,15.271 L17.466,35.945 L9.191,44.360 C4.933,39.741 2.591,33.765 2.591,27.499 C2.591,13.765 13.764,2.593 27.498,2.593 ZM20.061,26.202 L20.061,16.568 L30.118,16.568 C31.789,16.568 33.344,17.460 34.220,18.907 L27.047,26.202 L20.061,26.202 ZM31.865,38.430 L20.061,38.430 L20.061,37.046 L28.172,28.797 L31.865,28.797 C34.521,28.797 36.682,30.958 36.682,33.613 C36.682,36.269 34.521,38.430 31.865,38.430 ZM20.061,33.306 L20.061,28.797 L24.495,28.797 L20.061,33.306 ZM30.769,26.156 L34.901,21.953 C34.645,24.126 32.932,25.863 30.769,26.156 Z"/>
	</g>

	<g viewBox="0 0 19 20" id="search">
		<path fill-rule="evenodd" clip-rule="evenodd" d="M14.8202 14.1162L18.6959 18.1001C19.1176 18.5493 19.0975 19.2646 18.6558 19.6733C18.475 19.8774 18.1938 20 17.8926 20C17.6115 20 17.3303 19.8774 17.1295 19.6733L13.1936 15.6079C11.7878 16.5884 10.1411 17.1196 8.41418 17.1196C3.77527 17.1196 0 13.2788 0 8.55957C0 3.84082 3.77527 0 8.41418 0C13.053 0 16.8484 3.84082 16.8282 8.58008C16.8282 10.6025 16.1255 12.564 14.8202 14.1162ZM2.18884 8.58008C2.18884 12.0732 4.98022 14.9131 8.41406 14.9131C11.848 14.9131 14.6394 12.0532 14.6394 8.58008C14.6394 5.08691 11.848 2.24707 8.41406 2.24707C4.98022 2.24707 2.18884 5.08691 2.18884 8.58008Z" />
	</g>

	<g viewBox="0 0 18 16" id="likes">
		<path d="M5.31117 15.454C5.29732 14.2596 5.29697 13.0644 5.29628 11.87C5.29558 10.6755 5.29835 9.48035 5.31117 8.28589C5.31117 8.44555 5.31359 7.68953 5.32571 7.19775C3.85085 7.19775 2.37599 7.19775 0.901126 7.19775C0.526753 7.19775 0.237229 7.33282 0.0734199 7.68503C0.0470996 7.73975 0.0242424 7.79723 0 7.85472V15.3948C0.0692641 15.5146 0.122597 15.6476 0.20987 15.7515C0.353593 15.9216 0.554113 15.9939 0.776104 15.9939C2.28918 15.9939 3.8026 15.9981 5.31602 15.9922C5.31325 15.7332 5.31186 15.5091 5.31117 15.454Z" />
		<path d="M17.6821 7.08276C17.5671 6.63255 17.3178 6.2793 16.8714 6.12207C16.6389 6.04549 16.3955 6.00724 16.1507 6.00882C14.8513 5.99878 13.5516 6.00501 12.2522 6.00536C12.0852 6.00536 12.079 5.99497 12.1057 5.83393C12.1864 5.35982 12.2549 4.88363 12.3481 4.41159C12.4742 3.77263 12.4901 3.13852 12.2771 2.51757C12.0852 1.9593 11.8678 1.40934 11.6596 0.857309C11.5429 0.545621 11.3455 0.317396 11.0303 0.185101C10.4343 -0.0656347 9.84663 -0.0607862 9.27589 0.237742C8.91087 0.428564 8.69719 0.73298 8.70896 1.16692C8.72559 1.77783 8.73009 2.38943 8.75502 2.99999C8.76647 3.19684 8.71935 3.39267 8.61961 3.56276C8.14827 4.37211 7.69217 5.19047 7.1997 5.98701C6.94515 6.3974 6.62585 6.76796 6.32767 7.1503C6.31704 7.16392 6.3055 7.17708 6.29303 7.18978C6.29303 7.74089 6.29303 8.292 6.29303 8.84311C6.29303 10.9291 6.28703 13.0152 6.27502 15.1015C6.67849 15.3564 7.1107 15.4724 7.59831 15.4696C9.81719 15.4564 12.0361 15.4637 14.2546 15.4637C14.6404 15.4637 15.0217 15.4402 15.3936 15.3183C16.1323 15.0758 16.5964 14.5037 16.6549 13.7304C16.6774 13.4364 16.6639 13.1451 16.558 12.8629C16.5431 12.8234 16.568 12.7534 16.5971 12.7146C16.8891 12.325 17.0629 11.8938 17.0317 11.4017C17.0213 11.232 16.968 11.063 16.9157 10.8996C16.888 10.8116 16.8884 10.7531 16.9479 10.6783C17.225 10.3288 17.3943 9.93194 17.3808 9.48346C17.3746 9.27185 17.2963 9.06268 17.2565 8.85177C17.2468 8.8012 17.2388 8.72744 17.2662 8.69696C17.5052 8.43064 17.6381 8.11688 17.706 7.77056C17.7117 7.75751 17.7199 7.74573 17.7303 7.73592V7.24761C17.715 7.19255 17.697 7.13818 17.6821 7.08276Z" />
	</g>


	<g viewBox="0 0 19 19" id="subscribe">
		<path id="Shape" fill-rule="evenodd" clip-rule="evenodd" d="M9.08744 1.65217C4.98706 1.65217 1.65217 4.98706 1.65217 9.08647C1.65217 13.1859 4.98706 16.5217 9.08744 16.5217C9.1033 16.5217 9.18381 16.5444 9.32897 16.5897C9.66748 16.6953 9.89801 17.0088 9.89801 17.3634C9.89801 17.811 9.53512 18.1739 9.08748 18.1739C4.0765 18.1739 0 14.0982 0 9.08696C0 4.07673 4.0765 0 9.08748 0C14.0974 0 18.1739 4.07673 18.1739 9.08696C18.1739 9.11224 18.1725 9.13905 18.1697 9.16736C18.1281 9.59016 17.7725 9.91243 17.3477 9.91243C16.8915 9.91243 16.5217 9.54264 16.5217 9.08647C16.5217 4.98706 13.1869 1.65217 9.08744 1.65217ZM14.0435 14.0435V11.5652C14.0435 11.109 14.4133 10.7391 14.8696 10.7391C15.3258 10.7391 15.6957 11.109 15.6957 11.5652V14.0435H18.1739C18.6301 14.0435 19 14.4133 19 14.8696C19 15.3258 18.6301 15.6957 18.1739 15.6957H15.6957V18.1739C15.6957 18.6301 15.3258 19 14.8696 19C14.4133 19 14.0435 18.6301 14.0435 18.1739V15.6957H11.5652C11.109 15.6957 10.7391 15.3258 10.7391 14.8696C10.7391 14.4133 11.109 14.0435 11.5652 14.0435H14.0435ZM12.3913 9.0868C12.3913 8.88204 12.2981 8.69482 12.1422 8.58756L8.24668 5.87493C8.07821 5.75889 7.87478 5.75207 7.70093 5.85543C7.53157 5.95586 7.43478 6.146 7.43478 6.37514V11.7985C7.43478 12.0286 7.53157 12.2177 7.70183 12.3191C7.76546 12.3572 7.83894 12.3913 7.94558 12.3913C8.04953 12.3913 8.15169 12.3591 8.23862 12.2987L12.1377 9.58701C12.2963 9.47683 12.3913 9.28961 12.3913 9.0868Z" />
	</g>

	<g viewBox="0 0 19 19" id="unsubscribe">
		<path id="Shape" fill-rule="evenodd" clip-rule="evenodd" d="M9.08744 1.65217C4.98706 1.65217 1.65217 4.98706 1.65217 9.08647C1.65217 13.1859 4.98706 16.5217 9.08744 16.5217C9.1033 16.5217 9.18381 16.5444 9.32897 16.5897C9.66748 16.6953 9.89801 17.0088 9.89801 17.3634C9.89801 17.811 9.53512 18.1739 9.08748 18.1739C4.0765 18.1739 0 14.0982 0 9.08696C0 4.07673 4.0765 0 9.08748 0C14.0974 0 18.1739 4.07673 18.1739 9.08696C18.1739 9.11224 18.1725 9.13905 18.1697 9.16736C18.1281 9.59016 17.7725 9.91243 17.3477 9.91243C16.8915 9.91243 16.5217 9.54264 16.5217 9.08647C16.5217 4.98706 13.1869 1.65217 9.08744 1.65217ZM14.0435 13.0435H15.6957H18.1739C18.6301 13.0435 19 13.4133 19 13.8696C19 14.3258 18.6301 14.6957 18.1739 14.6957H15.6957H14.0435H11.5652C11.109 14.6957 10.7391 14.3258 10.7391 13.8696C10.7391 13.4133 11.109 13.0435 11.5652 13.0435H14.0435ZM12.3913 9.0868C12.3913 8.88204 12.2981 8.69482 12.1422 8.58756L8.24668 5.87493C8.07821 5.75889 7.87478 5.75207 7.70093 5.85543C7.53157 5.95586 7.43478 6.146 7.43478 6.37514V11.7985C7.43478 12.0286 7.53157 12.2177 7.70183 12.3191C7.76546 12.3572 7.83894 12.3913 7.94558 12.3913C8.04953 12.3913 8.15169 12.3591 8.23862 12.2987L12.1377 9.58701C12.2963 9.47683 12.3913 9.28961 12.3913 9.0868Z" />
	</g>




	<g viewBox="0 0 18 16" id="comments">
		<path fill-rule="evenodd" clip-rule="evenodd" d="M7.42038 0.0981445C3.37092 0.0981445 0.0880127 2.37014 0.0880127 5.17378C0.0880127 5.27924 0.0931036 5.38396 0.101831 5.48869C0.25674 7.23778 1.69019 8.7476 3.76438 9.57524C4.01238 12.08 2.35129 13.0763 2.35129 13.0763C5.07347 12.5316 6.87638 11.3301 8.0131 10.2327C11.7847 10.024 14.7527 7.83851 14.7527 5.17305C14.7527 2.36942 11.4698 0.0981445 7.42038 0.0981445ZM15.7608 4.82812C15.8822 5.19394 15.947 5.57649 15.947 5.96922C15.947 8.63467 12.9797 10.8201 9.20659 11.0289C8.6495 11.5663 7.93168 12.1299 7.02405 12.6281C7.77241 12.8623 8.58696 13.0114 9.44296 13.0587C10.5797 14.1554 12.3811 15.3569 15.1048 15.9016C15.1048 15.9016 13.443 14.9045 13.691 12.3998C15.8873 11.5234 17.3666 9.87976 17.3666 7.99903C17.3666 6.79976 16.7659 5.69649 15.7608 4.82812Z" />
	</g>

	<g opacity="0.5" viewBox="0 0 17 16" id="megaphone">
		<path d="M12.0415 0.052788L6.77197 3.40413C6.73103 3.41673 6.66803 3.43563 6.62709 3.44507H0.837835C0.374821 3.44507 0 3.8199 0 4.28291V9.30362C0 9.76663 0.374821 10.1415 0.837835 10.1415H1.42684C1.57488 10.1415 1.70402 10.2391 1.74811 10.3777L3.38914 15.7575C3.43008 15.9024 3.56237 16 3.71041 16H6.36251C6.58614 16 6.74678 15.7858 6.68378 15.5748L5.15615 10.5761C5.09 10.3619 5.25064 10.1446 5.47742 10.1446H6.61134C6.67118 10.1635 6.72788 10.1793 6.78772 10.195L12.0415 13.5337C12.2651 13.6755 12.5549 13.5148 12.5549 13.2503V0.333116C12.5549 0.0716865 12.262 -0.088951 12.0415 0.052788Z" fill="#CDD0D2"/>
		<path fill-rule="evenodd" clip-rule="evenodd" d="M14.06 9.55159C14.1951 10.7005 16.6263 9.56913 16.6263 6.98533C16.6263 4.40153 14.06 3.33855 14.06 4.41908C14.06 5.49961 13.925 8.40264 14.06 9.55159Z" fill="#CDD0D2"/>
	</g>

	<g viewBox="0 0 14 16" id="alarm">
		<path fill-rule="evenodd" clip-rule="evenodd" d="M0.958713 13.6629C-0.299714 13.6629 -0.299714 11.8052 0.958713 11.8052C1.97744 11.8052 2.03736 8.20974 2.03736 6.95131C2.03736 3.95506 3.83512 2.21723 5.87257 1.79775C5.51302 0.958802 6.11227 0 7.01115 0C7.91002 0 8.50927 0.958802 8.14972 1.79775C10.1872 2.21723 11.9849 3.95506 11.9849 6.95131C11.9849 8.20974 12.0449 11.8052 13.0636 11.8052C14.322 11.8052 14.322 13.6629 13.0636 13.6629H0.958713Z" />
		<path fill-rule="evenodd" clip-rule="evenodd" d="M8.08995 14.0825C8.56935 14.9215 7.9701 16.0001 7.01129 16.0001C6.05249 16.0001 5.45324 14.9215 5.93264 14.0825H8.08995Z" />
	</g>

	<g id="loading" stroke="none" stroke-width="1" fill="none" fill-rule="evenodd" opacity="0.5">
     <path d="M6.6,15.4 C8.3,17 10.5,18 13,18 C18,18 22,14 22,9 M19.4,2.6 C17.7,1 15.5,0 13,0 C8,0 4,4 4,9" id="Shape" stroke="#AAB1B8" stroke-width="2" stroke-linejoin="round"></path>
     <polygon id="Shape" fill="#AAB1B8" fill-rule="nonzero" points="18 9 26 9 22 5"></polygon>
     <polygon id="Shape" fill="#AAB1B8" fill-rule="nonzero" points="0 9 4 13 8 9"></polygon>         
    </g>
	<g opacity="0.7" viewBox="0 0 18 20" id="notifications">
		<path fill-rule="evenodd" clip-rule="evenodd" d="M1.19833 17.0787C-0.374704 17.0787 -0.374704 14.7566 1.19833 14.7566C2.47174 14.7566 2.54664 10.2622 2.54664 8.68914C2.54664 4.94382 4.79384 2.77154 7.34065 2.24719C6.89121 1.1985 7.64028 0 8.76387 0C9.88747 0 10.6365 1.1985 10.1871 2.24719C12.7339 2.77154 14.9811 4.94382 14.9811 8.68914C14.9811 10.2622 15.056 14.7566 16.3294 14.7566C17.9025 14.7566 17.9025 17.0787 16.3294 17.0787H1.19833Z" />
		<path fill-rule="evenodd" clip-rule="evenodd" d="M10.1126 17.603C10.7119 18.6517 9.9628 20 8.7643 20C7.5658 20 6.81673 18.6517 7.41599 17.603H10.1126Z" />
	</g>

	<g opacity="0.7" viewBox="0 0 20 14" id="my-channel">
		<path fill-rule="evenodd" clip-rule="evenodd" d="M2.5459 13.8179L3.81836 12.5454C2.5459 11.1816 1.81836 9.27246 1.81836 7.27246C1.81836 5.27246 2.5459 3.36328 3.72754 1.90918L2.4541 0.63623C0.90918 2.45459 0 4.72705 0 7.27246C0 9.81787 0.90918 12.0908 2.5459 13.8179ZM17.5449 13.9087L16.2725 12.6362C17.4541 11.1816 18.2725 9.36328 18.2725 7.36328C18.2725 5.36328 17.5449 3.4541 16.2725 2.09082L17.5449 0.817871C19.0908 2.4541 20 4.72705 20 7.27246C20 9.81787 19.0908 12.0908 17.5449 13.9087ZM3.63672 7.27295C3.63672 3.72754 6.45508 0.90918 10 0.90918C13.5459 0.90918 16.3643 3.72754 16.3643 7.27295C16.3643 10.8184 13.5459 13.6362 10 13.6362C6.45508 13.6362 3.63672 10.8184 3.63672 7.27295ZM13.1816 7.27246L8.18164 3.63623V10.9092L13.1816 7.27246Z" fill="white"/>
	</g>
	<g opacity="0.7" viewBox="0 0 15 14" id="wallet">
		<path fill-rule="evenodd" clip-rule="evenodd" d="M0 11.2983C0 12.7905 1.20996 14 2.70215 14H13.0176C13.9668 14 14.7373 13.2305 14.7373 12.2808V4.17529C14.7373 3.22607 13.9668 2.45605 13.0176 2.45605H11.5439V1.22803C11.5439 0.549805 10.9941 0 10.3154 0H1.96484C0.879883 0 0 0.879883 0 1.96484V11.2983ZM11.4531 7.33691H13.1406V9.36279H11.4531C11.0791 9.38135 10.7256 9.19238 10.5332 8.87158C10.3408 8.55029 10.3408 8.14941 10.5332 7.82812C10.7256 7.50732 11.0791 7.31836 11.4531 7.33691ZM10.0703 1.47363H1.96484C1.69336 1.47363 1.47363 1.69336 1.47363 1.96484C1.47363 2.23633 1.69336 2.45605 1.96484 2.45605H10.0703V1.47363Z" fill="white"/>
	</g>
	<g opacity="0.7" viewBox="0 0 13 14" id="overlays">
		<path d="M6.60572 7.7415V7.7415C6.64726 7.76383 6.6934 7.77625 6.74054 7.7778C6.78802 7.77881 6.8348 7.76622 6.87535 7.7415L12.8383 4.11187C12.9145 4.06331 12.9606 3.97923 12.9606 3.88891C12.9606 3.79859 12.9145 3.71451 12.8383 3.66595L6.87535 0.0363166C6.79165 -0.0108035 6.68942 -0.0108035 6.60572 0.0363166L0.642761 3.66595C0.566607 3.71451 0.520508 3.79859 0.520508 3.88891C0.520508 3.97923 0.566607 4.06331 0.642761 4.11187L6.60572 7.7415Z" fill="white"/>
		<path d="M11.7753 6.14453L7.14488 8.96009C6.89679 9.11251 6.58408 9.11251 6.33599 8.96009L1.70562 6.14453L0.668584 6.79268C0.592306 6.83995 0.545898 6.92331 0.545898 7.01305C0.545898 7.10279 0.592306 7.18615 0.668584 7.23342L6.63155 10.863C6.71497 10.9112 6.81775 10.9112 6.90118 10.863L12.8641 7.23342C12.9404 7.18615 12.9868 7.10279 12.9868 7.01305C12.9868 6.92331 12.9404 6.83995 12.8641 6.79268L11.7753 6.14453Z" fill="white"/>
		<path d="M11.7966 9.25537L7.12996 12.0865C6.87998 12.2321 6.57106 12.2321 6.32107 12.0865L1.65441 9.25537L0.61737 9.88796C0.541216 9.93653 0.495117 10.0206 0.495117 10.1109C0.495117 10.2012 0.541216 10.2853 0.61737 10.3339L6.58033 13.9635C6.66376 14.0117 6.76654 14.0117 6.84996 13.9635L12.8129 10.3339C12.8891 10.2853 12.9352 10.2012 12.9352 10.1109C12.9352 10.0206 12.8891 9.93653 12.8129 9.88796L11.7966 9.25537Z" fill="white"/>
	</g>
	<g opacity="0.7" viewBox="0 0 14 14" id="settings">
		<path fill-rule="evenodd" clip-rule="evenodd" d="M13.7529 4.69971C12.4756 5.43408 12.0342 7.06445 12.7666 8.34326C12.9209 8.61182 13.1211 8.84961 13.3564 9.04736C13.4766 9.14844 13.6064 9.23877 13.7432 9.31689L12.3672 11.6997C11.0928 10.9653 9.46484 11.3994 8.72461 12.6709C8.58984 12.9038 8.49219 13.1548 8.43359 13.415C8.39062 13.606 8.36914 13.8022 8.36914 14H5.61816C5.61523 12.5308 4.42578 11.3394 2.95605 11.335C2.4707 11.335 2.0166 11.4653 1.62402 11.6934L0.249023 9.31104C1.52148 8.57422 1.95996 6.94727 1.22852 5.6709C0.995117 5.2627 0.655273 4.92529 0.246094 4.69336L1.62207 2.31104C2.90234 3.04785 4.53613 2.61523 5.27051 1.34326C5.40918 1.104 5.50879 0.845703 5.56641 0.578125C5.60742 0.38916 5.62793 0.195312 5.62598 0H8.37793C8.375 0.708496 8.6543 1.38867 9.15332 1.89111C9.65234 2.39355 10.3311 2.67676 11.0391 2.6792C11.5098 2.67969 11.9717 2.55469 12.377 2.31689L13.7529 4.69971ZM4.16504 7C4.16504 8.56592 5.43457 9.83496 7 9.83496C8.56543 9.83496 9.83496 8.56592 9.83496 7C9.83496 5.43408 8.56543 4.16504 7 4.16504C5.43457 4.16504 4.16504 5.43408 4.16504 7Z" fill="white"/>
	</g>
	<g opacity="0.7" viewBox="0 0 15 16" id="exit">
		<path fill-rule="evenodd" clip-rule="evenodd" d="M11 13V9H10V12H6V3L2 1H10V5H11V0H0V13L6 16V13H11ZM7 8H12V10L15 7L12 4V6H7V8Z" fill="white"/>
	</g>
	<g viewBox="0 0 11 16" id="arrow-get">
		<path d="M5.96096 12.2926L10.7294 7.55982C10.9681 7.32352 10.969 6.93889 10.7327 6.70016C10.4964 6.46184 10.1113 6.46022 9.873 6.69692L6.0631 10.4784L6.0631 0.607963C6.0631 0.272368 5.79073 0 5.45514 0C5.11954 0 4.84718 0.272368 4.84718 0.607963L4.84718 10.4995L1.0393 6.66449C0.8026 6.42617 0.417962 6.42455 0.179641 6.66125C0.0596694 6.78 8.86917e-05 6.93645 8.86917e-05 7.0925C8.86917e-05 7.24733 0.059264 7.40256 0.176804 7.52091L5.00565 12.3846C5.03362 12.4126 5.06847 12.4268 5.10009 12.4478C5.11103 12.4559 5.12238 12.4632 5.13413 12.4705C5.17588 12.4953 5.21641 12.5163 5.26181 12.5297C5.31004 12.5459 5.3607 12.5561 5.41339 12.5597C5.44622 12.563 5.45028 12.5642 5.45473 12.5642C5.6659 12.5646 5.85194 12.4564 5.96096 12.2926Z" />
		<rect x="0.36377" y="14.5454" width="10.1818" height="1.45455" />
	</g>
	<g viewBox="0 0 11 16" id="arrow-put">
		<path d="M5.96096 0.271356L10.7294 5.00415C10.9681 5.24044 10.969 5.62508 10.7327 5.86381C10.4964 6.10213 10.1113 6.10375 9.873 5.86705L6.0631 2.08552L6.0631 11.956C6.0631 12.2916 5.79073 12.564 5.45514 12.564C5.11954 12.564 4.84718 12.2916 4.84718 11.956L4.84718 2.06444L1.0393 5.89947C0.8026 6.13779 0.417962 6.13942 0.179641 5.90272C0.0596694 5.78396 8.86917e-05 5.62751 8.86917e-05 5.47147C8.86917e-05 5.31664 0.059264 5.16141 0.176804 5.04306L5.00565 0.179351C5.03362 0.151385 5.06847 0.137198 5.10009 0.116122C5.11103 0.108016 5.12238 0.10072 5.13413 0.0934248C5.17588 0.068701 5.21641 0.0476254 5.26181 0.0342503C5.31004 0.0180379 5.3607 0.00790498 5.41339 0.0042572C5.44622 0.00101473 5.45028 -0.000201225 5.45473 -0.000201225C5.6659 -0.000606534 5.85194 0.107611 5.96096 0.271356Z" />
		<rect x="0.36377" y="14.5454" width="10.1818" height="1.45455" />
	</g>
	<g viewBox="0 0 28 24" id="arrow-add">
		<path d="M23.7056 9.67609L23.6672 17.0001C23.6657 17.3663 23.3672 17.6661 23.001 17.6712C22.6351 17.6761 22.3397 17.3832 22.3417 17.017L22.3726 11.1652L14.6951 18.8426C14.4341 19.1037 14.0142 19.1075 13.7578 18.8511C13.5015 18.5947 13.5052 18.1748 13.7663 17.9138L21.4601 10.2199L15.5682 10.2939C15.202 10.2985 14.9069 10.0059 14.909 9.63975C14.9097 9.45573 14.9859 9.28852 15.1072 9.16715C15.2277 9.04672 15.3936 8.97119 15.5754 8.96892L23.0474 8.87474C23.0905 8.87435 23.1282 8.88995 23.1687 8.8977C23.1834 8.89976 23.1977 8.90275 23.2124 8.90606C23.2635 8.91872 23.3109 8.93329 23.356 8.95756C23.4054 8.9818 23.452 9.01262 23.4951 9.05003C23.5227 9.07259 23.5267 9.07474 23.5301 9.07815C23.6918 9.23915 23.7497 9.46544 23.7056 9.67609Z" />
		<path d="M4.78166 14.3239L4.82015 6.9999C4.82158 6.63374 5.12013 6.33394 5.48633 6.32877C5.85222 6.32391 6.14762 6.61679 6.14557 6.98296L6.11472 12.8348L13.7922 5.15736C14.0532 4.89633 14.4731 4.89254 14.7295 5.14892C14.9859 5.40529 14.9821 5.82521 14.721 6.08624L7.02721 13.7801L12.9191 13.7061C13.2853 13.7015 13.5804 13.9941 13.5783 14.3603C13.5776 14.5443 13.5015 14.7115 13.3801 14.8328C13.2596 14.9533 13.0937 15.0288 12.9119 15.0311L5.43989 15.1253C5.39677 15.1256 5.35911 15.1101 5.31857 15.1023C5.3039 15.1002 5.28956 15.0972 5.2749 15.0939C5.22378 15.0813 5.17642 15.0667 5.13134 15.0424C5.08189 15.0182 5.0353 14.9874 4.99221 14.95C4.96461 14.9274 4.96057 14.9253 4.95716 14.9219C4.79553 14.7609 4.73759 14.5346 4.78166 14.3239Z" />
	</g>
	<g viewBox="0 0 8 12" id="arrow-more">
		<path d="M2.25 2.25L5.75 5.75" stroke-width="2" stroke-linecap="square"/>
		<path d="M2.25 9.75L5.75 6.25" stroke-width="2" stroke-linecap="square"/>
	</g>
	
	<g viewBox="0 0 20 20" id="share">
		<path d="M3.52945 13.5293C4.48076 13.5293 5.34265 13.1512 5.97725 12.5392L12.9707 16.036C12.9533 16.1785 12.9413 16.323 12.9413 16.4705C12.9413 18.4197 14.5216 20 16.4708 20C18.42 20 20.0002 18.4197 20.0002 16.4705C20.0002 14.5213 18.42 12.9411 16.4708 12.9411C15.5195 12.9411 14.6576 13.3195 14.023 13.9315L7.02949 10.4345C7.04691 10.2919 7.05891 10.1474 7.05891 9.99988C7.05891 9.85235 7.04691 9.70788 7.02949 9.56529L14.023 6.06854C14.6578 6.68055 15.5195 7.05891 16.4708 7.05891C18.42 7.05891 20.0002 5.47865 20.0002 3.52945C20.0002 1.58025 18.42 0 16.4708 0C14.5216 0 12.9413 1.58025 12.9413 3.52945C12.9413 3.67698 12.9533 3.82146 12.9707 3.96428L5.97725 7.46056C5.34265 6.84855 4.48076 6.47043 3.52945 6.47043C1.58025 6.47043 0 8.05068 0 9.99988C0 11.9491 1.58025 13.5293 3.52945 13.5293Z" />
	</g>
	<g viewBox="0 0 10 7" id="up">
		<path d="M2 5.42857L5.08897 2.3396" stroke="#A6ACB3" stroke-width="2" stroke-linecap="square"/>
		<path d="M8.28613 5.42857L5.19716 2.3396" stroke="#A6ACB3" stroke-width="2" stroke-linecap="square"/>
	</g>
	<g viewBox="0 0 10 7" id="down">
		<path d="M2 1.57143L5.08897 4.6604" stroke="#A6ACB3" stroke-width="2" stroke-linecap="square"/>
		<path d="M8.28613 1.57143L5.19716 4.6604" stroke="#A6ACB3" stroke-width="2" stroke-linecap="square"/>
	</g>

	<g viewBox="0 0 16 16" id="link">
		<path fill-rule="evenodd" clip-rule="evenodd" d="M6.2627 9.73633C6.42529 9.89844 6.63818 9.98047 6.85107 9.98047C7.06445 9.98047 7.27734 9.89844 7.43994 9.73633C7.76514 9.41113 7.76514 8.88477 7.43994 8.55957C6.56641 7.68652 6.56641 6.26465 7.43994 5.3916L10.5122 2.32031C10.9355 1.89648 11.498 1.66406 12.0967 1.66406C12.6953 1.66406 13.2578 1.89648 13.6812 2.32031C14.5547 3.19336 14.5547 4.61426 13.6812 5.4873L12.2769 6.8916C11.9517 7.2168 11.9517 7.74316 12.2769 8.06836C12.6016 8.39355 13.1284 8.39355 13.4536 8.06836L14.8579 6.66406C16.3804 5.1416 16.3804 2.66504 14.8579 1.14355C14.1201 0.40625 13.1401 0 12.0967 0C11.0537 0 10.0728 0.40625 9.33545 1.14355L6.2627 4.21582C4.74072 5.7373 4.74072 8.21387 6.2627 9.73633ZM2.68066 15.8047C3.06982 15.9326 3.48145 15.999 3.90283 15.999C4.94629 16 5.92676 15.5938 6.66406 14.8564L9.73682 11.7842C11.2593 10.2617 11.2593 7.78516 9.73682 6.26367C9.41162 5.93848 8.88525 5.93848 8.56006 6.26367C8.23486 6.58789 8.23486 7.11523 8.56006 7.44043C9.43359 8.31348 9.43359 9.73438 8.56006 10.6074L5.4873 13.6797C5.06445 14.1025 4.50146 14.3359 3.90283 14.3359C3.30469 14.3359 2.7417 14.1025 2.31885 13.6797C1.44531 12.8066 1.44531 11.3848 2.31885 10.5117L3.72314 9.10742C4.04834 8.7832 4.04834 8.25586 3.72314 7.93066C3.39795 7.60645 2.87109 7.60645 2.54639 7.93066L1.1416 9.33496C-0.380371 10.8574 -0.380371 13.334 1.1416 14.8564C1.58105 15.2959 2.10693 15.6172 2.68066 15.8047Z" />
	</g>

	<g viewBox="0 0 33 17" id="double-arrow">
		<path d="M24.522 9H8.52197" stroke="#AAB1B8" stroke-width="2"/>
		<path fill-rule="evenodd" clip-rule="evenodd" d="M25 14.5317V3C27.1672 4.97353 29.2927 6.89145 31.4778 8.80361C30.2506 9.87704 29.0427 10.9496 27.838 12.0193L27.836 12.0211C26.892 12.8594 25.9499 13.6959 25 14.5317Z" stroke="#AAB1B8" stroke-width="2"/>
		<path fill-rule="evenodd" clip-rule="evenodd" d="M8.47803 14.5317V3C6.31084 4.97353 4.18537 6.89145 2.00018 8.80361C3.22746 9.87704 4.43533 10.9496 5.63999 12.0193L5.64202 12.0211C6.58603 12.8594 7.52808 13.6959 8.47803 14.5317Z" stroke="#AAB1B8" stroke-width="2"/>
	</g>

	<g viewBox="0 0 12 20" opacity="0.5" id="arrow-prev">
		<path d="M9.78378 2.21622L2.18847 9.81153" stroke="#AAB1B8" stroke-width="2" stroke-linecap="square"/>
		<path d="M9.78378 17.7838L2.18847 10.1885" stroke="#AAB1B8" stroke-width="2" stroke-linecap="square"/>
	</g>

	<g viewBox="0 0 12 20" opacity="0.5" id="arrow-next">
		<path d="M2.21622 2.21622L9.81153 9.81153" stroke="#AAB1B8" stroke-width="2" stroke-linecap="square"/>
		<path d="M2.21622 17.7838L9.81153 10.1885" stroke="#AAB1B8" stroke-width="2" stroke-linecap="square"/>
	</g>

	<g viewBox="0 0 23 20" id="undo">
		<path d="M15.1842 5.97659H3.55847L8.69881 1.29824L7.52922 0L0 6.83917L7.51753 13.6725L8.68712 12.3742L3.58771 7.73098H15.1842C17.144 7.6001 19.0136 8.57142 20.0333 10.2502C21.0529 11.929 21.0529 14.0359 20.0333 15.7147C19.0136 17.3934 17.144 18.3647 15.1842 18.2339H11.383V19.9883H15.1842C17.7837 20.1385 20.2528 18.8371 21.5979 16.6075C22.943 14.378 22.943 11.5869 21.5979 9.35735C20.2528 7.12779 17.7837 5.82632 15.1842 5.97659Z"/>
	</g>

	<g viewBox="0 0 23 20" id="redo">
		<path d="M7.42276 5.97659H19.0485L13.9081 1.29824L15.0777 0L22.6069 6.83917L15.0894 13.6725L13.9198 12.3742L19.0192 7.73098H7.42276C5.46294 7.6001 3.59332 8.57142 2.57367 10.2502C1.55402 11.929 1.55402 14.0359 2.57367 15.7147C3.59332 17.3934 5.46294 18.3647 7.42276 18.2339H11.2239V19.9883H7.42276C4.82321 20.1385 2.35417 18.8371 1.00907 16.6075C-0.336037 14.378 -0.336037 11.5869 1.00907 9.35735C2.35417 7.12779 4.82321 5.82632 7.42276 5.97659Z" />
	</g>

	<g viewBox="0 0 20 20" id="zoomin">
		<path id="Shape" fill-rule="evenodd" clip-rule="evenodd" d="M13.8107 2.1525C17.0732 5.09737 17.4562 10.0821 14.6819 13.4908L19.543 18.3519C19.872 18.6809 19.872 19.2144 19.543 19.5435C19.2139 19.8725 18.6805 19.8725 18.3514 19.5435L13.4904 14.6824C10.0816 17.4567 5.09689 17.0737 2.15202 13.8112C-0.792855 10.5487 -0.665071 5.55091 2.44267 2.44316C5.55042 -0.664583 10.5482 -0.792367 13.8107 2.1525ZM2.18408 5.74984C1.16492 8.21082 1.72868 11.0434 3.61246 12.9266C4.84155 14.1721 6.51842 14.8732 8.26825 14.8732C10.0181 14.8732 11.695 14.1721 12.924 12.9266C14.8078 11.0434 15.3716 8.21082 14.3524 5.74984C13.3333 3.28885 10.9319 1.68419 8.26825 1.68419C5.60458 1.68419 3.20323 3.28885 2.18408 5.74984Z" />
		<path id="Shape_2" d="M12.0587 7.42815H9.11138V4.48078C9.11138 4.0157 8.73436 3.63867 8.26927 3.63867C7.80419 3.63867 7.42717 4.0157 7.42717 4.48078V7.42815H4.4798C4.01472 7.42815 3.6377 7.80517 3.6377 8.27025C3.6377 8.73533 4.01472 9.11236 4.4798 9.11236H7.42717V12.0597C7.42717 12.5248 7.80419 12.9018 8.26927 12.9018C8.73436 12.9018 9.11138 12.5248 9.11138 12.0597V9.11236H12.0587C12.5238 9.11236 12.9009 8.73533 12.9009 8.27025C12.9009 7.80517 12.5238 7.42815 12.0587 7.42815Z" />
	</g>

	<g viewBox="0 0 20 20" id="zoomout">
		<path id="Shape" fill-rule="evenodd" clip-rule="evenodd" d="M13.8107 2.1525C17.0732 5.09737 17.4562 10.0821 14.6819 13.4908L19.543 18.3519C19.872 18.6809 19.872 19.2144 19.543 19.5435C19.2139 19.8725 18.6805 19.8725 18.3514 19.5435L13.4904 14.6824C10.0816 17.4567 5.09689 17.0737 2.15202 13.8112C-0.792855 10.5487 -0.665071 5.55091 2.44267 2.44316C5.55042 -0.664583 10.5482 -0.792367 13.8107 2.1525ZM2.18408 5.74984C1.16492 8.21082 1.72868 11.0434 3.61246 12.9266C4.84155 14.1721 6.51842 14.8732 8.26825 14.8732C10.0181 14.8732 11.695 14.1721 12.924 12.9266C14.8078 11.0434 15.3716 8.21082 14.3524 5.74984C13.3333 3.28885 10.9319 1.68419 8.26825 1.68419C5.60458 1.68419 3.20323 3.28885 2.18408 5.74984Z" />
		<path id="Shape_2" d="M12.0587 7.42773H9.11138H7.42717H4.4798C4.01472 7.42773 3.6377 7.80476 3.6377 8.26984C3.6377 8.73492 4.01472 9.11194 4.4798 9.11194H7.42717H9.11138H12.0587C12.5238 9.11194 12.9009 8.73492 12.9009 8.26984C12.9009 7.80476 12.5238 7.42773 12.0587 7.42773Z" />
	</g>

	<g viewBox="0 0 22 22" id="fullscreen">
		<path fill-rule="evenodd" clip-rule="evenodd" d="M19.4053 5.78516C19.4053 6.11523 19.668 6.38281 19.9932 6.38477C20.3179 6.38477 20.5806 6.11719 20.5801 5.78711L20.9893 1.59961C20.9893 1.43359 20.9233 1.28516 20.8159 1.17578C20.709 1.06641 20.5625 1 20.3994 1L16.3008 1.41602C16.0918 1.41602 15.9082 1.52734 15.8042 1.69531C15.7466 1.78711 15.7134 1.89648 15.7139 2.01367C15.7134 2.22266 15.8184 2.40625 15.978 2.51367C16.0708 2.57617 16.1816 2.61133 16.3013 2.61133L18.8735 2.3125L12.5811 8.70898C12.3535 8.94141 12.354 9.31641 12.5811 9.54688C12.8086 9.77734 13.1772 9.77734 13.4048 9.54688L19.6978 3.15039L19.4053 5.78516ZM5.68799 19.3789L3.11523 19.6758L9.4082 13.2812C9.55029 13.1367 9.60352 12.9375 9.56787 12.75C9.54639 12.6387 9.49316 12.5312 9.4082 12.4453C9.18066 12.2148 8.81201 12.2129 8.58447 12.4453L2.29199 18.8379L2.58447 16.2051C2.58398 15.875 2.32129 15.6074 1.99609 15.6074C1.67139 15.6074 1.40869 15.873 1.40918 16.2031L1 20.3887C1 20.5547 1.06592 20.7031 1.17334 20.8125C1.21582 20.8555 1.26416 20.8926 1.31787 20.9219C1.36279 20.9453 1.41113 20.9629 1.46191 20.9746C1.50293 20.9844 1.5459 20.9883 1.58984 20.9883L5.68848 20.5723C6.0127 20.5723 6.27637 20.3047 6.27539 19.9746C6.27539 19.8379 6.22998 19.7109 6.15381 19.6094C6.09375 19.5312 6.01465 19.4688 5.92334 19.4277C5.85107 19.3965 5.77148 19.3789 5.68799 19.3789ZM8.58447 9.54492L2.2915 3.15039L2.58398 5.78516C2.58398 6.11523 2.32129 6.38086 1.99609 6.38281C1.67139 6.38281 1.40869 6.11523 1.40869 5.78711L1 1.59961C1 1.43359 1.06592 1.28516 1.17334 1.17578C1.2251 1.12305 1.28613 1.08008 1.354 1.05078C1.42627 1.01758 1.50586 1 1.58984 1L5.68848 1.41602C6.0127 1.41602 6.27637 1.68359 6.27539 2.01367C6.27588 2.34375 6.01318 2.61133 5.68799 2.60938L3.11523 2.3125L9.4082 8.70703C9.63525 8.93945 9.63525 9.31445 9.40771 9.54492C9.18066 9.77539 8.81152 9.77734 8.58447 9.54492ZM19.6973 18.8379L13.4048 12.4434C13.1772 12.2109 12.8086 12.2109 12.5806 12.4434C12.3535 12.6738 12.353 13.0488 12.5806 13.2793L18.873 19.6758L16.3008 19.3789C16.1958 19.3789 16.0972 19.4062 16.0117 19.4551C15.833 19.5566 15.7129 19.752 15.7134 19.9746C15.7124 20.3047 15.9761 20.5723 16.3003 20.5723L20.3989 20.9883C20.562 20.9883 20.7085 20.9219 20.8154 20.8125C20.9229 20.7031 20.9888 20.5547 20.9888 20.3887L20.5796 16.2012C20.5801 15.873 20.3174 15.6055 19.9927 15.6055C19.6675 15.6055 19.4048 15.873 19.4048 16.2031L19.6973 18.8379Z" />
		<path d="M19.9932 6.38477L19.992 6.58477H19.9932V6.38477ZM19.4053 5.78516L19.2065 5.76309L19.2053 5.77409V5.78516H19.4053ZM20.5801 5.78711L20.381 5.76766L20.3801 5.77751L20.3801 5.78741L20.5801 5.78711ZM20.9893 1.59961L21.1883 1.61906L21.1893 1.60936V1.59961H20.9893ZM20.8159 1.17578L20.6729 1.3156L20.6732 1.31592L20.8159 1.17578ZM20.3994 1V0.8H20.3893L20.3792 0.801022L20.3994 1ZM16.3008 1.41602V1.61602H16.3109L16.321 1.61499L16.3008 1.41602ZM15.8042 1.69531L15.9736 1.80164L15.9742 1.8006L15.8042 1.69531ZM15.7139 2.01367L15.9139 2.01414L15.9139 2.01284L15.7139 2.01367ZM15.978 2.51367L16.0898 2.3478L16.0897 2.34773L15.978 2.51367ZM16.3013 2.61133V2.81133H16.3128L16.3243 2.80999L16.3013 2.61133ZM18.8735 2.3125L19.0161 2.45276L19.4139 2.04838L18.8505 2.11384L18.8735 2.3125ZM12.5811 8.70898L12.4385 8.56873L12.4381 8.56907L12.5811 8.70898ZM12.5811 9.54688L12.4386 9.68724L12.4387 9.68739L12.5811 9.54688ZM13.4048 9.54688L13.5471 9.68739L13.5474 9.68714L13.4048 9.54688ZM19.6978 3.15039L19.8965 3.17246L19.9603 2.59839L19.5552 3.01013L19.6978 3.15039ZM3.11523 19.6758L2.97269 19.5355L2.57517 19.9394L3.13816 19.8745L3.11523 19.6758ZM5.68799 19.3789V19.1789H5.67649L5.66506 19.1802L5.68799 19.3789ZM9.4082 13.2812L9.55075 13.4215L9.55082 13.4215L9.4082 13.2812ZM9.56787 12.75L9.76435 12.7126L9.76425 12.7121L9.56787 12.75ZM9.4082 12.4453L9.26588 12.5858L9.26598 12.5859L9.4082 12.4453ZM8.58447 12.4453L8.72701 12.5856L8.72739 12.5852L8.58447 12.4453ZM2.29199 18.8379L2.09321 18.8158L2.02946 19.3897L2.43453 18.9782L2.29199 18.8379ZM2.58447 16.2051L2.78325 16.2272L2.78449 16.216L2.78447 16.2048L2.58447 16.2051ZM1.40918 16.2031L1.60823 16.2226L1.60919 16.2127L1.60918 16.2028L1.40918 16.2031ZM1 20.3887L0.800949 20.3692L0.8 20.3789V20.3887H1ZM1.17334 20.8125L1.03065 20.9526L1.03111 20.9531L1.17334 20.8125ZM1.31787 20.9219L1.22208 21.0975L1.22536 21.0992L1.31787 20.9219ZM1.46191 20.9746L1.50824 20.78L1.50689 20.7797L1.46191 20.9746ZM1.58984 20.9883V21.1883H1.59997L1.61004 21.1873L1.58984 20.9883ZM5.68848 20.5723V20.3723H5.67835L5.66828 20.3733L5.68848 20.5723ZM6.27539 19.9746H6.07539L6.07539 19.9752L6.27539 19.9746ZM6.15381 19.6094L6.31382 19.4894L6.31237 19.4875L6.15381 19.6094ZM5.92334 19.4277L6.0053 19.2453L6.00272 19.2442L5.92334 19.4277ZM2.2915 3.15039L2.43405 3.01011L2.02901 2.59853L2.09272 3.17246L2.2915 3.15039ZM8.58447 9.54492L8.72754 9.40516L8.72702 9.40464L8.58447 9.54492ZM2.58398 5.78516H2.78398V5.77409L2.78276 5.76309L2.58398 5.78516ZM1.99609 6.38281V6.58282L1.99729 6.58281L1.99609 6.38281ZM1.40869 5.78711H1.60869V5.77737L1.60775 5.76768L1.40869 5.78711ZM1 1.59961H0.8V1.60935L0.800946 1.61904L1 1.59961ZM1.17334 1.17578L1.31603 1.31592L1.31608 1.31587L1.17334 1.17578ZM1.354 1.05078L1.43329 1.23445L1.4375 1.23252L1.354 1.05078ZM1.58984 1L1.61004 0.801022L1.59997 0.8H1.58984V1ZM5.68848 1.41602L5.66828 1.61499L5.67835 1.61602H5.68848V1.41602ZM6.27539 2.01367L6.07539 2.01308L6.07539 2.01397L6.27539 2.01367ZM5.68799 2.60938L5.66506 2.80806L5.67589 2.80931L5.68679 2.80937L5.68799 2.60938ZM3.11523 2.3125L3.13816 2.11382L2.57517 2.04885L2.97269 2.45278L3.11523 2.3125ZM9.4082 8.70703L9.55127 8.56727L9.55075 8.56675L9.4082 8.70703ZM9.40771 9.54492L9.26539 9.40441L9.26524 9.40456L9.40771 9.54492ZM13.4048 12.4434L13.2619 12.5833L13.2622 12.5836L13.4048 12.4434ZM19.6973 18.8379L19.5547 18.9782L19.9598 19.3898L19.896 18.8158L19.6973 18.8379ZM12.5806 12.4434L12.723 12.5837L12.7233 12.5834L12.5806 12.4434ZM12.5806 13.2793L12.7231 13.139L12.7229 13.1388L12.5806 13.2793ZM18.873 19.6758L18.8501 19.8745L19.413 19.9394L19.0156 19.5355L18.873 19.6758ZM16.3008 19.3789L16.3237 19.1802L16.3123 19.1789H16.3008V19.3789ZM16.0117 19.4551L16.1105 19.629L16.1109 19.6287L16.0117 19.4551ZM15.7134 19.9746L15.9134 19.9752L15.9134 19.9742L15.7134 19.9746ZM16.3003 20.5723L16.3205 20.3733L16.3104 20.3723H16.3003V20.5723ZM20.3989 20.9883L20.3787 21.1873L20.3888 21.1883H20.3989V20.9883ZM20.8154 20.8125L20.6727 20.6724L20.6724 20.6727L20.8154 20.8125ZM20.9888 20.3887H21.1888V20.3789L21.1878 20.3692L20.9888 20.3887ZM20.5796 16.2012L20.3796 16.2009L20.3796 16.2108L20.3805 16.2206L20.5796 16.2012ZM19.4048 16.2031H19.2048V16.2142L19.206 16.2252L19.4048 16.2031ZM19.9944 6.18477C19.7817 6.18349 19.6053 6.00776 19.6053 5.78516H19.2053C19.2053 6.22271 19.5543 6.58213 19.992 6.58476L19.9944 6.18477ZM20.3801 5.78741C20.3804 6.01008 20.2042 6.18477 19.9932 6.18477V6.58477C20.4316 6.58477 20.7807 6.22429 20.7801 5.78681L20.3801 5.78741ZM20.7902 1.58016L20.381 5.76766L20.7791 5.80656L21.1883 1.61906L20.7902 1.58016ZM20.6732 1.31592C20.7455 1.38952 20.7893 1.48824 20.7893 1.59961H21.1893C21.1893 1.37895 21.1012 1.18079 20.9586 1.03564L20.6732 1.31592ZM20.3994 1.2C20.5064 1.2 20.602 1.24306 20.6729 1.3156L20.9589 1.03596C20.816 0.889754 20.6186 0.8 20.3994 0.8V1.2ZM16.321 1.61499L20.4196 1.19898L20.3792 0.801022L16.2806 1.21704L16.321 1.61499ZM15.9742 1.8006C16.0439 1.68807 16.165 1.61602 16.3008 1.61602V1.21602C16.0186 1.21602 15.7725 1.36662 15.6342 1.59002L15.9742 1.8006ZM15.9139 2.01284C15.9135 1.93437 15.9357 1.86204 15.9736 1.80164L15.6348 1.58899C15.5575 1.71218 15.5132 1.85859 15.5139 2.01451L15.9139 2.01284ZM16.0897 2.34773C15.9836 2.27637 15.9135 2.15428 15.9139 2.01414L15.5139 2.0132C15.5132 2.29103 15.6531 2.53613 15.8664 2.67961L16.0897 2.34773ZM16.3013 2.41133C16.2216 2.41133 16.1496 2.38813 16.0898 2.3478L15.8663 2.67954C15.992 2.76421 16.1417 2.81133 16.3013 2.81133V2.41133ZM18.8505 2.11384L16.2782 2.41266L16.3243 2.80999L18.8966 2.51116L18.8505 2.11384ZM12.7236 8.84924L19.0161 2.45276L18.731 2.17224L12.4385 8.56873L12.7236 8.84924ZM12.7235 9.40651C12.5733 9.25404 12.5724 9.00371 12.724 8.8489L12.4381 8.56907C12.1346 8.8791 12.1347 9.37877 12.4386 9.68724L12.7235 9.40651ZM13.2625 9.40636C13.1132 9.55752 12.8726 9.55752 12.7234 9.40636L12.4387 9.68739C12.7446 9.99717 13.2413 9.99717 13.5471 9.68739L13.2625 9.40636ZM19.5552 3.01013L13.2622 9.40661L13.5474 9.68714L19.8403 3.29065L19.5552 3.01013ZM19.6041 5.80722L19.8965 3.17246L19.499 3.12832L19.2065 5.76309L19.6041 5.80722ZM3.13816 19.8745L5.71091 19.5776L5.66506 19.1802L3.09231 19.4771L3.13816 19.8745ZM9.26565 13.141L2.97269 19.5355L3.25778 19.8161L9.55075 13.4215L9.26565 13.141ZM9.37139 12.7874C9.3954 12.9137 9.35941 13.0456 9.26558 13.141L9.55082 13.4215C9.74118 13.2278 9.81163 12.9613 9.76435 12.7126L9.37139 12.7874ZM9.26598 12.5859C9.32152 12.6421 9.35706 12.7131 9.37149 12.7879L9.76425 12.7121C9.73571 12.5642 9.66481 12.4204 9.55043 12.3047L9.26598 12.5859ZM8.72739 12.5852C8.87573 12.4337 9.11588 12.4339 9.26588 12.5858L9.55053 12.3048C9.24545 11.9958 8.74829 11.9921 8.44156 12.3054L8.72739 12.5852ZM2.43453 18.9782L8.72701 12.5856L8.44194 12.305L2.14946 18.6976L2.43453 18.9782ZM2.3857 16.183L2.09321 18.8158L2.49077 18.86L2.78325 16.2272L2.3857 16.183ZM1.99609 15.8074C2.20758 15.8074 2.38414 15.9822 2.38447 16.2054L2.78447 16.2048C2.78383 15.7678 2.435 15.4074 1.99609 15.4074V15.8074ZM1.60918 16.2028C1.60885 15.981 1.78426 15.8074 1.99609 15.8074V15.4074C1.55852 15.4074 1.20853 15.7651 1.20918 16.2034L1.60918 16.2028ZM1.19905 20.4081L1.60823 16.2226L1.21013 16.1837L0.800949 20.3692L1.19905 20.4081ZM1.31603 20.6724C1.24375 20.5988 1.2 20.5 1.2 20.3887H0.8C0.8 20.6093 0.888089 20.8075 1.03065 20.9526L1.31603 20.6724ZM1.41364 20.7463C1.37804 20.7269 1.34518 20.7018 1.31557 20.6719L1.03111 20.9531C1.08646 21.0091 1.15028 21.0583 1.2221 21.0975L1.41364 20.7463ZM1.50689 20.7797C1.47172 20.7716 1.43946 20.7597 1.41038 20.7446L1.22536 21.0992C1.28613 21.1309 1.35055 21.1542 1.41694 21.1695L1.50689 20.7797ZM1.58984 20.7883C1.5574 20.7883 1.53055 20.7854 1.50824 20.78L1.41559 21.1692C1.47531 21.1834 1.53439 21.1883 1.58984 21.1883V20.7883ZM5.66828 20.3733L1.56965 20.7893L1.61004 21.1873L5.70867 20.7712L5.66828 20.3733ZM6.07539 19.9752C6.07605 20.1973 5.89935 20.3723 5.68848 20.3723V20.7723C6.12604 20.7723 6.47669 20.4121 6.47539 19.974L6.07539 19.9752ZM5.99381 19.7294C6.04493 19.7975 6.07539 19.8827 6.07539 19.9746H6.47539C6.47539 19.7931 6.41504 19.6243 6.31381 19.4894L5.99381 19.7294ZM5.84139 19.6102C5.90281 19.6378 5.9555 19.6796 5.99525 19.7313L6.31237 19.4875C6.232 19.3829 6.12649 19.2997 6.00529 19.2453L5.84139 19.6102ZM5.68799 19.5789C5.74317 19.5789 5.79581 19.5905 5.84396 19.6113L6.00272 19.2442C5.90634 19.2025 5.7998 19.1789 5.68799 19.1789V19.5789ZM2.14896 3.29068L8.44192 9.68521L8.72702 9.40464L2.43405 3.01011L2.14896 3.29068ZM2.78276 5.76309L2.49028 3.12832L2.09272 3.17246L2.38521 5.80722L2.78276 5.76309ZM1.99729 6.58281C2.43413 6.58019 2.78398 6.22356 2.78398 5.78516H2.38398C2.38398 6.00691 2.20845 6.18153 1.99489 6.18282L1.99729 6.58281ZM1.20869 5.78711C1.20869 6.22278 1.55804 6.58281 1.99609 6.58281V6.18281C1.78473 6.18281 1.60869 6.00769 1.60869 5.78711H1.20869ZM0.800946 1.61904L1.20964 5.80654L1.60775 5.76768L1.19905 1.58018L0.800946 1.61904ZM1.03065 1.03564C0.888089 1.18079 0.8 1.37895 0.8 1.59961H1.2C1.2 1.48824 1.24375 1.38952 1.31603 1.31592L1.03065 1.03564ZM1.27474 0.867158C1.18157 0.907376 1.0993 0.965694 1.0306 1.03569L1.31608 1.31587C1.35089 1.2804 1.3907 1.25278 1.43327 1.2344L1.27474 0.867158ZM1.58984 0.8C1.47756 0.8 1.36944 0.82359 1.2705 0.869046L1.4375 1.23252C1.4831 1.21157 1.53416 1.2 1.58984 1.2V0.8ZM5.70867 1.21704L1.61004 0.801022L1.56965 1.19898L5.66828 1.61499L5.70867 1.21704ZM6.47539 2.01426C6.47669 1.57617 6.12604 1.21602 5.68848 1.21602V1.61602C5.89935 1.61602 6.07605 1.79101 6.07539 2.01308L6.47539 2.01426ZM5.68679 2.80937C6.12677 2.81201 6.47604 2.45071 6.47539 2.01338L6.07539 2.01397C6.07572 2.23679 5.89959 2.41064 5.68919 2.40938L5.68679 2.80937ZM3.09231 2.51118L5.66506 2.80806L5.71091 2.41069L3.13816 2.11382L3.09231 2.51118ZM9.55075 8.56675L3.25778 2.17222L2.97269 2.45278L9.26565 8.84732L9.55075 8.56675ZM9.55004 9.68544C9.85478 9.37677 9.85393 8.8771 9.55127 8.56727L9.26514 8.84679C9.41657 9.00181 9.41573 9.25214 9.26539 9.40441L9.55004 9.68544ZM8.44141 9.68468C8.74769 9.99821 9.24557 9.99449 9.55019 9.68528L9.26524 9.40456C9.11576 9.55629 8.87536 9.55648 8.72754 9.40516L8.44141 9.68468ZM13.2622 12.5836L19.5547 18.9782L19.8398 18.6976L13.5473 12.3031L13.2622 12.5836ZM12.7233 12.5834C12.873 12.4308 13.1128 12.4311 13.2619 12.5833L13.5477 12.3034C13.2416 11.9908 12.7441 11.991 12.4378 12.3033L12.7233 12.5834ZM12.7229 13.1388C12.5724 12.9864 12.5725 12.7365 12.723 12.5837L12.4381 12.303C12.1345 12.6111 12.1336 13.1113 12.4382 13.4198L12.7229 13.1388ZM19.0156 19.5355L12.7231 13.139L12.438 13.4196L18.7305 19.816L19.0156 19.5355ZM16.2779 19.5776L18.8501 19.8745L18.896 19.4771L16.3237 19.1802L16.2779 19.5776ZM16.1109 19.6287C16.1665 19.597 16.231 19.5789 16.3008 19.5789V19.1789C16.1606 19.1789 16.0278 19.2155 15.9125 19.2814L16.1109 19.6287ZM15.9134 19.9742C15.9131 19.8247 15.9935 19.6955 16.1105 19.629L15.9129 19.2812C15.6725 19.4178 15.5127 19.6792 15.5134 19.975L15.9134 19.9742ZM16.3003 20.3723C16.0894 20.3723 15.9127 20.1973 15.9134 19.9752L15.5134 19.974C15.5121 20.4121 15.8627 20.7723 16.3003 20.7723V20.3723ZM20.4191 20.7893L16.3205 20.3733L16.2801 20.7712L20.3787 21.1873L20.4191 20.7893ZM20.6724 20.6727C20.6015 20.7452 20.5059 20.7883 20.3989 20.7883V21.1883C20.6181 21.1883 20.8155 21.0985 20.9584 20.9523L20.6724 20.6727ZM20.7888 20.3887C20.7888 20.5 20.745 20.5988 20.6727 20.6724L20.9581 20.9526C21.1007 20.8075 21.1888 20.6093 21.1888 20.3887H20.7888ZM20.3805 16.2206L20.7897 20.4081L21.1878 20.3692L20.7786 16.1817L20.3805 16.2206ZM19.9927 15.8055C20.2041 15.8055 20.3799 15.9806 20.3796 16.2009L20.7796 16.2015C20.7802 15.7655 20.4307 15.4055 19.9927 15.4055V15.8055ZM19.6048 16.2031C19.6048 15.9803 19.7811 15.8055 19.9927 15.8055V15.4055C19.5538 15.4055 19.2048 15.7658 19.2048 16.2031H19.6048ZM19.896 18.8158L19.6036 16.1811L19.206 16.2252L19.4985 18.86L19.896 18.8158Z" />
	</g>

	<g viewBox="0 0 20 20" id="save">
		<path fill-rule="evenodd" clip-rule="evenodd" d="M17.6924 20H2.30762C1.31445 20 0.467773 19.373 0.142578 18.4922C0.050293 18.2422 0 17.9727 0 17.6914V2.30859C0 1.0332 1.0332 0 2.30762 0H16.1538L16.2437 0.00585938C16.3291 0.0136719 16.4126 0.0371094 16.4897 0.0742188C16.5669 0.111328 16.6382 0.160156 16.7002 0.222656L19.7769 3.30078C19.9209 3.44531 20.001 3.64258 20 3.8457V17.6914C20 18.2871 19.7749 18.8301 19.4048 19.2402C18.9824 19.707 18.3716 20 17.6924 20ZM6.92285 13.8457V18.4609H13.0767V13.8457C13.0767 13.4199 12.7324 13.0762 12.3076 13.0762H7.69189C7.46289 13.0762 7.25732 13.1758 7.1167 13.334C6.99609 13.4707 6.92285 13.6504 6.92285 13.8457ZM13.0767 1.53906V3.07812C13.0767 3.50195 12.7324 3.84766 12.3076 3.84766H7.69189C7.26709 3.84766 6.92285 3.50195 6.92285 3.07812V1.53906H13.0767ZM2.30762 1.53906C1.88281 1.53906 1.53857 1.88281 1.53857 2.30859V17.6934C1.53857 18.1172 1.88281 18.4629 2.30762 18.4629H5.38477V13.8477C5.38477 12.5723 6.41797 11.5391 7.69238 11.5391H12.3076C13.5825 11.5391 14.6157 12.5723 14.6157 13.8477V18.4629H17.6924C18.1172 18.4629 18.4614 18.1172 18.4614 17.6934V4.16211L15.8384 1.53906H14.6157V3.07812C14.6157 4.35156 13.5825 5.38477 12.3076 5.38477H7.69238C6.41797 5.38477 5.38477 4.35156 5.38477 3.07812V1.53906H2.30762Z" />
	</g>

	<g viewBox="0 0 20 20" id="plane">
		<path id="Shape" fill-rule="evenodd" clip-rule="evenodd" d="M18.9769 0.265825L19.8095 0.191406L19.7351 1.02396C19.3308 5.36144 17.3222 9.39186 14.1025 12.3263L12.5072 17.4426L9.73507 19.7449L9.05833 15.5588C8.43184 15.8199 7.7904 16.0436 7.1374 16.2286L6.74437 16.3402L3.66065 13.2565L3.7653 12.8705C3.95034 12.2175 4.17399 11.576 4.43507 10.9495L0.249023 10.2728L2.55833 7.49373L7.6746 5.90071C10.6087 2.68018 14.6391 0.670748 18.9769 0.265825ZM3.3653 8.70303L2.88391 9.28443L5.05833 9.63327C5.38013 9.01455 5.73892 8.41579 6.13274 7.84024L3.3653 8.70303ZM11.2955 16.6333L10.7141 17.1147L10.363 14.9402C10.9817 14.6184 11.5804 14.2596 12.156 13.8658L11.2955 16.6333ZM5.23042 12.8612L7.1374 14.7728L7.13972 14.7705C13.029 12.9159 17.3438 7.86348 18.2537 1.75652C12.1456 2.66158 7.08941 6.97284 5.23042 12.8612Z" />
		<path id="Shape_2" fill-rule="evenodd" clip-rule="evenodd" d="M4.18586 18.9684C3.46539 19.5336 2.57108 19.8311 1.65562 19.8102C1.48398 19.8104 1.31245 19.8019 1.14167 19.7847L0.302135 19.6986L0.216088 18.8614C0.0718648 17.7777 0.365647 16.6813 1.03237 15.8149C1.66234 15.0573 2.57304 14.5881 3.55562 14.5149L4.00911 14.4707L5.52772 15.9893L5.48353 16.4428C5.41154 17.4258 4.94315 18.3374 4.18586 18.9684ZM3.48818 15.9312C2.95427 16.0108 2.4679 16.2829 2.12074 16.6963H2.11376C1.73486 17.1886 1.54804 17.8019 1.58818 18.4219C2.20576 18.4603 2.81634 18.2736 3.30679 17.8963C3.72276 17.5447 3.99437 17.052 4.06958 16.5126L3.48818 15.9312Z" />
		<path id="Shape_3" fill-rule="evenodd" clip-rule="evenodd" d="M14.4744 8.75254C14.0465 9.18073 13.4657 9.4209 12.8604 9.41998C11.7695 9.42017 10.8304 8.64949 10.6178 7.57948C10.4052 6.50946 10.9782 5.43831 11.9864 5.02141C12.9945 4.6045 14.1567 4.95802 14.762 5.86567C15.3672 6.77332 15.2468 7.98215 14.4744 8.75254ZM13.2007 6.31777C12.8687 6.18031 12.4865 6.25645 12.2325 6.51068C12.0655 6.67696 11.9716 6.90292 11.9716 7.13859C11.9716 7.37426 12.0655 7.60022 12.2325 7.7665C12.4865 8.02073 12.8687 8.09687 13.2007 7.95941C13.5328 7.82195 13.7493 7.49797 13.7493 7.13859C13.7493 6.77921 13.5328 6.45523 13.2007 6.31777Z" />
	</g>

	<g viewBox="0 0 20 20" id="lifering">
		<path fill-rule="evenodd" clip-rule="evenodd" d="M0 10C0 4.4668 4.4668 0 10 0C15.5332 0 20 4.4668 20 10C20 15.5332 15.5332 20 10 20C4.4668 20 0 15.5332 0 10ZM16.2446 7.68945H18.5776C17.7554 4.59961 15.311 2.20117 12.2222 1.40039V3.71094C13.2275 4.07422 14.1274 4.67578 14.8501 5.44727C15.4526 6.08984 15.9312 6.85156 16.2446 7.68945ZM10 15.5566C6.93311 15.5566 4.44434 13.0684 4.44434 10C4.44434 6.93359 6.93311 4.44531 10 4.44531C13.0664 4.44531 15.5557 6.93359 15.5557 10C15.5557 13.0684 13.0664 15.5566 10 15.5566ZM7.77783 3.71094V1.40039C4.68896 2.20117 2.24463 4.59961 1.42236 7.68945H3.75586C4.42236 5.82227 5.91113 4.37891 7.77783 3.71094ZM1.37793 12.1328H3.68896C4.3335 14.0664 5.8667 15.5996 7.77783 16.2891V18.5996C4.62256 17.7988 2.15576 15.2891 1.37793 12.1328ZM12.2222 16.2891V18.5996C15.3779 17.7988 17.8442 15.2891 18.6221 12.1328H16.311C15.6665 14.0664 14.1553 15.5996 12.2222 16.2891Z" />
	</g>

	<g viewBox="0 0 12 12" id="dublicate">
		<path fill-rule="evenodd" clip-rule="evenodd" d="M5.4541 0H10.3633C10.8154 0 11.2012 0.160156 11.5205 0.478516C11.8398 0.798828 12 1.18555 12 1.63672V6.54492C12 6.70508 11.9805 6.85742 11.9404 7C11.9238 7.06055 11.9033 7.11914 11.8799 7.17578C11.7998 7.36719 11.6797 7.54297 11.5205 7.70312C11.3906 7.83203 11.249 7.93555 11.0967 8.01367C10.875 8.125 10.6309 8.18164 10.3633 8.18164H8.18164V10.3633C8.18164 10.8145 8.02246 11.2012 7.70215 11.5215C7.38281 11.8398 6.99707 12 6.5459 12H1.63672C1.47656 12 1.32422 11.9805 1.18066 11.9395C1.01074 11.8926 0.852539 11.8164 0.706055 11.7129C0.626953 11.6582 0.551758 11.5938 0.479492 11.5215C0.160156 11.2012 0 10.8145 0 10.3633V5.45508C0 5.17773 0.0595703 4.92578 0.179688 4.69922C0.255859 4.55469 0.355469 4.42188 0.479492 4.29688C0.798828 3.97852 1.18457 3.81836 1.63672 3.81836H3.81836V1.63672C3.81836 1.18555 3.97754 0.798828 4.29785 0.478516C4.61719 0.160156 5.00293 0 5.4541 0ZM3.81836 6.54492V4.9082H1.63574C1.48535 4.9082 1.35742 4.96094 1.25098 5.06836C1.14453 5.17383 1.09082 5.30273 1.09082 5.45312V10.3633C1.09082 10.4512 1.10938 10.5312 1.14551 10.6035C1.1709 10.6543 1.20605 10.7031 1.25098 10.748C1.35742 10.8555 1.48535 10.9082 1.63574 10.9082H6.54492C6.69629 10.9082 6.82422 10.8555 6.93066 10.748C7.03711 10.6426 7.09082 10.5137 7.09082 10.3633V8.18164H5.4541C5.00293 8.18164 4.61719 8.02148 4.29688 7.70117C3.97754 7.38281 3.81836 6.99609 3.81836 6.54492ZM5.4541 1.0918H10.3633C10.5146 1.0918 10.6426 1.14453 10.749 1.25195C10.8555 1.35742 10.9092 1.48633 10.9092 1.63672V6.54688C10.9092 6.69727 10.8555 6.82617 10.749 6.93164C10.6426 7.03906 10.5146 7.0918 10.3633 7.0918H5.4541C5.38184 7.0918 5.31445 7.08008 5.25195 7.05469C5.18555 7.02734 5.12402 6.98633 5.06934 6.93164C4.96289 6.82617 4.90918 6.69727 4.90918 6.54688V1.63672C4.90918 1.48633 4.96289 1.35742 5.06934 1.25195C5.17578 1.14453 5.30371 1.0918 5.4541 1.0918Z" />
	</g>
	<g viewBox="0 0 13 14" id="remove">
		<path fill-rule="evenodd" clip-rule="evenodd" d="M8.55469 0.777344H4.66602V2.33203H8.55469V0.777344ZM0.777344 3.11133H1.55469V4.66602H0.777344V3.11133ZM11.666 4.66602V14H1.55469V4.66602H3.11035V12.4434H10.1104V4.66602H11.666ZM11.666 4.66602V3.11133H12.4443V4.66602H11.666ZM4.66602 6.22266H6.22168V10.8887H4.66602V6.22266ZM8.55566 6.22266H7V10.8887H8.55566V6.22266Z" />
	</g>

	<g viewBox="0 0 20 20" id="note">
		<path id="Shape" fill-rule="evenodd" clip-rule="evenodd" d="M1.90783 0.0546875H18.0917C18.982 0.0546875 19.7046 0.777268 19.7046 1.66759V18.2257C19.7046 19.1128 18.982 19.8386 18.0917 19.8386H1.90783C1.0175 19.8386 0.294922 19.1128 0.294922 18.2257V1.66759C0.294922 0.777268 1.0175 0.0546875 1.90783 0.0546875ZM2.23041 17.9031H17.7691V1.99017H2.23041V17.9031Z" fill="#AAB1B8"/>
		<path id="Shape_2" d="M16.3176 5.69626C16.3176 6.23174 15.8854 6.664 15.3499 6.664H4.64987C4.11761 6.664 3.68213 6.23174 3.68213 5.69626C3.68213 5.164 4.11761 4.72852 4.64987 4.72852H15.3499C15.8854 4.72852 16.3176 5.164 16.3176 5.69626Z" fill="#AAB1B8"/>
		<path id="Shape_3" d="M8.30794 9.9443C8.30794 10.4798 7.87245 10.912 7.34019 10.912H4.64987C4.11761 10.912 3.68213 10.4798 3.68213 9.9443C3.68213 9.40882 4.11761 8.97656 4.64987 8.97656H7.34019C7.87245 8.97656 8.30794 9.40882 8.30794 9.9443Z" fill="#AAB1B8"/>
		<path id="Shape_4" d="M8.30794 14.2451C8.30794 14.7806 7.87245 15.2128 7.34019 15.2128H4.64987C4.11761 15.2128 3.68213 14.7806 3.68213 14.2451C3.68213 13.7128 4.11761 13.2773 4.64987 13.2773H7.34019C7.87245 13.2773 8.30794 13.7128 8.30794 14.2451Z" fill="#AAB1B8"/>
		<path id="Shape_5" d="M16.0537 10.8636L12.6953 14.2249C12.505 14.412 12.2566 14.5091 12.0111 14.5091C11.7628 14.5091 11.5147 14.412 11.3244 14.2249L10.034 12.9346C9.65662 12.5572 9.65662 11.9446 10.034 11.5636C10.4115 11.1862 11.0279 11.1862 11.405 11.5636L12.0111 12.1704L14.6857 9.4962C15.0631 9.11846 15.6757 9.11846 16.0534 9.4962C16.4311 9.87329 16.4311 10.4862 16.0537 10.8636Z" fill="#AAB1B8"/>
	</g>

	<g viewBox="0 0 15 6" id="move">
		<rect opacity="0.4" width="2" height="2" fill="#AAB1B8"/>
		<rect opacity="0.4" x="2" y="3" width="2" height="2" fill="#AAB1B8"/>
		<rect opacity="0.4" x="4" width="2" height="2" fill="#AAB1B8"/>
		<rect opacity="0.4" x="6" y="3" width="2" height="2" fill="#AAB1B8"/>
		<rect opacity="0.4" x="8" width="2" height="2" fill="#AAB1B8"/>
		<rect opacity="0.4" x="12" width="2" height="2" fill="#AAB1B8"/>
		<rect opacity="0.4" x="10" y="3" width="2" height="2" fill="#AAB1B8"/>
		<rect opacity="0.5" x="1" y="1" width="2" height="2" fill="black"/>
		<rect opacity="0.5" x="3" y="4" width="2" height="2" fill="black"/>
		<rect opacity="0.5" x="5" y="1" width="2" height="2" fill="black"/>
		<rect opacity="0.5" x="7" y="4" width="2" height="2" fill="black"/>
		<rect opacity="0.5" x="9" y="1" width="2" height="2" fill="black"/>
		<rect opacity="0.5" x="13" y="1" width="2" height="2" fill="black"/>
		<rect opacity="0.5" x="11" y="4" width="2" height="2" fill="black"/>
	</g>

	<g viewBox="0 0 23 21" id="edit">
		<path fill-rule="evenodd" clip-rule="evenodd" d="M15.3553 2.42339C15.1974 2.26185 15.1974 2.01955 15.3553 1.85801L17.0329 0.141662C17.1908 -0.0198768 17.4276 -0.0198768 17.5855 0.141662L20.3684 2.98878C20.5263 3.15032 20.5263 3.39262 20.3684 3.55416L18.6908 5.27051C18.5329 5.43205 18.2961 5.43205 18.1382 5.27051L15.3553 2.42339ZM7.89474 16.3561L17.0724 6.96666C17.2105 6.82532 17.1908 6.58301 17.0329 6.44166L14.25 3.57435C14.0921 3.41282 13.8553 3.39262 13.7368 3.53397L4.53947 12.9234L3.15789 17.7695L7.89474 16.3561ZM0 21.0003V19.3849H22.1053V21.0003H0Z" />
	</g>

	<g viewBox="0 0 48 48" id="device-rotate">
		<path d="M0 0h48v48h-48z" fill="none"/>
    	<path d="M32.97 5.03c6.53 3.1 11.22 9.45 11.93 16.97h3c-1.02-12.32-11.32-22-23.9-22-.45 0-.88.04-1.33.07l7.63 7.63 2.67-2.67zm-12.51-1.54c-1.17-1.17-3.07-1.17-4.24 0l-12.73 12.73c-1.17 1.17-1.17 3.07 0 4.24l24.04 24.04c1.17 1.17 3.07 1.17 4.24 0l12.73-12.73c1.17-1.17 1.17-3.07 0-4.24l-24.04-24.04zm9.2 38.89l-24.05-24.04 12.73-12.73 24.04 24.04-12.72 12.73zm-14.63.59c-6.53-3.1-11.22-9.45-11.93-16.97h-3c1.02 12.32 11.32 22 23.9 22 .45 0 .88-.04 1.33-.07l-7.63-7.63-2.67 2.67z"/>
	</g>

	<g viewBox="0 0 18 22" id="login">
		<path fill-rule="evenodd" clip-rule="evenodd" d="M9 11C5.96243 11 3.5 8.53757 3.5 5.5C3.5 2.46243 5.96243 0 9 0C12.0376 0 14.5 2.46243 14.5 5.5C14.5 8.53757 12.0376 11 9 11ZM18 21C18 21.5523 17.5523 22 17 22C16.4477 22 16 21.5523 16 21C16 17.134 12.866 14 9 14C5.13401 14 2 17.134 2 21C2 21.5523 1.55228 22 1 22C0.447715 22 0 21.5523 0 21C0 16.0294 4.02944 12 9 12C13.9706 12 18 16.0294 18 21ZM12.5 5.5C12.5 7.433 10.933 9 9 9C7.067 9 5.5 7.433 5.5 5.5C5.5 3.567 7.067 2 9 2C10.933 2 12.5 3.567 12.5 5.5Z" />
	</g>

	<g viewBox="0 0 18 12" id="ham">
		<rect width="18" height="2" />
		<rect y="5" width="18" height="2" />
		<rect y="10" width="18" height="2" />
	</g>

	



</svg>